<svg width="24" height="24" viewBox="0 0 24 24" fill="none" xmlns="http://www.w3.org/2000/svg">
<path d="M8.99805 3.75781L22.8797 4.86063V2.98827L8.99805 2.625V3.75781Z" fill="#91591C"/>
<path d="M13.5781 2.74219L12.0469 2.70386L12.666 3.81094C12.8161 4.03909 13.005 4.64141 12.5597 5.2255C12.003 5.95562 12.4635 6.79804 12.5243 6.8957C12.585 6.99337 13.1012 8.13408 12.499 8.9185C12.0172 9.54604 12.1396 10.2157 12.2611 10.4722L13.1012 12.375H14.9086C14.596 11.9072 13.9592 10.8764 13.8579 10.508C13.7314 10.0475 13.5212 9.58146 14.0071 8.9185C14.4929 8.25554 14.1879 7.25752 14.034 6.8957C13.8801 6.53389 13.5078 5.91849 14.0641 5.2255C14.5091 4.67111 14.3257 4.05146 14.1784 3.81094L13.5781 2.74219Z" fill="#DEAE7E"/>
<path d="M12.0469 2.70703L10.5234 2.66797L11.1894 3.8111C11.3395 4.03924 11.5285 4.64157 11.0831 5.22566C10.5264 5.95578 10.987 6.79819 11.0477 6.89586C11.1084 6.99353 11.6246 8.13424 11.0224 8.91866C10.5406 9.5462 10.6631 10.2159 10.7845 10.4723L11.6246 12.3752H13.1682C12.9168 11.8944 12.3888 10.8407 12.2876 10.4723C12.1611 10.0118 12.0447 9.58162 12.5305 8.91866C13.0163 8.2557 12.7113 7.25768 12.5574 6.89586C12.4035 6.53404 12.0312 5.91865 12.5875 5.22566C13.0325 4.67126 12.8491 4.05162 12.7018 3.8111L12.0469 2.70703Z" fill="#F5C99D"/>
<path d="M17.2521 7.12891H22.879L18.0018 12.375H12L17.2521 7.12891Z" fill="#FAC623"/>
<path d="M12 12.375H17.9971L16.4883 22.875H12V12.375Z" fill="#EDA600"/>
<path d="M12 12.375H6.00293L7.51172 22.875H12V12.375Z" fill="#F6BB00"/>
<path d="M3.21875 6.17188C3.4881 5.90252 3.94141 5.89454 4.25 6.1719L5.26562 7.12925H6.74805L12 12.3753H5.99805L1.12109 7.12925H3.38281L3.28906 7.0355C3.02916 6.77559 2.9494 6.44124 3.21875 6.17188Z" fill="#FAC623"/>
<path d="M8.99707 1.49219L22.8787 1.125V2.98828L8.99707 2.62109V1.49219Z" fill="#B1712C"/>
</svg>
