<svg width="10" height="15" viewBox="0 0 10 15" fill="none" xmlns="http://www.w3.org/2000/svg">
<path d="M1.62817 1.00406L3.14233 0.625L3.875 2.5V5.50391H1.62817L2.03906 2.5L1.62817 1.00406Z" fill="#F6BB00"/>
<path d="M0.878086 2.50415H2.03906C2.03906 2.50415 2.21484 2.75096 2.21484 3.98793C2.21484 5.2249 1.99186 5.50391 1.99186 5.50391H0.878086C0.878086 5.50391 0.677999 5.12738 0.677979 3.98793C0.677958 2.84848 0.878086 2.50415 0.878086 2.50415Z" fill="#EDA600"/>
<rect x="5" y="0.625" width="1.5" height="4.87891" fill="#DE9400"/>
<path d="M4.89002 3.44864L6.49991 3.99311V7.00391H2.48828L4.89002 3.44864Z" fill="#F6BB00"/>
<path d="M3.85298 2.50415H5.36446C5.36446 2.50415 5.46755 3.64007 4.85582 4.77248C4.24409 5.90489 3.228 7.00391 3.228 7.00391H1.02247C1.02247 7.00391 3.16948 4.71731 3.56319 3.92989C3.95691 3.14246 3.85298 2.50415 3.85298 2.50415Z" fill="#FAC623"/>
<path d="M6.49995 2.50415H8.00703V7.00391H5.73438L6.49995 2.50415Z" fill="#EDA600"/>
<path d="M8.00695 1.75H9.50378C9.50378 1.75 9.62862 2.90726 9.40715 3.9146C9.18568 4.92194 8.76417 5.50391 8.76417 5.50391H7.23193C7.23193 5.50391 7.69446 4.72666 7.85071 4.05165C8.00695 3.37665 8.00695 1.75 8.00695 1.75Z" fill="#F6BB00"/>
<path d="M0.128906 5.50391H2.38281L3.87109 6.99609H5.75L7.25391 5.50391H9.50391L8.38197 14.875H1.23828L0.128906 5.50391Z" fill="#CC442F"/>
</svg>
