<svg width="24" height="24" viewBox="0 0 24 24" fill="none" xmlns="http://www.w3.org/2000/svg">
<path d="M3 15.3309H21V17C21 18.6568 19.6569 20 18 20H6C4.34315 20 3 18.6568 3 17V15.3309Z" fill="#F5C99D"/>
<rect x="4.28589" y="8.66599" width="15.4286" height="6.66486" rx="1" fill="#C78640"/>
<rect x="4.28589" y="11.3233" width="15.4286" height="1.34144" fill="#A36522"/>
<path d="M3 8.66913H21V7.00001C21 5.34315 19.6569 4.00001 18 4.00001H6C4.34315 4.00001 3 5.34315 3 7.00001V8.66913Z" fill="#F5C99D"/>
<path d="M3.62964 10.0251H3.63634V8.66678H15.2145V10.0251L8.17651 13.3394L3.62964 10.0251Z" fill="#F6BB00"/>
<rect x="5.62476" y="17.295" width="0.746094" height="0.746399" fill="#DEAE7E"/>
<rect x="10.4944" y="16.1699" width="0.746094" height="0.746399" fill="#DEAE7E"/>
<rect x="7.49683" y="18.0414" width="0.746094" height="0.746399" fill="#DEAE7E"/>
<rect x="15.3752" y="17.3025" width="0.746094" height="0.746399" fill="#DEAE7E"/>
<rect x="13.8794" y="18.4146" width="0.746094" height="0.746399" fill="#DEAE7E"/>
<rect x="17.6296" y="17.6757" width="0.746094" height="0.746399" fill="#DEAE7E"/>
<rect x="5.62476" y="5.40237" width="0.746094" height="0.746399" fill="#DEAE7E"/>
<rect x="7.8772" y="6.89355" width="0.746094" height="0.746399" fill="#DEAE7E"/>
<rect x="10.4944" y="6.52036" width="0.746094" height="0.746399" fill="#DEAE7E"/>
<rect x="12.3665" y="5.40237" width="0.746094" height="0.746399" fill="#DEAE7E"/>
<rect x="15.7498" y="6.88986" width="0.746094" height="0.746399" fill="#DEAE7E"/>
<rect x="15.0037" y="5.02917" width="0.746094" height="0.746399" fill="#DEAE7E"/>
<rect x="17.6233" y="5.77557" width="0.746094" height="0.746399" fill="#DEAE7E"/>
<circle cx="5.00366" cy="9.52505" r="0.292236" fill="#FFA132"/>
<circle cx="8.47314" cy="11.8894" r="0.292236" fill="#FFA132"/>
<circle cx="6.87085" cy="10.8233" r="0.5" fill="#FFA132"/>
<circle cx="9.16452" cy="9.92419" r="0.399139" fill="#FFA132"/>
<circle cx="11.7405" cy="9.52505" r="0.5" fill="#FFA132"/>
</svg>
