<svg width="30" height="31" viewBox="0 0 30 31" fill="none" xmlns="http://www.w3.org/2000/svg">
<g clip-path="url(#clip0_41267_1669)" filter="url(#filter0_d_41267_1669)">
<rect x="2.59766" y="14.7737" width="21.5264" height="13.7154" rx="4" transform="rotate(-45 2.59766 14.7737)" fill="#F5C99D"/>
<path d="M7.10695 16.359C6.23024 15.4823 6.00959 14.198 6.44499 13.1161C6.73416 12.3976 7.4375 11.8199 8.20028 11.6856C8.28864 11.67 8.38413 11.6548 8.48734 11.64C9.86205 11.4431 10.4283 10.5985 10.5074 9.65702C10.5864 8.71555 10.9274 7.58474 12.583 7.50726C14.2386 7.42977 14.2099 6.72093 14.5615 5.94292C14.9131 5.16491 14.2925 5.31408 14.9641 4.37451C15.5965 3.48997 17.3467 2.89528 19.1678 3.77597C19.3983 3.88748 19.5999 4.04943 19.781 4.23054L22.8243 7.27384C22.9509 7.40039 23.0686 7.53678 23.1605 7.69036C24.0433 9.16561 23.7479 10.8447 23.2239 11.5152C22.6728 12.2202 22.2839 12.3961 20.9961 12.4863C19.7083 12.5764 19.5865 13.7061 19.4441 14.7905C19.3018 15.8748 18.2708 16.6437 17.1659 16.5696C16.061 16.4955 15.4378 17.7648 15.4093 18.7776C15.3809 19.7905 14.457 20.2943 14.457 20.2943C13.5682 20.7388 11.7848 21.0369 10.6132 19.8653L7.10695 16.359Z" fill="#A2BA18"/>
<rect x="3.00122" y="20.1959" width="28.5771" height="5.35" rx="2.675" transform="rotate(-45 3.00122 20.1959)" fill="#CC442F"/>
<path d="M22.0259 4.37816L23.2084 4.13261C23.4108 4.09338 23.6067 4.22563 23.6459 4.42801C23.6851 4.63038 23.5529 4.82623 23.3505 4.86546C23.3505 4.86546 22.7876 4.95057 22.2215 5.11284C21.6554 5.2751 21.5421 5.91108 21.5421 5.91108C21.5421 5.91108 21.4802 6.34965 21.1279 6.76721C20.7756 7.18476 20.306 7.26498 20.306 7.26498C19.5781 7.46767 19.2672 8.29678 19.2672 8.29678C19.2672 8.29678 19.1237 8.85133 18.7442 9.16768C18.3647 9.48404 17.89 9.52891 17.89 9.52891C17.1023 9.73677 16.975 10.6175 16.975 10.6175C16.975 10.6175 16.8678 11.0391 16.4615 11.3907C15.9706 11.8155 15.596 11.8125 15.596 11.8125C14.9045 11.9865 14.8519 12.571 14.7576 12.8253C14.6632 13.0795 14.6301 13.2491 14.2602 13.6165C13.8903 13.9839 13.3607 14.0522 13.3607 14.0522C12.6732 14.1798 12.5155 15.0246 12.5155 15.0246C12.5155 15.0246 12.5069 15.369 12.0756 15.8029C11.6443 16.2368 11.0952 16.3023 11.0952 16.3023C10.3252 16.5724 10.2675 17.2574 10.2675 17.2574C10.2675 17.2574 10.2039 17.6348 9.85537 18.0248C9.50689 18.4147 8.91969 18.5368 8.91969 18.5368C8.17178 18.7112 8.05507 19.3365 8.04027 19.4103L7.85678 20.373C7.85678 20.373 7.78686 20.6186 7.50784 20.6314C7.22882 20.6443 7.13036 20.3457 7.13622 20.2573C7.14207 20.1689 7.24626 19.4257 7.33035 19.1445C7.41443 18.8633 7.6486 18.4418 7.875 18.2628C8.10139 18.0837 8.22134 17.9463 8.63214 17.8516C8.63214 17.8516 9.49468 17.6616 9.57541 17.0087C9.57541 17.0087 9.6853 16.4372 10.0695 16.06C10.4537 15.6828 10.8896 15.5989 10.8896 15.5989C10.8896 15.5989 11.6875 15.4121 11.8204 14.779C11.8204 14.779 11.8301 14.3345 12.2709 13.8747C12.7116 13.415 13.1479 13.3473 13.1479 13.3473C13.1479 13.3473 13.9188 13.1988 14.0763 12.5384C14.0763 12.5384 14.1332 12.0266 14.4701 11.64C14.807 11.2535 15.1576 11.1796 15.2911 11.1282C15.4245 11.0768 16.0685 10.995 16.3187 10.3003C16.3187 10.3003 16.4194 9.73153 16.7576 9.36808C17.0958 9.00462 17.2999 8.93485 17.7404 8.83804C17.7404 8.83804 18.4362 8.73189 18.5666 7.99055C18.5666 7.99055 18.6356 7.49069 19.0706 7.04581C19.5057 6.60093 19.9526 6.60801 20.0352 6.55883C20.1178 6.50965 20.7809 6.45114 20.8747 5.52149C20.8747 5.52149 20.9432 5.15112 21.309 4.79881C21.6748 4.4465 22.0259 4.37816 22.0259 4.37816Z" fill="#F6BB00"/>
</g>
<defs>
<filter id="filter0_d_41267_1669" x="-1" y="0" width="32" height="32" filterUnits="userSpaceOnUse" color-interpolation-filters="sRGB">
<feFlood flood-opacity="0" result="BackgroundImageFix"/>
<feColorMatrix in="SourceAlpha" type="matrix" values="0 0 0 0 0 0 0 0 0 0 0 0 0 0 0 0 0 0 127 0" result="hardAlpha"/>
<feOffset dy="4"/>
<feGaussianBlur stdDeviation="2"/>
<feComposite in2="hardAlpha" operator="out"/>
<feColorMatrix type="matrix" values="0 0 0 0 0 0 0 0 0 0 0 0 0 0 0 0 0 0 0.25 0"/>
<feBlend mode="normal" in2="BackgroundImageFix" result="effect1_dropShadow_41267_1669"/>
<feBlend mode="normal" in="SourceGraphic" in2="effect1_dropShadow_41267_1669" result="shape"/>
</filter>
<clipPath id="clip0_41267_1669">
<rect width="24" height="24" fill="white" transform="translate(3)"/>
</clipPath>
</defs>
</svg>
