<svg width="24" height="24" viewBox="0 0 24 24" fill="none" xmlns="http://www.w3.org/2000/svg">
<path d="M2.99609 19.8711C2.99609 21.5279 4.33924 22.8711 5.99609 22.8711H17.9966C19.6534 22.8711 20.9966 21.5279 20.9966 19.8711V18.0039H2.99609V19.8711Z" fill="#F5C99D"/>
<rect x="4.125" y="9" width="15.75" height="9.00391" fill="#91591C"/>
<rect x="3.37598" y="15.3701" width="17.248" height="2.63422" rx="1.31711" fill="#B1712C"/>
<path d="M19.8748 13.2195H4.12475C4.12475 13.2195 3.99113 14.0572 4.6875 14.3633C5.38387 14.6694 15.3553 16.881 15.3553 16.881C15.3553 16.881 19.0298 14.798 19.49 14.4266C19.9502 14.0552 19.8748 13.2195 19.8748 13.2195Z" fill="#F6BB00"/>
<rect x="3.375" y="10.8679" width="17.248" height="2.63422" rx="1.31711" fill="#B1712C"/>
<path d="M4.12503 9H19.875C19.875 9 19.875 9.75781 19.2004 9.91135C18.5258 10.0649 8.64456 12.3789 8.64456 12.3789C8.64456 12.3789 5.03084 10.3625 4.57221 9.9922C4.11358 9.62188 4.12503 9 4.12503 9Z" fill="#F6BB00"/>
<path d="M13.8936 2.17957C14.262 2.50429 14.8799 3.39007 16.823 3.39007C18.7662 3.39007 20.9861 5.38087 20.9961 7.85742L20.9971 9H2.99609V6.92871C3.31244 1.87249 7.39757 1.12967 8.68732 1.12967C10.0634 1.12966 11.1724 1.01692 12.0213 1.17711C13.1027 1.38115 13.603 1.92334 13.8936 2.17957Z" fill="#F5C99D"/>
<rect x="6.00391" y="5.2536" width="0.746094" height="0.746399" fill="#DEAE7E"/>
<rect x="6.00391" y="19.4975" width="0.746094" height="0.746399" fill="#DEAE7E"/>
<rect x="8.62939" y="3.38211" width="0.746094" height="0.746399" fill="#DEAE7E"/>
<rect x="9.3667" y="19.4975" width="0.746094" height="0.746399" fill="#DEAE7E"/>
<rect x="10.8735" y="3.00891" width="0.746094" height="0.746399" fill="#DEAE7E"/>
<rect x="10.8735" y="18.3724" width="0.746094" height="0.746399" fill="#DEAE7E"/>
<rect x="8.25635" y="6.74478" width="0.746094" height="0.746399" fill="#DEAE7E"/>
<rect x="10.8735" y="6.37158" width="0.746094" height="0.746399" fill="#DEAE7E"/>
<rect x="10.8735" y="20.9903" width="0.746094" height="0.746399" fill="#DEAE7E"/>
<rect x="12.7456" y="5.2536" width="0.746094" height="0.746399" fill="#DEAE7E"/>
<rect x="12" y="19.4975" width="0.746094" height="0.746399" fill="#DEAE7E"/>
<rect x="16.1289" y="6.74109" width="0.746094" height="0.746399" fill="#DEAE7E"/>
<rect x="7.87598" y="20.2439" width="0.746094" height="0.746399" fill="#DEAE7E"/>
<rect x="15.3828" y="4.8804" width="0.746094" height="0.746399" fill="#DEAE7E"/>
<rect x="15.7544" y="19.505" width="0.746094" height="0.746399" fill="#DEAE7E"/>
<rect x="14.2583" y="20.6171" width="0.746094" height="0.746399" fill="#DEAE7E"/>
<rect x="18.0024" y="5.6268" width="0.746094" height="0.746399" fill="#DEAE7E"/>
<rect x="18.0088" y="19.8782" width="0.746094" height="0.746399" fill="#DEAE7E"/>
</svg>
