<svg width="24" height="24" viewBox="0 0 24 24" fill="none" xmlns="http://www.w3.org/2000/svg">
<path d="M7.50659 7.125H19.5L18.7416 21.3789H8.25978L7.50659 7.125Z" fill="#B1712C"/>
<rect x="6.75781" y="5.625" width="13.5" height="1.5" fill="#E5E7E9"/>
<rect x="8.26172" y="21.3789" width="10.4805" height="1.49609" fill="#D9D9D9"/>
<path d="M7.88281 5.625C7.88281 3.1407 9.89674 1.12677 12.381 1.12677H14.6307C17.115 1.12677 19.1289 3.1407 19.1289 5.625V5.625H7.88281V5.625Z" fill="#CBCFD2"/>
<path d="M12.375 20.25H22.875V20.25C22.875 21.6997 21.6997 22.875 20.25 22.875H15C13.5503 22.875 12.375 21.6997 12.375 20.25V20.25Z" fill="#F5C99D"/>
<rect x="13.125" y="16.5015" width="9" height="3.74847" rx="1" fill="#C78640"/>
<rect x="13.125" y="17.9961" width="9" height="0.753906" fill="#A36522"/>
<path d="M12.375 16.5033H22.875V16.5033C22.875 15.0535 21.6997 13.8783 20.25 13.8783H15C13.5503 13.8783 12.375 15.0535 12.375 16.5033V16.5033Z" fill="#F5C99D"/>
<path d="M12.7422 17.2656H12.7461V16.502H19.5V17.2656L15.3945 19.1289L12.7422 17.2656Z" fill="#F6BB00"/>
<path d="M2.62817 9.00406L4.14233 8.625L4.875 10.5V13.5039H2.62817L3.03906 10.5L2.62817 9.00406Z" fill="#F6BB00"/>
<path d="M1.87809 10.5042H3.03906C3.03906 10.5042 3.21484 10.751 3.21484 11.9879C3.21484 13.2249 2.99186 13.5039 2.99186 13.5039H1.87809C1.87809 13.5039 1.678 13.1274 1.67798 11.9879C1.67796 10.8485 1.87809 10.5042 1.87809 10.5042Z" fill="#EDA600"/>
<rect x="6" y="8.625" width="1.5" height="4.87891" fill="#DE9400"/>
<path d="M5.89002 11.4486L7.49991 11.9931V15.0039H3.48828L5.89002 11.4486Z" fill="#F6BB00"/>
<path d="M4.85298 10.5042H6.36446C6.36446 10.5042 6.46755 11.6401 5.85582 12.7725C5.24409 13.9049 4.228 15.0039 4.228 15.0039H2.02247C2.02247 15.0039 4.16948 12.7173 4.56319 11.9299C4.95691 11.1425 4.85298 10.5042 4.85298 10.5042Z" fill="#FAC623"/>
<path d="M7.49995 10.5042H9.00703V15.0039H6.73438L7.49995 10.5042Z" fill="#EDA600"/>
<path d="M9.00695 9.75H10.5038C10.5038 9.75 10.6286 10.9073 10.4072 11.9146C10.1857 12.9219 9.76417 13.5039 9.76417 13.5039H8.23193C8.23193 13.5039 8.69446 12.7267 8.85071 12.0517C9.00695 11.3767 9.00695 9.75 9.00695 9.75Z" fill="#F6BB00"/>
<path d="M1.12891 13.5039H3.38281L4.87109 14.9961H6.75L8.25391 13.5039H10.5039L9.38197 22.875H2.23828L1.12891 13.5039Z" fill="#CC442F"/>
</svg>
