<svg width="24" height="24" viewBox="0 0 24 24" fill="none" xmlns="http://www.w3.org/2000/svg">
<rect x="20.1094" y="11.9922" width="2.01562" height="1.87891" fill="#CC442F"/>
<path d="M22.873 17.5716C22.873 17.0424 22.7664 16.5184 22.5591 16.0294C22.3519 15.5405 22.0481 15.0962 21.6652 14.722C21.2822 14.3478 20.8276 14.051 20.3273 13.8484C19.827 13.6459 19.2907 13.5417 18.7491 13.5417C18.2076 13.5417 17.6713 13.6459 17.171 13.8484C16.6707 14.051 16.216 14.3478 15.8331 14.722C15.4502 15.0962 15.1464 15.5405 14.9392 16.0294C14.7319 16.5184 14.6252 17.0424 14.6252 17.5716L14.6252 18.3867H22.873V17.5716Z" fill="#EDA600"/>
<path d="M9.37402 17.5716C9.37402 17.0424 9.26736 16.5184 9.06011 16.0294C8.85286 15.5405 8.5491 15.0962 8.16616 14.722C7.78322 14.3478 7.32861 14.051 6.82827 13.8484C6.32794 13.6459 5.79168 13.5417 5.25012 13.5417C4.70856 13.5417 4.17231 13.6459 3.67197 13.8484C3.17164 14.051 2.71702 14.3478 2.33408 14.722C1.95114 15.0962 1.64738 15.5405 1.44013 16.0294C1.23289 16.5184 1.12622 17.0424 1.12622 17.5716L1.12622 18.3867H9.37402V17.5716Z" fill="#EDA600"/>
<path d="M8.24561 18.7518C8.24561 19.1464 8.16789 19.5371 8.01689 19.9016C7.86589 20.2661 7.64457 20.5974 7.36557 20.8764C7.08656 21.1554 6.75533 21.3767 6.39079 21.5277C6.02625 21.6787 5.63554 21.7564 5.24097 21.7564C4.84639 21.7564 4.45568 21.6787 4.09114 21.5277C3.7266 21.3767 3.39537 21.1554 3.11637 20.8764C2.83736 20.5974 2.61604 20.2661 2.46504 19.9016C2.31405 19.5371 2.24609 19.1464 2.24609 18.7518V18.3789H3.75V18.7518C3.75 18.9501 3.77024 19.1464 3.84611 19.3295C3.92199 19.5127 4.0332 19.6792 4.17339 19.8194C4.31359 19.9596 4.48002 20.0708 4.6632 20.1467C4.84637 20.2225 5.0427 20.2616 5.24097 20.2616C5.43923 20.2616 5.63556 20.2225 5.81873 20.1467C6.00191 20.0708 6.16835 19.9596 6.30854 19.8194C6.44874 19.6792 6.55995 19.5127 6.63582 19.3295C6.71169 19.1464 6.75075 18.9501 6.75075 18.7518V18.3683H8.24561V18.7518Z" fill="#4D6378"/>
<path d="M21.7529 18.7518C21.7529 19.1464 21.6752 19.5371 21.5242 19.9016C21.3732 20.2662 21.1519 20.5974 20.8729 20.8764C20.5939 21.1554 20.2627 21.3767 19.8981 21.5277C19.5336 21.6787 19.1429 21.7564 18.7483 21.7564C18.3537 21.7564 17.963 21.6787 17.5985 21.5277C17.2339 21.3767 16.9027 21.1554 16.6237 20.8764C16.3447 20.5974 16.1234 20.2662 15.9724 19.9016C15.8214 19.5371 15.7534 19.1464 15.7534 18.7518V18.3789H17.2573V18.7518C17.2573 18.9501 17.2776 19.1464 17.3534 19.3296C17.4293 19.5127 17.5405 19.6792 17.6807 19.8194C17.8209 19.9596 17.9873 20.0708 18.1705 20.1467C18.3537 20.2225 18.55 20.2616 18.7483 20.2616C18.9466 20.2616 19.1429 20.2225 19.3261 20.1467C19.5092 20.0708 19.6757 19.9596 19.8159 19.8194C19.9561 19.6792 20.0673 19.5127 20.1431 19.3296C20.219 19.1464 20.2581 18.9501 20.2581 18.7518V18.3683H21.7529V18.7518Z" fill="#4D6378"/>
<path d="M16.5071 7.1322H22.5071V10.5038H16.5071V7.1322Z" fill="#CC442F"/>
<path d="M16.5071 5.63058H22.5071V7.1322H16.5071V5.63058Z" fill="#F6BB00"/>
<path d="M11.2444 10.5038C11.2444 9.66882 11.9213 8.99194 12.7562 8.99194H16.5071V10.5038H11.2444Z" fill="#B1712C"/>
<path d="M6.75276 5.24219C7.99738 5.24219 9.00635 6.25115 9.00635 7.49577V13.5033L11.2501 15.7478H13.1318V13.128C13.1318 13.128 12.1398 12.4271 11.7095 11.8938C11.2793 11.3604 11.2444 10.5038 11.2444 10.5038H14.6459H17.6661C17.6661 10.5038 19.1739 10.6918 20.0824 11.7864C20.9908 12.881 21.0307 14.2292 21.0307 14.2292L14.6459 17.6247H9.36291L5.25391 13.5033V11.644C5.59437 11.5693 6.75276 10.0876 6.75276 9.01011V5.24219Z" fill="#F6BB00"/>
<rect x="5.25391" y="5.24219" width="1.49146" height="2.62454" fill="#D9D9D9"/>
</svg>
