<svg width="24" height="24" viewBox="0 0 24 24" fill="none" xmlns="http://www.w3.org/2000/svg">
<path d="M23 12C23 18.0751 18.0751 23 12 23C5.92487 23 1 18.0751 1 12C1 5.92487 5.92487 1 12 1C18.0751 1 23 5.92487 23 12ZM8.28624 12C8.28624 14.0511 9.94895 15.7138 12 15.7138C14.0511 15.7138 15.7138 14.0511 15.7138 12C15.7138 9.94895 14.0511 8.28624 12 8.28624C9.94895 8.28624 8.28624 9.94895 8.28624 12Z" fill="#B1712C"/>
<circle cx="9.37073" cy="19.8764" r="0.757935" fill="#F6BB00"/>
<circle cx="6.00134" cy="18.0052" r="0.757935" fill="#DE9400"/>
<path d="M4.86938 13.8766L5.98913 15.3578H3.74964L4.86938 13.8766Z" fill="#CC442F"/>
<path d="M16.5 19.8633L15.7578 18.383L17.6175 18.383L16.5 19.8633Z" fill="#CC442F"/>
<path d="M14.2578 20.2596L12.75 21.3577V19.1016L14.2578 20.2596Z" fill="#DE9400"/>
<rect x="2.62915" y="12.3743" width="1.49634" height="0.758301" fill="#91591C"/>
<rect x="6.00781" y="5.62891" width="1.49219" height="0.742188" fill="#91591C"/>
<rect x="5.04272" y="12.3318" width="1.57994" height="0.75156" transform="rotate(-45 5.04272 12.3318)" fill="#91591C"/>
<rect x="18.4805" y="13.2338" width="1.57994" height="0.75156" transform="rotate(-45 18.4805 13.2338)" fill="#91591C"/>
<rect x="20.3633" y="11.7305" width="1.04133" height="0.75156" transform="rotate(-45 20.3633 11.7305)" fill="#91591C"/>
<rect x="5.88428" y="9.11572" width="1.59099" height="0.7368" transform="rotate(45 5.88428 9.11572)" fill="#91591C"/>
<rect x="4.34741" y="6.81519" width="1.35849" height="0.7368" transform="rotate(34.9094 4.34741 6.81519)" fill="#91591C"/>
<rect x="11.4712" y="2.31696" width="1.35849" height="0.7368" transform="rotate(34.9094 11.4712 2.31696)" fill="#91591C"/>
<rect x="6.62891" y="7.22647" width="1.60217" height="0.754969" transform="rotate(45 6.62891 7.22647)" fill="#91591C"/>
<rect x="10.0149" y="4.98441" width="1.60217" height="0.754969" transform="rotate(45 10.0149 4.98441)" fill="#91591C"/>
<rect x="12.1006" y="5.35965" width="1.60217" height="0.754969" transform="rotate(-45 12.1006 5.35965)" fill="#91591C"/>
<rect x="14.4397" y="6.05353" width="1.32357" height="0.754969" transform="rotate(-35 14.4397 6.05353)" fill="#91591C"/>
<rect x="19.0349" y="15.3944" width="1.53398" height="0.736309" transform="rotate(-15 19.0349 15.3944)" fill="#91591C"/>
<rect x="18.5435" y="7.55502" width="1.36276" height="0.754969" transform="rotate(-33.6679 18.5435 7.55502)" fill="#91591C"/>
<rect x="14.9285" y="2.41721" width="1.34724" height="0.754969" transform="rotate(55 14.9285 2.41721)" fill="#91591C"/>
<rect x="17.1687" y="5.04059" width="1.34724" height="0.754969" transform="rotate(55 17.1687 5.04059)" fill="#91591C"/>
<rect x="19.3977" y="9.12766" width="1.55757" height="0.73497" transform="rotate(45.4077 19.3977 9.12766)" fill="#91591C"/>
<rect x="18.262" y="16.2397" width="1.58103" height="0.720412" transform="rotate(45.4077 18.262 16.2397)" fill="#91591C"/>
<rect x="2.75586" y="10.3105" width="1.0672" height="0.75156" transform="rotate(-45 2.75586 10.3105)" fill="#91591C"/>
<rect x="7.56543" y="3.89816" width="1.33358" height="0.75156" transform="rotate(-55.315 7.56543 3.89816)" fill="#91591C"/>
<path d="M16.2476 7.60972C17.3932 8.75538 18.0369 10.3092 18.0369 11.9294C18.0369 13.5497 17.3932 15.1035 16.2476 16.2492C15.1019 17.3948 13.5481 18.0385 11.9279 18.0385C10.3076 18.0385 8.7538 17.3948 7.60814 16.2492L8.20472 15.6526C9.19216 16.64 10.5314 17.1948 11.9279 17.1948C13.3243 17.1948 14.6636 16.64 15.651 15.6526C16.6384 14.6651 17.1932 13.3259 17.1932 11.9294C17.1932 10.533 16.6384 9.19374 15.651 8.20631L16.2476 7.60972Z" fill="#91591C"/>
</svg>
