<svg width="24" height="24" viewBox="0 0 24 24" fill="none" xmlns="http://www.w3.org/2000/svg">
<g clip-path="url(#clip0_41267_1669)">
<rect x="-0.402344" y="14.7737" width="21.5264" height="13.7154" rx="4" transform="rotate(-45 -0.402344 14.7737)" fill="#F5C99D"/>
<path d="M4.10695 16.359C3.23024 15.4823 3.00959 14.198 3.44499 13.1161C3.73416 12.3976 4.4375 11.8199 5.20028 11.6856C5.28864 11.67 5.38413 11.6548 5.48734 11.64C6.86205 11.4431 7.42832 10.5985 7.50737 9.65702C7.58643 8.71555 7.92741 7.58474 9.583 7.50726C11.2386 7.42977 11.2099 6.72093 11.5615 5.94292C11.9131 5.16491 11.2925 5.31408 11.9641 4.37451C12.5965 3.48997 14.3467 2.89528 16.1678 3.77597C16.3983 3.88748 16.5999 4.04943 16.781 4.23054L19.8243 7.27384C19.9509 7.40039 20.0686 7.53678 20.1605 7.69036C21.0433 9.16561 20.7479 10.8447 20.2239 11.5152C19.6728 12.2202 19.2839 12.3961 17.9961 12.4863C16.7083 12.5764 16.5865 13.7061 16.4441 14.7905C16.3018 15.8748 15.2708 16.6437 14.1659 16.5696C13.061 16.4955 12.4378 17.7648 12.4093 18.7776C12.3809 19.7905 11.457 20.2943 11.457 20.2943C10.5682 20.7388 8.78482 21.0369 7.61324 19.8653L4.10695 16.359Z" fill="#A2BA18"/>
<rect x="0.0012207" y="20.1959" width="28.5771" height="5.35" rx="2.675" transform="rotate(-45 0.0012207 20.1959)" fill="#CC442F"/>
</g>
<defs>
<clipPath id="clip0_41267_1669">
<rect width="24" height="24" fill="white"/>
</clipPath>
</defs>
</svg>
