<svg width="24" height="24" viewBox="0 0 24 24" fill="none" xmlns="http://www.w3.org/2000/svg">
  <g clip-path="url(#clip0_41267_1669)">
    <rect x="-0.402344" y="14.7737" width="21.5264" height="13.7154" rx="4" transform="rotate(-45 -0.402344 14.7737)" fill="#F5C99D"/>
    <path d="M4.10695 16.359C3.23024 15.4823 3.00959 14.198 3.44499 13.1161C3.73416 12.3976 4.4375 11.8199 5.20028 11.6856C5.28864 11.67 5.38413 11.6548 5.48734 11.64C6.86205 11.4431 7.42832 10.5985 7.50737 9.65702C7.58643 8.71555 7.92741 7.58474 9.583 7.50726C11.2386 7.42977 11.2099 6.72093 11.5615 5.94292C11.9131 5.16491 11.2925 5.31408 11.9641 4.37451C12.5965 3.48997 14.3467 2.89528 16.1678 3.77597C16.3983 3.88748 16.5999 4.04943 16.781 4.23054L19.8243 7.27384C19.9509 7.40039 20.0686 7.53678 20.1605 7.69036C21.0433 9.16561 20.7479 10.8447 20.2239 11.5152C19.6728 12.2202 19.2839 12.3961 17.9961 12.4863C16.7083 12.5764 16.5865 13.7061 16.4441 14.7905C16.3018 15.8748 15.2708 16.6437 14.1659 16.5696C13.061 16.4955 12.4378 17.7648 12.4093 18.7776C12.3809 19.7905 11.457 20.2943 11.457 20.2943C10.5682 20.7388 8.78482 21.0369 7.61324 19.8653L4.10695 16.359Z" fill="#A2BA18"/>
    <rect x="0.0012207" y="20.1959" width="28.5771" height="5.35" rx="2.675" transform="rotate(-45 0.0012207 20.1959)" fill="#CC442F"/>
    <path d="M19.0259 4.37816L20.2084 4.13261C20.4108 4.09338 20.6067 4.22563 20.6459 4.42801C20.6851 4.63038 20.5529 4.82623 20.3505 4.86546C20.3505 4.86546 19.7876 4.95057 19.2215 5.11284C18.6554 5.2751 18.5421 5.91108 18.5421 5.91108C18.5421 5.91108 18.4802 6.34965 18.1279 6.76721C17.7756 7.18476 17.306 7.26498 17.306 7.26498C16.5781 7.46767 16.2672 8.29678 16.2672 8.29678C16.2672 8.29678 16.1237 8.85133 15.7442 9.16768C15.3647 9.48404 14.89 9.52891 14.89 9.52891C14.1023 9.73677 13.975 10.6175 13.975 10.6175C13.975 10.6175 13.8678 11.0391 13.4615 11.3907C12.9706 11.8155 12.596 11.8125 12.596 11.8125C11.9045 11.9865 11.8519 12.571 11.7576 12.8253C11.6632 13.0795 11.6301 13.2491 11.2602 13.6165C10.8903 13.9839 10.3607 14.0522 10.3607 14.0522C9.67321 14.1798 9.51553 15.0246 9.51553 15.0246C9.51553 15.0246 9.50689 15.369 9.0756 15.8029C8.6443 16.2368 8.09519 16.3023 8.09519 16.3023C7.32522 16.5724 7.26746 17.2574 7.26746 17.2574C7.26746 17.2574 7.20386 17.6348 6.85537 18.0248C6.50689 18.4147 5.91969 18.5368 5.91969 18.5368C5.17178 18.7112 5.05507 19.3365 5.04027 19.4103L4.85678 20.373C4.85678 20.373 4.78686 20.6186 4.50784 20.6314C4.22882 20.6443 4.13036 20.3457 4.13622 20.2573C4.14207 20.1689 4.24626 19.4257 4.33035 19.1445C4.41443 18.8633 4.6486 18.4418 4.875 18.2628C5.10139 18.0837 5.22134 17.9463 5.63214 17.8516C5.63214 17.8516 6.49468 17.6616 6.57541 17.0087C6.57541 17.0087 6.6853 16.4372 7.0695 16.06C7.45369 15.6828 7.88965 15.5989 7.88965 15.5989C7.88965 15.5989 8.68747 15.4121 8.82041 14.779C8.82041 14.779 8.8301 14.3345 9.27087 13.8747C9.71164 13.415 10.1479 13.3473 10.1479 13.3473C10.1479 13.3473 10.9188 13.1988 11.0763 12.5384C11.0763 12.5384 11.1332 12.0266 11.4701 11.64C11.807 11.2535 12.1576 11.1796 12.2911 11.1282C12.4245 11.0768 13.0685 10.995 13.3187 10.3003C13.3187 10.3003 13.4194 9.73153 13.7576 9.36808C14.0958 9.00462 14.2999 8.93485 14.7404 8.83804C14.7404 8.83804 15.4362 8.73189 15.5666 7.99055C15.5666 7.99055 15.6356 7.49069 16.0706 7.04581C16.5057 6.60093 16.9526 6.60801 17.0352 6.55883C17.1178 6.50965 17.7809 6.45114 17.8747 5.52149C17.8747 5.52149 17.9432 5.15112 18.309 4.79881C18.6748 4.4465 19.0259 4.37816 19.0259 4.37816Z" fill="#F6BB00"/>
  </g>
  <defs>
    <clipPath id="clip0_41267_1669">
    <rect width="24" height="24" fill="white"/>
    </clipPath>
  </defs>
</svg>