<svg width="24" height="24" viewBox="0 0 24 24" fill="none" xmlns="http://www.w3.org/2000/svg">
<circle cx="12" cy="12" r="10.8679" fill="#F5C99D"/>
<circle cx="3.73962" cy="10.507" r="1.11902" fill="#CC442F"/>
<circle cx="9.75012" cy="6.75507" r="1.11902" fill="#CC442F"/>
<circle cx="19.87" cy="10.4996" r="1.11902" fill="#CC442F"/>
<circle cx="14.6276" cy="20.2535" r="1.11902" fill="#CC442F"/>
<circle cx="9.7489" cy="16.1346" r="1.11902" fill="#CC442F"/>
<circle cx="14.618" cy="4.87128" r="1.11902" fill="#CC442F"/>
<mask id="path-8-inside-1_41236_1670" fill="white">
<path d="M8.61841 11.2763H6.02295L7.50383 13.1152L8.61841 11.2763Z"/>
</mask>
<path d="M6.02295 11.2763V8.77628H0.799908L4.07581 12.8443L6.02295 11.2763ZM8.61841 11.2763L10.7564 12.5721L13.057 8.77628H8.61841V11.2763ZM7.50383 13.1152L5.55668 14.6832L7.79337 17.4607L9.64179 14.411L7.50383 13.1152ZM6.02295 11.2763V13.7763H8.61841V11.2763V8.77628H6.02295V11.2763ZM8.61841 11.2763L6.48045 9.98046L5.36587 11.8194L7.50383 13.1152L9.64179 14.411L10.7564 12.5721L8.61841 11.2763ZM7.50383 13.1152L9.45097 11.5472L7.97009 9.70827L6.02295 11.2763L4.07581 12.8443L5.55668 14.6832L7.50383 13.1152Z" fill="#F6BB00" mask="url(#path-8-inside-1_41236_1670)"/>
<mask id="path-10-inside-2_41236_1670" fill="white">
<path d="M15.3734 7.84883L13.4897 7.10651V9.37387L15.3734 7.84883Z"/>
</mask>
<path d="M13.4897 7.10651L14.4064 4.78061L10.9897 3.43415V7.10651H13.4897ZM15.3734 7.84883L16.9465 9.79183L20.278 7.09455L16.29 5.52292L15.3734 7.84883ZM13.4897 9.37387H10.9897V14.6146L15.0629 11.3169L13.4897 9.37387ZM13.4897 7.10651L12.5731 9.43241L14.4568 10.1747L15.3734 7.84883L16.29 5.52292L14.4064 4.78061L13.4897 7.10651ZM15.3734 7.84883L13.8002 5.90582L11.9166 7.43086L13.4897 9.37387L15.0629 11.3169L16.9465 9.79183L15.3734 7.84883ZM13.4897 9.37387H15.9897V7.10651H13.4897H10.9897V9.37387H13.4897Z" fill="#F6BB00" mask="url(#path-10-inside-2_41236_1670)"/>
<mask id="path-12-inside-3_41236_1670" fill="white">
<path d="M21.7461 12.3789L18.7656 13.125L21.3828 14.625L21.7461 12.3789Z"/>
</mask>
<path d="M18.7656 13.125L18.1585 10.6998L12.1367 12.2073L17.5225 15.294L18.7656 13.125ZM21.7461 12.3789L24.214 12.7781L24.8199 9.03232L21.139 9.95374L21.7461 12.3789ZM21.3828 14.625L20.1397 16.794L23.2739 18.5904L23.8507 15.0242L21.3828 14.625ZM18.7656 13.125L19.3727 15.5502L22.3532 14.8041L21.7461 12.3789L21.139 9.95374L18.1585 10.6998L18.7656 13.125ZM21.7461 12.3789L19.2782 11.9797L18.9149 14.2258L21.3828 14.625L23.8507 15.0242L24.214 12.7781L21.7461 12.3789ZM21.3828 14.625L22.6259 12.456L20.0088 10.956L18.7656 13.125L17.5225 15.294L20.1397 16.794L21.3828 14.625Z" fill="#F6BB00" mask="url(#path-12-inside-3_41236_1670)"/>
<mask id="path-14-inside-4_41236_1670" fill="white">
<path d="M18.4032 17.6151L15.7622 16.8779L16.8782 19.125L18.4032 17.6151Z"/>
</mask>
<path d="M15.7622 16.8779L16.4344 14.4699L11.0251 12.9599L13.5231 17.9899L15.7622 16.8779ZM18.4032 17.6151L20.1622 19.3917L23.22 16.3642L19.0754 15.2072L18.4032 17.6151ZM16.8782 19.125L14.6391 20.237L16.1782 23.3361L18.6371 20.9016L16.8782 19.125ZM15.7622 16.8779L15.09 19.2858L17.731 20.0231L18.4032 17.6151L19.0754 15.2072L16.4344 14.4699L15.7622 16.8779ZM18.4032 17.6151L16.6443 15.8386L15.1193 17.3484L16.8782 19.125L18.6371 20.9016L20.1622 19.3917L18.4032 17.6151ZM16.8782 19.125L19.1173 18.013L18.0013 15.7659L15.7622 16.8779L13.5231 17.9899L14.6391 20.237L16.8782 19.125Z" fill="#F6BB00" mask="url(#path-14-inside-4_41236_1670)"/>
<mask id="path-16-inside-5_41236_1670" fill="white">
<path d="M10.879 20.6096L9.75289 18.3726L9.01562 20.6096H10.879Z"/>
</mask>
<path d="M9.75289 18.3726L11.9859 17.2485L9.26952 11.8523L7.37851 17.5901L9.75289 18.3726ZM10.879 20.6096V23.1096H14.9363L13.112 19.4856L10.879 20.6096ZM9.01562 20.6096L6.64125 19.8271L5.55943 23.1096H9.01562V20.6096ZM9.75289 18.3726L7.51985 19.4967L8.64595 21.7337L10.879 20.6096L13.112 19.4856L11.9859 17.2485L9.75289 18.3726ZM10.879 20.6096V18.1096H9.01562V20.6096V23.1096H10.879V20.6096ZM9.01562 20.6096L11.39 21.3922L12.1273 19.1551L9.75289 18.3726L7.37851 17.5901L6.64125 19.8271L9.01562 20.6096Z" fill="#F6BB00" mask="url(#path-16-inside-5_41236_1670)"/>
<mask id="path-18-inside-6_41236_1670" fill="white">
<path d="M5.26942 5.625L7.11182 7.11328L7.11175 4.50192L5.26942 5.625Z"/>
</mask>
<path d="M7.11182 7.11328L5.54085 9.05804L9.61195 12.3466L9.61182 7.11322L7.11182 7.11328ZM5.26942 5.625L3.96815 3.49036L0.936341 5.33853L3.69845 7.56976L5.26942 5.625ZM7.11175 4.50192L9.61175 4.50186L9.61164 0.0501049L5.81048 2.36728L7.11175 4.50192ZM7.11182 7.11328L8.68278 5.16853L6.84038 3.68024L5.26942 5.625L3.69845 7.56976L5.54085 9.05804L7.11182 7.11328ZM5.26942 5.625L6.57069 7.75964L8.41302 6.63656L7.11175 4.50192L5.81048 2.36728L3.96815 3.49036L5.26942 5.625ZM7.11175 4.50192L4.61175 4.50198L4.61182 7.11334L7.11182 7.11328L9.61182 7.11322L9.61175 4.50186L7.11175 4.50192Z" fill="#F6BB00" mask="url(#path-18-inside-6_41236_1670)"/>
<path d="M9.38224 2.63208L10.8719 4.12218L8.24927 4.87605L9.38224 2.63208Z" fill="#F07F2F"/>
<path d="M17.2439 5.24738L18.7577 6.76118L16.5037 7.49314L17.2439 5.24738Z" fill="#F07F2F"/>
<path d="M15.7549 10.8743L18.3624 11.9972L15.755 13.1034L15.7549 10.8743Z" fill="#F07F2F"/>
<path d="M13.1133 14.9883L15.0273 15.3672L13.8711 18.0156L13.1133 14.9883Z" fill="#F07F2F"/>
<path d="M5.60547 17.6094L8.25 18.3672L6 19.5078L5.60547 17.6094Z" fill="#F07F2F"/>
<path d="M3 13.4961L5.62109 12.7734L4.12109 15.0117L3 13.4961Z" fill="#F07F2F"/>
<path d="M2.59058 17.4258L21.4209 6.57086" stroke="#DEAE7E" stroke-width="0.8"/>
<path d="M21.421 17.4258L2.57626 6.59616" stroke="#DEAE7E" stroke-width="0.8"/>
<path d="M12.0029 22.8516L11.9853 1.14522" stroke="#DEAE7E" stroke-width="0.8"/>
</svg>
