<svg width="24" height="24" viewBox="0 0 24 24" fill="none" xmlns="http://www.w3.org/2000/svg">
<path d="M11.8711 7.85156L17.8828 7.85448C17.8828 7.85448 18.0409 8.65957 19.3799 9.94237C20.7188 11.2252 20.8828 12.9883 20.8828 12.9883V21.083C20.8826 22.0041 20.0465 22.8749 19.1455 22.875L10.6182 22.8721C9.71725 22.8718 8.88207 22.0011 8.88184 21.0801V12.9853C8.88184 12.9853 9.04498 11.2222 10.3838 9.93944C11.7228 8.65664 11.8711 7.85156 11.8711 7.85156Z" fill="#CC442F"/>
<path d="M10.391 20.6318C10.391 21.7312 9.70525 22.5991 8.54181 22.8572C8.26953 22.8906 8.00552 22.8572 7.77734 22.8572C7.51335 22.8572 7.26953 22.8828 6.91016 22.8572C5.79714 22.57 5.08496 21.6999 5.08496 20.6318C5.08496 19.3324 6.28732 18.2791 7.77051 18.2791C9.25369 18.2791 10.391 19.3324 10.391 20.6318Z" fill="#E35C49"/>
<path d="M8.66016 16.5286C8.55389 16.8291 8.51122 17.0514 8.47852 17.2298C8.44221 17.4278 8.42049 17.5398 8.35059 17.6644C8.33746 17.6878 8.32079 17.7197 8.30957 17.7532C8.30523 17.7662 8.29147 17.8064 8.29395 17.8568C8.29531 17.884 8.30281 17.9324 8.33398 17.9818C8.36916 18.0371 8.42321 18.0752 8.48242 18.0911C8.57545 18.116 8.64947 18.0795 8.66016 18.0745C8.68448 18.0632 8.70403 18.0501 8.71484 18.0423C8.73773 18.0257 8.7595 18.0055 8.77734 17.9886C8.84949 17.9203 8.95522 17.802 9.05859 17.6751C9.1634 17.5464 9.27511 17.3977 9.35938 17.2669C9.40092 17.2024 9.43997 17.1353 9.46777 17.0735C9.47204 17.0641 9.47435 17.0527 9.47852 17.0423C9.5074 17.0439 9.5412 17.0467 9.5791 17.0511C9.63153 17.0572 9.68486 17.0672 9.73438 17.0755C9.73411 17.1621 9.72711 17.2699 9.6875 17.3939C9.60863 17.6405 9.39042 17.9997 8.74707 18.3724C8.53492 18.4953 8.24727 18.5725 7.98438 18.5472C7.73226 18.5229 7.50966 18.4067 7.37109 18.14C7.20496 17.8201 7.11926 17.4565 7.05566 17.1331C7.02523 16.9783 6.99734 16.8203 6.96875 16.6985C6.96087 16.665 6.94896 16.6325 6.93945 16.5999C6.95623 16.5979 6.97374 16.5943 6.99219 16.5931C7.04913 16.5892 7.09949 16.5925 7.13867 16.597C7.14053 16.6928 7.1584 16.793 7.17871 16.8792C7.21192 17.02 7.26313 17.1735 7.31738 17.3138C7.3715 17.4537 7.43237 17.5887 7.48926 17.6907C7.51686 17.7402 7.5488 17.791 7.58301 17.8323C7.59942 17.8522 7.62429 17.8806 7.6582 17.9046C7.68538 17.9238 7.76543 17.9739 7.87305 17.9525C7.97831 17.9314 8.03382 17.8542 8.04492 17.8392C8.06606 17.8106 8.08176 17.7804 8.09277 17.7571C8.11564 17.7088 8.13782 17.6497 8.15723 17.5901C8.19679 17.4686 8.23825 17.3129 8.27539 17.1634C8.31281 17.0127 8.34632 16.8629 8.37109 16.7513C8.3777 16.7215 8.38349 16.694 8.38867 16.6702C8.40591 16.66 8.42544 16.6489 8.44629 16.637C8.51146 16.6 8.58739 16.5609 8.66016 16.5286Z" fill="#A2BA18" stroke="#A2BA18" stroke-width="0.5" stroke-linecap="square"/>
<path d="M11.6274 15.4436C11.6837 14.4649 12.9094 13.4961 13.6109 13.4961C14.3123 13.4961 15.6185 13.4961 16.1668 13.4961C16.715 13.4961 18.0262 14.3197 18.0964 15.4436C18.1665 16.5675 17.5117 20.6211 17.5117 20.6211H12.2422C12.2422 20.6211 11.571 16.4224 11.6274 15.4436Z" fill="#D8DBDD"/>
<rect x="13.375" y="15.0078" width="2.99609" height="0.738281" fill="#B0B4B8"/>
<rect x="14.5098" y="17.2595" width="2.22852" height="0.738281" fill="#B0B4B8"/>
<rect x="13.375" y="18.7689" width="1.5" height="0.73999" fill="#B0B4B8"/>
<rect x="13.0039" y="17.2578" width="0.742188" height="0.74" fill="#B0B4B8"/>
<rect x="15.6289" y="18.7689" width="0.742188" height="0.74" fill="#B0B4B8"/>
<path d="M17.4928 1.11084H12.2418V4.11056V5.60829C12.0666 7.48559 11.8616 7.8549 11.8616 7.8549H17.8833C17.8833 7.8549 17.3805 6.23406 17.4928 4.11056V1.11084Z" fill="#F6BB00"/>
<rect x="11.5" y="4.125" width="6.74609" height="1.5" rx="0.75" fill="#EDA600"/>
<path d="M16.3711 11.2432C17.0305 11.2432 17.6732 11.4545 18.2041 11.8457C18.7365 12.2381 19.1285 12.7917 19.3232 13.4238L18.6006 13.6455C18.4534 13.1682 18.157 12.7504 17.7549 12.4541C17.3539 12.1588 16.869 11.999 16.3711 11.999L13.2822 12C12.784 11.9999 12.2986 12.1585 11.8975 12.4541C11.4953 12.7504 11.1989 13.1682 11.0518 13.6455L10.3291 13.4238C10.5238 12.7916 10.9167 12.2381 11.4492 11.8457C11.9803 11.4544 12.6227 11.2431 13.2822 11.2432H16.3711Z" fill="#B82F1A"/>
</svg>
