<svg width="24" height="24" viewBox="0 0 24 24" fill="none" xmlns="http://www.w3.org/2000/svg">
<path d="M8.98877 7.85864L15.0005 7.86156C15.0005 7.86156 15.1586 8.66665 16.4976 9.94945C17.8365 11.2322 18.0005 12.9953 18.0005 12.9953V21.0901C18.0002 22.0112 17.1642 22.882 16.2632 22.8821L7.73584 22.8791C6.83493 22.8789 5.99975 22.0082 5.99951 21.0871V12.9924C5.99951 12.9924 6.16265 11.2293 7.50146 9.94652C8.84044 8.66372 8.98877 7.85864 8.98877 7.85864Z" fill="#CC442F"/>
<path d="M8.74506 15.4507C8.80141 14.4719 10.0271 13.5032 10.7285 13.5032C11.43 13.5032 12.7362 13.5032 13.2845 13.5032C13.8327 13.5032 15.1439 14.3268 15.2141 15.4507C15.2842 16.5746 14.6294 20.6282 14.6294 20.6282H9.35989C9.35989 20.6282 8.68871 16.4295 8.74506 15.4507Z" fill="#D8DBDD"/>
<rect x="10.4927" y="15.0149" width="2.99609" height="0.738281" fill="#B0B4B8"/>
<rect x="11.6274" y="17.2666" width="2.22852" height="0.738281" fill="#B0B4B8"/>
<rect x="10.4927" y="18.776" width="1.5" height="0.73999" fill="#B0B4B8"/>
<rect x="10.1216" y="17.2649" width="0.742188" height="0.74" fill="#B0B4B8"/>
<rect x="12.7466" y="18.776" width="0.742188" height="0.74" fill="#B0B4B8"/>
<path d="M14.6104 1.11792H9.35947V4.11764V5.61537C9.18432 7.49267 8.97925 7.86198 8.97925 7.86198H15.001C15.001 7.86198 14.4982 6.24114 14.6104 4.11764V1.11792Z" fill="#F6BB00"/>
<rect x="8.61768" y="4.13208" width="6.74609" height="1.5" rx="0.75" fill="#EDA600"/>
<path d="M13.4888 11.2502C14.1482 11.2503 14.7908 11.4616 15.3218 11.8528C15.8542 12.2452 16.2462 12.7988 16.4409 13.4309L15.7183 13.6526C15.5711 13.1753 15.2747 12.7575 14.8726 12.4612C14.4716 12.1658 13.9867 12.0061 13.4888 12.0061L10.3999 12.0071C9.90168 12.007 9.41629 12.1656 9.01514 12.4612C8.613 12.7575 8.31657 13.1752 8.16943 13.6526L7.44678 13.4309C7.64152 12.7987 8.03435 12.2452 8.56689 11.8528C9.09796 11.4615 9.74034 11.2501 10.3999 11.2502H13.4888Z" fill="#B82F1A"/>
</svg>
