<svg width="24" height="24" viewBox="0 0 24 24" fill="none" xmlns="http://www.w3.org/2000/svg">
<path d="M6 7.12836C6 3.81465 8.68629 1.12836 12 1.12836V1.12836C15.3137 1.12836 18 3.81465 18 7.12836V19.8711C18 21.5279 16.6569 22.8711 15 22.8711H9C7.34315 22.8711 6 21.5279 6 19.8711V7.12836Z" fill="#C79369"/>
<path d="M18 19.8711C18 21.5279 16.6569 22.8711 15 22.8711H14.5459L8.54883 17.541L18 7.48828V19.8711Z" fill="#DEAE7E"/>
<rect x="15.1008" y="13.241" width="1.08034" height="0.755228" transform="rotate(-45 15.1008 13.241)" fill="#C79369"/>
<rect x="14.7253" y="18.1218" width="1.08034" height="0.755228" transform="rotate(-45 14.7253 18.1218)" fill="#C79369"/>
<rect x="16.2368" y="16.3948" width="1.08034" height="0.755228" transform="rotate(-135 16.2368 16.3948)" fill="#C79369"/>
<rect x="16.229" y="20.8987" width="1.08034" height="0.755228" transform="rotate(-135 16.229 20.8987)" fill="#C79369"/>
<path d="M11.2275 12.4297C14.0418 15.0803 14.1741 19.5109 11.5234 22.3252L11.0088 22.8711H9C7.34315 22.8711 6 21.5279 6 19.8711V7.50488L11.2275 12.4297Z" fill="#F5C99D"/>
<rect x="7.979" y="16.993" width="1.08034" height="0.755228" transform="rotate(-45 7.979 16.993)" fill="#DEAE7E"/>
<rect x="9.84546" y="18.4953" width="1.08034" height="0.755228" transform="rotate(-45 9.84546 18.4953)" fill="#DEAE7E"/>
<rect x="8.74292" y="20.9083" width="1.08034" height="0.755228" transform="rotate(-135 8.74292 20.9083)" fill="#DEAE7E"/>
<rect x="10.9824" y="16.7631" width="1.08034" height="0.755228" transform="rotate(-135 10.9824 16.7631)" fill="#DEAE7E"/>
<rect x="9.12061" y="14.5311" width="1.08034" height="0.755228" transform="rotate(-135 9.12061 14.5311)" fill="#DEAE7E"/>
</svg>
