<svg width="24" height="24" viewBox="0 0 24 24" fill="none" xmlns="http://www.w3.org/2000/svg">
<path d="M6 7.12836C6 3.81465 8.68629 1.12836 12 1.12836V1.12836C15.3137 1.12836 18 3.81465 18 7.12836V19.8711C18 21.5279 16.6569 22.8711 15 22.8711H9C7.34315 22.8711 6 21.5279 6 19.8711V7.12836Z" fill="#C79369"/>
<path d="M8.24219 5.525C8.24219 3.92337 9.54056 2.625 11.1422 2.625H12.3809C13.2093 2.625 13.8809 3.29657 13.8809 4.125V13.775H8.24219V5.525Z" fill="#A2BA18"/>
<path d="M13.9219 4.1211C14.9805 4.1211 16.5 5.01562 16.5 6.37109V10.874H9.75V6.09473C9.75 5.42103 10.1309 4.93554 10.9697 4.87402C11.8086 4.81251 12.0338 4.61457 12.1406 4.53906C12.2475 4.46355 12.7031 4.11984 13.3838 4.1211C14.0645 4.12235 12.8633 4.1211 13.9219 4.1211Z" fill="#B9CD2A"/>
<path d="M12.375 7.50488V7.50488C13.8247 7.50488 15 8.68014 15 10.1299V15.4651H12.375V7.50488Z" fill="#CC442F"/>
<rect x="7.5" y="6.375" width="4.87891" height="9.09015" fill="#F6BB00"/>
<path d="M18 19.8743C18 21.5294 16.6569 22.8711 15 22.8711H14.5459L8.54883 17.5468L18 7.50488V19.8743Z" fill="#DEAE7E"/>
<rect x="15.1008" y="13.241" width="1.08034" height="0.755228" transform="rotate(-45 15.1008 13.241)" fill="#C79369"/>
<rect x="14.7253" y="18.1218" width="1.08034" height="0.755228" transform="rotate(-45 14.7253 18.1218)" fill="#C79369"/>
<rect x="16.2368" y="16.3948" width="1.08034" height="0.755228" transform="rotate(-135 16.2368 16.3948)" fill="#C79369"/>
<rect x="16.229" y="20.8987" width="1.08034" height="0.755228" transform="rotate(-135 16.229 20.8987)" fill="#C79369"/>
<path d="M11.2275 12.4297C14.0418 15.0803 14.1741 19.5109 11.5234 22.3252L11.0088 22.8711H9C7.34315 22.8711 6 21.5279 6 19.8711V7.50488L11.2275 12.4297Z" fill="#F5C99D"/>
<rect x="7.979" y="16.993" width="1.08034" height="0.755228" transform="rotate(-45 7.979 16.993)" fill="#DEAE7E"/>
<rect x="9.84546" y="18.4953" width="1.08034" height="0.755228" transform="rotate(-45 9.84546 18.4953)" fill="#DEAE7E"/>
<rect x="8.74292" y="20.9083" width="1.08034" height="0.755228" transform="rotate(-135 8.74292 20.9083)" fill="#DEAE7E"/>
<rect x="10.9824" y="16.7631" width="1.08034" height="0.755228" transform="rotate(-135 10.9824 16.7631)" fill="#DEAE7E"/>
<rect x="9.12061" y="14.5311" width="1.08034" height="0.755228" transform="rotate(-135 9.12061 14.5311)" fill="#DEAE7E"/>
<rect x="8.99609" y="6.375" width="0.753906" height="1.86719" fill="#EDA600"/>
<rect x="10.4966" y="6.375" width="0.753906" height="3.37109" fill="#EDA600"/>
<rect x="13.3018" y="8.67343" width="0.825566" height="0.732424" transform="rotate(28 13.3018 8.67343)" fill="#B82F1A"/>
<rect x="12.9626" y="10.5424" width="0.825566" height="0.732424" transform="rotate(-26 12.9626 10.5424)" fill="#B82F1A"/>
</svg>
