<svg width="24" height="24" viewBox="0 0 24 24" fill="none" xmlns="http://www.w3.org/2000/svg">
<path d="M16.1226 8.25262C16.1226 10.9433 13.9414 13.1245 11.2507 13.1245C8.5601 13.1245 6.37891 10.9433 6.37891 8.25262C6.37891 5.56199 8.5601 3.3808 11.2507 3.3808C13.9414 3.3808 16.1226 5.56199 16.1226 8.25262ZM8.25837 8.25262C8.25837 9.90526 9.5981 11.245 11.2507 11.245C12.9034 11.245 14.2431 9.90526 14.2431 8.25262C14.2431 6.59999 12.9034 5.26026 11.2507 5.26026C9.5981 5.26026 8.25837 6.59999 8.25837 8.25262Z" fill="#DE9400"/>
<path d="M12 12.7976C12 12.1578 11.874 11.5243 11.6292 10.9332C11.3843 10.3422 11.0255 9.8051 10.5731 9.35271C10.1207 8.90032 9.58362 8.54146 8.99254 8.29663C8.40146 8.05179 7.76795 7.92578 7.12817 7.92578C6.4884 7.92578 5.85488 8.05179 5.26381 8.29663C4.67273 8.54146 4.13566 8.90032 3.68327 9.35271C3.23088 9.8051 2.87203 10.3422 2.62719 10.9332C2.38236 11.5243 2.25635 12.1578 2.25635 12.7976L2.25635 14.2383H4.13581V12.7976C4.13581 12.4046 4.21321 12.0155 4.36359 11.6525C4.51397 11.2894 4.73439 10.9596 5.01225 10.6817C5.29012 10.4038 5.61999 10.1834 5.98305 10.033C6.3461 9.88264 6.73521 9.80524 7.12817 9.80524C7.52114 9.80524 7.91025 9.88264 8.2733 10.033C8.63635 10.1834 8.96623 10.4038 9.2441 10.6817C9.52196 10.9596 9.74238 11.2894 9.89276 11.6525C10.0431 12.0155 10.1205 12.4046 10.1205 12.7976V14.2392H12V12.7976Z" fill="#EDA600"/>
<path d="M21.375 14.2392C21.375 13.5994 21.249 12.9659 21.0042 12.3748C20.7593 11.7838 20.4005 11.2467 19.9481 10.7943C19.4957 10.3419 18.9586 9.98305 18.3675 9.73822C17.7765 9.49338 17.143 9.36737 16.5032 9.36737C15.8634 9.36737 15.2299 9.49338 14.6388 9.73822C14.0477 9.98305 13.5107 10.3419 13.0583 10.7943C12.6059 11.2467 12.247 11.7838 12.0022 12.3748C11.7574 12.9659 11.6313 13.5994 11.6313 14.2392L13.5108 14.2392C13.5108 13.8462 13.5882 13.4571 13.7386 13.0941C13.889 12.731 14.1094 12.4011 14.3873 12.1233C14.6651 11.8454 14.995 11.625 15.358 11.4746C15.7211 11.3242 16.1102 11.2468 16.5032 11.2468C16.8961 11.2468 17.2853 11.3242 17.6483 11.4746C18.0114 11.625 18.3412 11.8454 18.6191 12.1233C18.897 12.4011 19.1174 12.731 19.2678 13.0941C19.4181 13.4571 19.4955 13.8462 19.4955 14.2392H21.375Z" fill="#F6BB00"/>
<path d="M1.11719 14.2392H22.875V14.2392C22.875 17.5632 20.1804 20.2578 16.8564 20.2578H7.1358C3.81181 20.2578 1.11719 17.5632 1.11719 14.2392V14.2392Z" fill="#E5E7E9"/>
<path d="M8.99609 18.3672L17.6211 14.2383H2.25L8.99609 18.3672Z" fill="#E35C49"/>
</svg>
