<svg width="6" height="7" viewBox="0 0 6 7" fill="none" xmlns="http://www.w3.org/2000/svg">
<path d="M5.391 4.63177C5.391 5.73123 4.70525 6.59913 3.54181 6.85721C3.26953 6.89062 3.00552 6.85721 2.77734 6.85721C2.51335 6.85721 2.26953 6.88281 1.91016 6.85721C0.797144 6.57 0.0849609 5.69985 0.0849609 4.63177C0.0849609 3.33242 1.28732 2.27908 2.77051 2.27908C4.25369 2.27908 5.391 3.33242 5.391 4.63177Z" fill="#E35C49"/>
<path d="M3.66016 0.528625C3.55389 0.829142 3.51122 1.05141 3.47852 1.2298C3.44221 1.4278 3.42049 1.5398 3.35059 1.66437C3.33746 1.68778 3.32079 1.71974 3.30957 1.75323C3.30523 1.76625 3.29147 1.80638 3.29395 1.85675C3.29531 1.884 3.30281 1.93242 3.33398 1.98175C3.36916 2.0371 3.42321 2.07517 3.48242 2.09113C3.57545 2.11599 3.64947 2.0795 3.66016 2.07452C3.68448 2.06324 3.70403 2.05013 3.71484 2.0423C3.73773 2.02569 3.7595 2.00546 3.77734 1.98859C3.84949 1.9203 3.95522 1.80203 4.05859 1.67511C4.1634 1.54643 4.27511 1.39767 4.35938 1.26691C4.40092 1.20242 4.43997 1.13531 4.46777 1.07355C4.47204 1.06405 4.47435 1.05274 4.47852 1.0423C4.5074 1.0439 4.5412 1.04668 4.5791 1.05109C4.63153 1.05718 4.68486 1.06717 4.73438 1.0755C4.73411 1.16208 4.72711 1.26994 4.6875 1.39386C4.60863 1.64054 4.39042 1.99969 3.74707 2.37238C3.53492 2.49525 3.24727 2.57249 2.98438 2.54718C2.73226 2.5229 2.50966 2.40668 2.37109 2.13995C2.20496 1.82007 2.11926 1.45654 2.05566 1.13312C2.02523 0.978349 1.99734 0.820265 1.96875 0.698547C1.96087 0.665024 1.94896 0.632457 1.93945 0.599915C1.95623 0.597878 1.97374 0.594327 1.99219 0.593079C2.04913 0.58924 2.09949 0.592528 2.13867 0.596985C2.14053 0.692826 2.1584 0.793046 2.17871 0.879211C2.21192 1.01997 2.26313 1.17351 2.31738 1.31378C2.3715 1.45367 2.43237 1.58871 2.48926 1.69073C2.51686 1.74022 2.5488 1.79101 2.58301 1.83234C2.59942 1.85217 2.62429 1.88065 2.6582 1.9046C2.68538 1.92377 2.76543 1.97393 2.87305 1.95245C2.97831 1.9314 3.03382 1.85416 3.04492 1.83917C3.06606 1.8106 3.08176 1.78043 3.09277 1.75714C3.11564 1.70877 3.13782 1.64975 3.15723 1.59015C3.19679 1.46863 3.23825 1.31294 3.27539 1.16339C3.31281 1.01273 3.34632 0.862858 3.37109 0.751282C3.3777 0.721508 3.38349 0.694014 3.38867 0.670227C3.40591 0.659967 3.42544 0.648883 3.44629 0.637024C3.51146 0.599957 3.58739 0.56094 3.66016 0.528625Z" fill="#A2BA18" stroke="#A2BA18" stroke-width="0.5" stroke-linecap="square"/>
</svg>
