<svg width="178" height="164" viewBox="0 0 178 164" fill="none" xmlns="http://www.w3.org/2000/svg">
<path d="M168.212 84.9722C168.212 84.9722 184.825 106.829 142.039 135.433C99.2511 164.036 39.6002 173.5 27.73 142.697C15.8597 111.894 26.9424 121.015 72.5502 115.742C118.157 110.47 148.523 62.6299 155.861 67.8441C163.195 73.0598 168.212 84.9722 168.212 84.9722" fill="#F9A332"/>
<path d="M64.5646 157.757C51.6888 157.757 40.769 154.693 33.8008 147.914C36.8837 146.445 39.3245 144.954 41.3638 143.71C43.6882 142.291 45.5711 141.141 46.7404 141.141C46.8655 141.141 46.9828 141.154 47.0913 141.182C47.6853 141.333 48.3108 141.982 49.0034 143.166C51.0074 146.591 53.7432 148.464 56.7356 148.464C56.8559 148.464 56.9764 148.461 57.0976 148.455C60.2654 148.3 63.1869 145.979 64.9131 142.247C65.9368 140.034 67.2737 138.689 68.9992 138.137C69.6389 137.932 70.3526 137.83 71.1371 137.83C74.0177 137.83 77.8652 139.208 82.6145 141.948C82.6334 141.958 82.6494 141.968 82.6669 141.978C84.6418 143.161 86.8569 143.879 89.4741 143.947C89.6882 143.954 89.8993 143.956 90.1076 143.956C97.3459 143.956 100.761 140.617 102.825 138.599C103.362 138.073 104.175 137.28 104.449 137.257C104.452 137.257 104.692 137.293 105.237 137.842C102.807 140.713 97.8192 146.278 90.1979 146.278C86.9283 146.278 83.1737 145.252 78.9298 142.551C77.0652 141.364 75.1563 140.869 73.4315 140.869C68.5051 140.869 65.0784 144.914 68.4831 148.453C69.8828 149.908 72.695 150.413 75.9282 150.413C81.1537 150.413 87.4759 149.092 90.6989 148.321C97.1682 146.727 103.763 144.609 110.317 142.024C111.515 142.562 112.741 142.846 113.899 142.846C115.045 142.846 116.125 142.568 117.045 141.981C117.83 141.481 119.083 140.351 119.404 138.124C127.211 134.502 134.851 130.239 142.038 125.434C158.734 114.271 166.385 104.139 169.507 95.9288C169.523 97.2217 169.426 98.6277 169.167 100.14C168.746 102.602 167.93 105.095 166.733 107.609C162.572 114.636 155.054 122.711 142.038 131.413C117.705 147.68 87.9157 157.757 64.5646 157.757ZM118.043 131.221C117.967 131.048 117.887 130.873 117.804 130.694C117.534 130.118 117.29 129.511 117.071 128.875C117.109 128.875 117.144 128.875 117.182 128.875C125.502 128.875 128.669 124.724 132.505 119.695C133.861 117.917 135.262 116.079 137.06 114.143C140.304 110.648 145.27 110.436 150.073 110.23C153.232 110.095 156.26 109.965 158.563 108.817C152.966 114.424 145.598 108.813 141.189 115.854C136.175 123.863 131.717 129.484 122.246 130.608C120.706 130.791 119.313 130.993 118.043 131.221M162.418 102.387C162.441 101.956 162.441 101.503 162.42 101.03C162.253 97.2173 162.233 94.6153 162.643 93.4281C162.865 92.7861 163.152 92.6171 164.669 91.9501C165.667 91.5108 166.946 90.9481 168.542 89.9431C168.772 90.6498 168.984 91.4491 169.153 92.3365C162.895 93.8527 165.335 95.394 162.418 102.387Z" fill="#BF6700"/>
<path d="M154.525 69.3494C154.093 69.3494 153.018 69.5998 150.669 71.2629C147.932 73.202 144.372 76.4039 140.248 80.1096C125.143 93.6892 102.315 114.212 72.7656 117.627C61.9606 118.877 53.1158 119.32 46.0084 119.678C35.0366 120.229 27.7882 120.593 25.8842 123.557C24.0618 126.391 26.0061 132.984 29.4847 142.01C32.3432 149.429 38.2839 154.628 47.1413 157.465C70.0753 164.809 109.547 154.879 141 133.852C157.546 122.791 167.286 111.133 169.168 100.139C170.643 91.5252 166.876 86.3363 166.715 86.1203C166.623 85.9973 166.541 85.8564 166.482 85.7154C166.417 85.5594 161.569 74.2233 154.778 69.3958C154.775 69.3943 154.707 69.3494 154.525 69.3494M64.599 163.695C57.7007 163.695 51.45 162.825 46.0036 161.081C36.0075 157.88 29.2706 151.926 25.9793 143.385C21.7681 132.459 20.0033 125.734 22.7282 121.493C25.6795 116.9 32.8335 116.541 45.8211 115.889C52.8751 115.534 61.6531 115.094 72.3376 113.858C100.704 110.579 122.996 90.5384 137.748 77.2782C147.613 68.4091 153.045 63.5231 156.944 66.2945C164.185 71.4429 169.133 82.3636 169.858 84.0327C170.691 85.24 174.446 91.3107 172.898 100.639C170.866 112.907 160.832 125.145 143.079 137.014C127.633 147.34 109.524 155.47 92.0859 159.908C82.1733 162.429 72.9159 163.695 64.599 163.695Z" fill="#6D184E"/>
<path d="M19.8739 123.301C19.8739 123.301 9.01006 121.615 8.03495 129.061C7.06014 136.508 19.0383 133.558 18.8991 139.319C18.7598 145.08 18.6205 152.667 30.8779 147.469C43.1345 142.27 46.4771 135.681 50.3775 142.348C54.2771 149.014 60.5451 147.89 63.4697 141.567C66.3951 135.244 72.1446 134.056 83.408 140.552C89.4343 144.027 92.7042 139.075 96.7953 134.123C100.349 129.821 104.523 125.519 111.663 126.743C127.018 129.378 127.681 121.896 135.897 113.044C144.115 104.191 161.387 113.887 160.83 101.099C160.273 88.3134 161.595 93.1266 169.221 87.5409C176.847 81.9553 176.742 68.8877 161.804 70.0479C146.866 71.2065 109.713 125.268 19.8739 123.301" fill="#48C75A"/>
<path d="M160.957 90.4016C161.521 88.0398 164.211 86.6021 169.795 82.2192C170.781 81.4439 171.768 80.158 172.597 78.8662C172.393 81.548 170.807 84.3921 168.285 86.2405C166.191 87.7719 164.642 88.4535 163.396 89.0012C162.369 89.4521 161.571 89.8763 160.957 90.4016" fill="#B6E9BD"/>
<path d="M121.797 125.053C126.716 122.363 129.059 116.669 134.514 110.37C141.388 102.432 154.187 107.505 159.146 103.069C158.999 103.945 158.7 104.628 158.239 105.134C156.793 106.723 153.463 106.866 149.938 107.017C144.749 107.239 138.867 107.491 134.734 111.944C132.831 113.994 131.316 115.981 129.979 117.733C127.259 121.299 125.266 123.914 121.797 125.053Z" fill="#B6E9BD"/>
<path d="M24.1361 147.599C23.2714 147.599 22.579 147.426 22.0738 147.077C20.3349 145.881 20.4222 142.265 20.4923 139.358C20.5867 135.472 16.9216 134.321 14.2463 133.482C10.7091 132.373 9.29973 131.681 9.61525 129.272C9.78398 127.984 10.3313 127.005 11.2886 126.278C12.5546 125.318 14.3934 124.921 16.068 124.794C20.8142 132.231 28.0672 136.365 36.5422 136.365C37.6164 136.365 38.7116 136.298 39.8219 136.164C50.3214 134.715 60.8808 132.454 71.4206 129.405C71.8313 129.97 72.235 130.53 72.6331 131.084C73.7025 132.57 74.7395 134.011 75.7879 135.358C74.0934 134.861 72.5426 134.614 71.1271 134.614C70.0146 134.614 68.9846 134.767 68.0357 135.072C65.4493 135.9 63.4271 137.856 62.0258 140.887C60.8084 143.518 58.909 145.146 56.9451 145.242C56.8892 145.244 56.8342 145.245 56.7783 145.245C54.9395 145.245 53.162 143.944 51.7504 141.531C50.5866 139.541 49.3536 138.439 47.8705 138.062C47.4952 137.967 47.1199 137.923 46.7414 137.923C44.6868 137.923 42.5302 139.238 39.714 140.957C37.2804 142.443 34.2519 144.293 30.2594 145.986C27.7328 147.058 25.665 147.599 24.1361 147.599M117.331 125.685C116.98 125.685 116.617 125.676 116.241 125.658C115.509 121.68 115.635 116.981 116.793 112.073C130.495 105.68 143.28 98.1773 154.964 89.6607C160.637 85.3815 163.947 79.5881 164.7 73.0629C164.796 73.0427 164.889 73.0239 164.984 73.0051C165.801 77.8903 164.978 84.2665 158.461 90.2812C145.368 102.364 130.604 105.596 123.918 112.482C119.89 116.631 119.452 121.95 119.741 125.525C119.004 125.63 118.205 125.685 117.331 125.685" fill="#539256"/>
<path d="M17.4048 124.744C15.4542 124.744 12.9048 125.052 11.2887 126.279C10.3314 127.006 9.784 127.984 9.6152 129.273C9.29981 131.682 10.709 132.373 14.2464 133.483C16.9216 134.322 20.5867 135.472 20.4922 139.358C20.4222 142.265 20.3348 145.882 22.0738 147.078C23.4735 148.041 26.3039 147.664 30.2593 145.986C34.2517 144.293 37.2802 142.444 39.7139 140.958C43.0486 138.922 45.4595 137.452 47.8704 138.063C49.3536 138.439 50.5864 139.542 51.7502 141.531C53.2043 144.016 55.047 145.324 56.9449 145.242C58.9089 145.146 60.8084 143.518 62.0256 140.887C63.427 137.856 65.449 135.9 68.0355 135.072C71.9634 133.811 77.2509 135.149 84.1986 139.156C88.3857 141.571 90.6474 139.141 94.6108 134.269C98.451 129.545 103.23 123.665 111.93 125.158C122.883 127.039 125.403 123.733 129.979 117.734C131.316 115.981 132.831 113.994 134.734 111.944C138.867 107.492 144.75 107.239 149.938 107.017C153.463 106.866 156.793 106.723 158.238 105.134C158.99 104.307 159.317 103.01 159.236 101.171C158.844 92.1621 159.31 90.7971 163.396 89.0017C164.641 88.4532 166.193 87.7715 168.285 86.2397C171.737 83.7096 173.436 79.3174 172.235 76.0221C171.053 72.7784 167.393 71.2239 161.926 71.6512C158.266 71.9345 152.28 76.4085 144.7 82.0733C133.926 90.1259 119.169 101.156 98.8369 110.039C74.8369 120.528 48.2535 125.532 19.8392 124.908C19.7708 124.907 19.7023 124.9 19.6338 124.891C19.1436 124.816 18.3434 124.744 17.4048 124.744M24.1204 150.808C22.5915 150.808 21.3161 150.45 20.2775 149.734C17.1058 147.552 17.2166 142.966 17.3056 139.28C17.3355 138.033 16.3314 137.505 13.299 136.554C10.2954 135.612 5.75608 134.187 6.45488 128.851C6.73783 126.69 7.72274 124.957 9.38167 123.702C13.1118 120.88 19.0823 121.568 20.0044 121.695C84.4794 123.076 120.984 95.7937 142.803 79.4901C151.416 73.0526 157.107 68.7998 161.681 68.4438C171.502 67.6847 174.426 72.7147 175.228 74.9116C176.931 79.584 174.798 85.4428 170.158 88.8411C167.783 90.5804 165.984 91.3713 164.67 91.95C163.153 92.6166 162.866 92.7863 162.644 93.4287C162.234 94.615 162.255 97.2164 162.422 101.03C162.54 103.766 161.941 105.82 160.588 107.308C158.25 109.88 154.277 110.05 150.074 110.23C145.271 110.436 140.304 110.648 137.062 114.143C135.262 116.079 133.861 117.917 132.505 119.695C127.887 125.75 124.239 130.532 111.394 128.329C104.52 127.149 100.735 131.805 97.0738 136.308C93.4484 140.769 89.3363 145.823 82.6156 141.948C76.571 138.461 71.9901 137.18 69.0001 138.137C67.2745 138.689 65.9377 140.034 64.9141 142.247C63.1877 145.979 60.2662 148.3 57.0984 148.455C53.9653 148.612 51.0893 146.729 49.0041 143.166C48.3118 141.982 47.6863 141.332 47.0921 141.181C45.9701 140.898 43.9377 142.138 41.3647 143.71C38.8421 145.25 35.7027 147.167 31.4954 148.951C28.5739 150.19 26.1292 150.808 24.1204 150.808" fill="#6D184E"/>
<path d="M136.202 43.4888C134.265 44.2705 132.6 45.5038 131.233 47.0831C122.915 52.8603 104.794 64.4929 81.8042 73.6588C58.8976 83.0259 37.8251 87.2195 27.8528 88.8277C25.7833 88.6381 23.7351 88.9044 21.798 89.6861C12.9618 93.2544 9.78505 106.196 14.7031 118.589C19.6208 130.983 29.3887 135.808 39.6073 134.57C62.3462 131.434 82.6695 124.829 99.2915 117.728C116.179 111.297 135.408 101.931 154.011 88.3732C162.254 82.1559 166.024 71.8653 161.106 59.4698C156.189 47.0759 145.038 39.922 136.202 43.4888" fill="#DB2839"/>
<path d="M36.4791 133.155C27.3581 133.155 20.057 127.756 16.1826 117.992C15.8875 117.248 15.6216 116.5 15.3848 115.749C15.9921 115.537 16.6154 115.326 17.2503 115.124C16.8002 117.197 16.724 119.329 17.8719 121.089C19.0145 122.841 21.079 123.836 24.1832 124.13C24.638 124.173 25.0818 124.194 25.5153 124.194C31.9587 124.194 36.1053 119.637 39.1851 116.254C41.0712 114.182 42.8525 112.224 44.3136 112.224C44.3247 112.224 44.3357 112.224 44.346 112.224C45.1996 112.241 46.2107 112.938 47.3517 114.294C51.3944 119.106 56.682 121.722 62.3189 121.721C62.5723 121.721 62.8271 121.716 63.0821 121.705C63.7635 121.677 64.4378 121.609 65.1036 121.504C66.6661 123.207 68.0699 124.937 69.3761 126.649C59.3745 129.487 49.3628 131.602 39.4172 132.974C38.4186 133.095 37.4391 133.155 36.4791 133.155M43.8046 116.198C43.5567 116.198 43.338 116.33 43.135 116.627C42.3301 117.804 40.6108 119.45 38.8011 121.03C37.6098 122.069 37.9654 123.995 39.4314 124.576C42.0523 125.615 44.8463 126.117 47.7128 126.117C48.7286 126.117 49.7539 126.054 50.7831 125.93C50.8144 125.925 50.846 125.921 50.8775 125.916C52.8665 125.641 53.3324 122.954 51.5643 121.995C47.0582 119.551 45.0564 116.198 43.8046 116.198M118 107.949C119.913 102.49 123.119 96.9518 127.849 92.0067C128.577 92.0677 129.315 92.1046 130.056 92.1046C130.702 92.1046 131.349 92.0762 131.989 92.011C130.329 93.9323 128.88 95.8025 127.661 97.4882C126.602 98.9526 127.756 100.803 129.298 100.803C129.589 100.803 129.896 100.736 130.204 100.587C134.618 98.4574 139.102 96.1274 143.619 93.5803C135.532 98.8348 126.973 103.635 118 107.949ZM142.341 82.3392C142.436 82.0057 142.517 81.6779 142.588 81.3587C150.127 77.3699 156.414 75.1421 161.406 73.8381C161.339 74.2354 161.26 74.6284 161.17 75.0187C154.061 75.4529 147.717 78.4285 142.341 82.3392Z" fill="#A92142"/>
<path d="M26.5773 90.3765C25.1146 90.3765 23.7101 90.6444 22.3888 91.1787C18.6042 92.7074 15.8519 96.2715 14.6386 101.214C13.3779 106.349 13.9256 112.307 16.1815 117.991C20.4635 128.782 28.9307 134.242 39.4161 132.974C59.1061 130.257 79.0501 124.628 98.669 116.247C98.6877 116.238 98.7065 116.23 98.7267 116.223C118.66 108.634 136.945 98.8237 153.076 87.0701C161.512 80.7063 163.906 70.8585 159.624 60.0673C155.042 48.5161 144.798 41.7475 136.793 44.9826L136.201 43.4888L136.793 44.9826C135.134 45.6508 133.668 46.7136 132.431 48.1404C132.343 48.2409 132.245 48.3297 132.135 48.4069C123.408 54.4678 105.341 66.0031 82.3897 75.1535C59.531 84.5019 38.5648 88.7284 28.103 90.4158C27.9716 90.4362 27.8378 90.4406 27.7064 90.4289C27.3263 90.394 26.9502 90.3765 26.5773 90.3765M36.5419 136.365C26.1303 136.365 17.5625 130.125 13.2215 119.186C10.7201 112.881 10.1242 106.224 11.5439 100.441C13.0105 94.4662 16.4411 90.1159 21.204 88.1926C23.2725 87.357 25.4882 87.0279 27.7913 87.2085C38.1825 85.5225 58.7647 81.344 81.2048 72.1674C103.735 63.1859 121.492 51.8821 130.167 45.8692C131.71 44.1338 133.54 42.8322 135.608 41.995C145.245 38.1048 157.348 45.6741 162.584 58.872C167.372 70.9401 164.524 82.4491 154.964 89.6617C138.594 101.591 120.069 111.532 99.8813 119.221C80.0142 127.706 59.8072 133.407 39.8214 136.164C38.7111 136.298 37.6159 136.365 36.5419 136.365Z" fill="#6D184E"/>
<path d="M17.6448 103.208C17.6448 103.208 6.91988 107.564 4.27366 115.011C2.70147 119.435 7.22373 116.967 14.1032 114.499C18.8054 112.812 24.6083 111.125 30.3192 111.639C35.5336 112.107 37.533 110.53 38.9847 108.953C41.449 106.275 42.3342 103.595 54.6939 110.936C74.3334 122.599 76.144 141.989 89.5148 142.34C94.87 142.481 97.9459 140.739 100.033 138.999C103.156 136.392 104.059 133.786 107.064 137.493C112.079 143.675 121.584 142.551 116.361 131.38C111.138 120.209 114.447 95.6198 138.125 81.9906C161.803 68.3614 174.477 71.3116 175.592 69.3453C176.707 67.3775 171.413 57.26 154.56 56.98C137.707 56.6985 95.3651 100.117 17.6448 103.208Z" fill="#FCAF15"/>
<path d="M90.0799 140.739C89.9079 140.739 89.7348 140.737 89.5572 140.732C83.401 140.57 79.9666 135.8 75.2131 129.195C73.2854 126.517 71.1533 123.555 68.5644 120.587C71.9016 119.326 74.8457 117.054 77.0236 113.978C79.0843 111.069 80.8679 109.957 83.0726 109.957C85.2092 109.957 87.7401 111.003 91.2962 112.473C93.5434 113.4 96.0899 114.453 99.0552 115.417C100.986 116.044 102.881 116.353 104.69 116.353C107.906 116.353 110.854 115.377 113.254 113.477C112.928 114.096 112.638 114.719 112.38 115.342C109.495 116.9 106.659 117.479 103.931 117.479C100 117.479 96.2965 116.276 93.0084 115.073C89.7192 113.868 86.8466 112.665 84.5737 112.665C83.3083 112.665 82.2294 113.038 81.3683 113.992C78.2957 117.395 75.2645 120.793 73.4127 121.841C78.9134 129.394 82.2729 135.748 89.8488 135.946C90.0342 135.951 90.2151 135.954 90.3949 135.954C95.508 135.954 98.4074 134.013 100.362 132.073C102.315 130.131 103.324 128.191 104.655 128.191C105.324 128.191 106.074 128.68 107.065 129.902C108.854 132.107 111.212 133.381 113.271 133.6C114.183 136.359 114.029 138.327 113.242 139.573C111.686 139.339 109.788 138.31 108.3 136.475C107.422 135.392 106.212 134.138 104.633 134.047C104.573 134.043 104.511 134.041 104.451 134.041C102.913 134.041 101.792 135.132 100.609 136.289C98.6743 138.18 96.043 140.739 90.0799 140.739M5.70117 115.771C5.72262 115.705 5.74696 115.631 5.775 115.553C6.7402 112.837 8.96994 110.54 11.281 108.769C12.7304 108.738 14.2317 108.623 15.718 108.509C16.6378 108.44 17.5065 108.372 18.3587 108.326C18.4428 108.321 18.5184 108.319 18.5861 108.319C18.8048 108.319 18.9432 108.34 19.022 108.36C19.0998 108.909 18.6678 110.332 18.3122 111.447C15.3922 112.267 12.6934 113.292 10.3691 114.176C8.7383 114.795 6.79605 115.533 5.70117 115.771" fill="#D18126"/>
<path d="M30.5137 111.653C39.0482 112.346 38.7942 107.459 41.9993 106.388C35.9317 105.015 37.5498 110.95 30.5137 111.653Z" fill="#F8CE36"/>
<path d="M4.11328 117.052C5.46835 119.165 15.7768 112.205 26.6805 111.589C17.7605 111.042 8.72961 115.647 4.11328 117.052Z" fill="#F8CE36"/>
<path d="M113.899 133.636C113.693 133.636 113.483 133.624 113.269 133.602C113.041 132.911 112.745 132.171 112.375 131.38C110.549 127.475 109.89 121.376 112.38 115.343C112.594 115.226 112.81 115.104 113.025 114.977C112.14 121.333 112.772 127.471 114.921 132.066C115.131 132.516 115.318 132.953 115.478 133.375C114.998 133.55 114.464 133.636 113.899 133.636Z" fill="#FED78A"/>
<path d="M113.907 139.625C113.694 139.625 113.471 139.608 113.241 139.573C114.028 138.328 114.183 136.358 113.27 133.601C113.482 133.624 113.693 133.637 113.899 133.637C114.463 133.637 114.998 133.55 115.479 133.374C116.596 136.283 116.564 138.484 115.344 139.263C114.964 139.504 114.47 139.625 113.907 139.625M112.379 115.342C112.636 114.72 112.927 114.096 113.253 113.478C113.256 113.474 113.259 113.472 113.263 113.47C113.174 113.973 113.095 114.475 113.025 114.978C112.81 115.104 112.594 115.227 112.379 115.342Z" fill="#E8C093"/>
<path d="M118.742 98.6685C118.584 97.1492 118.265 95.592 117.779 94.0182C117.068 91.7121 117.481 91.1946 117.499 91.1732C117.685 90.9572 118.181 90.8753 118.836 90.8753C120.089 90.8753 121.926 91.1732 123.301 91.3963C123.499 91.4284 123.7 91.4604 123.906 91.4937C121.811 93.8936 120.116 96.3196 118.742 98.6685" fill="#D18126"/>
<path d="M43.297 104.585C45.7771 104.585 49.4068 105.929 55.504 109.55C65.2318 115.327 70.7664 123.017 75.2136 129.196C79.9669 135.8 83.4008 140.57 89.5573 140.733C95.8918 140.886 98.6188 138.235 100.609 136.289C101.837 135.087 103.001 133.956 104.634 134.046C106.212 134.138 107.423 135.393 108.3 136.474C110.593 139.301 113.853 140.212 115.344 139.262C116.742 138.371 116.58 135.614 114.921 132.067C111.886 125.574 111.877 116.003 114.898 107.087C117.506 99.3928 123.516 88.5482 137.336 80.5931C154.39 70.7781 165.943 69.4064 171.495 68.7479C172.455 68.6338 173.517 68.5076 174.1 68.3738C173.981 67.8248 173.56 66.7252 172.356 65.317C170.678 63.3552 165.583 58.7716 154.534 58.5876C149.407 58.4873 141.3 63.0344 130.069 69.309C106.286 82.5914 70.3714 102.652 18.001 104.803C16.4523 105.484 7.93837 109.466 5.77529 115.553C5.74725 115.632 5.72282 115.705 5.70157 115.771C6.7963 115.534 8.73854 114.796 10.3695 114.176C15.7081 112.147 23.0226 109.371 30.4621 110.036C35.5145 110.493 36.8717 108.946 38.3077 107.31C39.6839 105.741 40.997 104.585 43.297 104.585M90.1091 143.956C89.901 143.956 89.6885 143.953 89.4744 143.947C81.7451 143.745 77.5229 137.878 72.6336 131.085C68.1375 124.839 63.042 117.759 53.8871 112.322C48.9071 109.365 45.519 107.884 43.5299 107.795C42.2442 107.745 41.7595 108.227 40.6942 109.441C39.0663 111.297 36.8347 113.835 30.1796 113.24C23.4623 112.635 16.5445 115.266 11.493 117.185C7.04218 118.877 4.5898 119.809 3.09528 118.326C1.84482 117.084 2.54429 115.115 2.77433 114.468C5.62936 106.434 16.5862 101.905 17.0504 101.717C17.2204 101.648 17.4005 101.609 17.5831 101.601C69.354 99.5418 104.962 79.6548 128.524 66.4941C140.189 59.9806 148.618 55.2769 154.587 55.3727C166.543 55.5719 173.636 60.662 176.286 65.3596C176.919 66.4834 177.852 68.5988 176.978 70.1424C176.253 71.4214 174.787 71.5947 171.867 71.9415C166.523 72.5756 155.406 73.8957 138.917 83.3883C116.983 96.0122 112.512 119.373 117.805 130.694C121.317 138.207 118.445 141.09 117.046 141.981C113.942 143.96 109.016 142.436 105.832 138.511C104.864 137.318 104.454 137.258 104.45 137.257C104.177 137.279 103.364 138.073 102.828 138.599C100.762 140.616 97.348 143.956 90.1091 143.956" fill="#6D184E"/>
<path d="M101.894 123.951C101.894 123.951 97.0326 133.07 89.8477 131.959C84.3965 131.116 93.5053 132.189 95.8712 125.532C98.6036 117.838 103.301 121.843 101.894 123.951" fill="#F8CE36"/>
<path d="M24.3322 86.6976C24.3322 86.6976 5.11098 87.7518 2.81279 98.5006C0.51475 109.25 10.5431 107.142 18.2735 106.721C26.0035 106.299 10.9607 121.264 24.3322 122.528C29.922 123.057 33.6492 119.828 36.6903 116.6C40.9235 112.107 43.8254 107.613 48.5677 113.254C56.7154 122.949 69.4598 121.896 75.7278 113.044C81.9959 104.192 87.2181 109.883 99.5451 113.887C111.872 117.892 120.229 107.353 116.26 94.496C114.288 88.113 118.549 89.0036 124.079 89.8927C129.69 90.7951 136.608 91.6974 139.658 85.0123C145.716 71.7333 132.764 69.4154 148.224 66.2542C163.685 63.0915 170.37 62.0387 167.864 53.5031C165.357 44.966 159.506 38.6435 139.867 47.0745C120.229 55.504 102.47 92.389 24.3322 86.6976" fill="#48C75A"/>
<path d="M21.2442 112.752C22.0728 110.175 22.7769 107.951 21.5589 106.354C20.9263 105.523 19.9215 105.104 18.5689 105.104C18.4446 105.104 18.3171 105.107 18.1865 105.114C17.2997 105.162 16.3736 105.233 15.4774 105.303C13.862 105.426 12.1632 105.556 10.5888 105.556C10.4071 105.556 10.2267 105.555 10.0487 105.552C11.1238 101.674 13.1232 97.891 9.55065 97.891C9.45203 97.891 9.34906 97.8924 9.24174 97.8995C7.72115 97.9816 6.11219 98.1287 4.52539 98.2321C5.34762 95.4638 7.5782 93.4599 10.2637 92.0078C10.571 93.5886 10.9272 95.1511 11.3308 96.6951C17.7136 99.9544 24.5961 102.172 31.843 103.413C28.9442 105.924 25.9251 110.679 21.2442 112.752M53.3119 111.29C51.5108 111.29 49.6861 110.989 47.9016 110.368C46.9487 109.632 45.9927 109.199 45.0177 109.057C43.0617 107.949 41.2025 106.415 39.5358 104.432C39.5131 104.405 39.4902 104.378 39.4674 104.352C41.7422 104.526 44.0468 104.613 46.3752 104.613C53.485 104.613 60.8271 103.808 68.2973 102.249C67.7686 102.805 67.2359 103.46 66.6961 104.223C63.4558 108.8 58.4846 111.29 53.3119 111.29M95.6574 105.927C94.0455 105.927 92.3228 105.652 90.5144 105.065C84.8412 103.222 80.6718 101.021 77.2137 100.046C82.8182 98.4528 88.4648 96.4545 94.1128 94.0741C94.1353 94.0642 94.1591 94.0543 94.183 94.0444C94.1886 94.0415 94.1956 94.0387 94.2026 94.0359C94.2209 94.0288 94.2349 94.0231 94.2531 94.0146C94.2601 94.0118 94.2672 94.009 94.2756 94.0061C94.2924 93.9991 94.3106 93.9906 94.3275 93.9835C94.3331 93.9807 94.3387 93.9793 94.3443 93.9764C94.3668 93.9665 94.3906 93.9566 94.4131 93.9481L94.4145 93.9467C94.4397 93.9368 94.465 93.9255 94.4888 93.9156C94.4902 93.9142 94.4916 93.9142 94.493 93.9142C94.5155 93.9042 94.5365 93.8943 94.5604 93.8844C94.5632 93.883 94.5688 93.8816 94.573 93.8788C94.5926 93.8703 94.6137 93.8618 94.6347 93.8533C94.6375 93.8519 94.6417 93.8505 94.6445 93.8491C94.667 93.8391 94.6908 93.8292 94.7147 93.8193L94.7161 93.8179C94.7666 93.7967 94.8143 93.7755 94.8648 93.7542C94.8662 93.7542 94.869 93.7528 94.8704 93.7528C94.8928 93.7429 94.9153 93.733 94.9377 93.7231C94.9405 93.7217 94.9419 93.7217 94.9447 93.7203C95.0443 93.6778 95.1426 93.6368 95.2408 93.5929L95.2436 93.5915C95.468 93.4952 95.6911 93.399 95.9141 93.3014L95.9184 93.2999C96.0166 93.2575 96.1147 93.2136 96.2144 93.1712L96.2172 93.1683C96.3154 93.1259 96.4122 93.0834 96.5118 93.0409C96.5146 93.0381 96.5146 93.0381 96.5174 93.0367C96.6156 92.9928 96.711 92.9518 96.8092 92.9079C96.812 92.9065 96.8134 92.9065 96.8162 92.9051C96.8372 92.8952 96.8611 92.8853 96.8821 92.8754C96.8863 92.874 96.8863 92.874 96.8891 92.8725C96.9607 92.8414 97.035 92.8074 97.1066 92.7763C97.1094 92.7749 97.1122 92.7735 97.115 92.7706C97.136 92.7621 97.1571 92.7537 97.1767 92.7437C97.1795 92.7423 97.1852 92.7409 97.188 92.7381C97.2132 92.7282 97.2329 92.7183 97.2567 92.7084H97.2581C97.3058 92.6857 97.3549 92.6645 97.4026 92.6433C97.4068 92.6404 97.411 92.639 97.4152 92.6376C97.4335 92.6291 97.4545 92.6192 97.4727 92.6121C97.4784 92.6093 97.4826 92.6079 97.4868 92.6051C97.505 92.5966 97.5275 92.5881 97.5457 92.5796C97.5499 92.5768 97.5541 92.5753 97.5597 92.5725C97.606 92.5527 97.6509 92.5315 97.6972 92.5102C97.7028 92.5074 97.7112 92.5032 97.7182 92.5017C97.7337 92.4947 97.7505 92.4862 97.7673 92.4791C97.7744 92.4749 97.7814 92.4734 97.7884 92.4692C97.8052 92.4621 97.8193 92.455 97.8361 92.448C97.8445 92.4437 97.8515 92.4409 97.8585 92.4381C97.8768 92.4296 97.8964 92.4211 97.9146 92.4126C97.9175 92.4112 97.9231 92.4083 97.9273 92.4069C97.9497 92.397 97.9736 92.3857 97.996 92.3758C98.0016 92.373 98.0072 92.3701 98.0128 92.3687C98.0283 92.3602 98.0465 92.3531 98.0634 92.3461C98.0704 92.3418 98.0802 92.3376 98.0886 92.3333C98.1026 92.3277 98.1153 92.3206 98.1293 92.3149C98.1405 92.3107 98.1489 92.3064 98.1602 92.3008C98.1728 92.2951 98.184 92.2909 98.1966 92.2852C98.2065 92.2796 98.2177 92.2753 98.2275 92.2711C98.2387 92.2654 98.2499 92.2597 98.2612 92.2555C98.2822 92.2456 98.3061 92.2343 98.3271 92.2258C98.3355 92.2215 98.3467 92.2159 98.3552 92.2116C98.3692 92.206 98.3804 92.2003 98.3944 92.1946C98.4029 92.1904 98.4113 92.1862 98.4197 92.1819C98.4337 92.1762 98.4477 92.1692 98.4604 92.1635C98.4688 92.1607 98.4772 92.1564 98.4842 92.1536C98.4997 92.1451 98.5137 92.1394 98.5291 92.1324C98.5305 92.1324 98.5319 92.1309 98.5333 92.1309C98.5894 92.1041 98.6469 92.0786 98.7045 92.0517C98.7059 92.0517 98.7087 92.0503 98.7115 92.0489C98.7297 92.0404 98.7494 92.0319 98.7676 92.0234L98.769 92.022C101.839 90.6096 104.825 89.1122 107.721 87.5342C109.967 97.673 104.494 105.927 95.6574 105.927M121.107 81.6935C120.007 81.6935 118.891 81.603 117.791 81.4699C123.056 77.97 127.922 74.1701 132.322 70.0942C132.179 71.8251 131.703 73.8347 130.628 76.1897C128.629 80.5698 124.971 81.6935 121.107 81.6935M144.594 56.3239C146.986 53.0066 149.103 49.5619 150.918 46.0011C150.8 45.745 150.681 45.4888 150.562 45.2341C152.279 44.8873 153.856 44.7133 155.29 44.7133C156.646 44.7133 157.875 44.869 158.971 45.1817C160.802 52.2268 155.921 53.9435 144.594 56.3239Z" fill="#539256"/>
<path d="M62.3202 118.505C62.2697 118.505 62.2183 118.504 62.166 118.504C64.9912 117.254 67.5226 115.221 69.4662 112.477C72.0462 108.833 74.4603 107.517 77.2125 107.517C77.8138 107.517 78.4331 107.58 79.0732 107.696C77.5127 108.515 75.982 109.919 74.4297 112.109C71.6937 115.974 67.5091 118.301 62.9494 118.492C62.7394 118.501 62.5302 118.505 62.3202 118.505" fill="#A4E3AD"/>
<path d="M105.668 113.112C111.877 110.223 114.262 102.318 112.414 92.8222C111.681 89.0574 113.306 88.1202 116.066 88.1202C116.166 88.1202 116.267 88.1202 116.369 88.1231C115.88 88.3396 115.451 88.6477 115.089 89.0676C113.653 90.7386 114.199 93.2392 114.735 94.9741C116.573 100.924 115.589 106.742 112.168 110.16C110.405 111.921 108.186 112.915 105.668 113.112ZM130.173 88.886C129.828 88.886 129.473 88.8773 129.113 88.8598C132.394 88.3687 135.382 86.782 137.211 82.7717C143.632 68.7009 129.906 66.2438 146.289 62.8932C157.538 60.5931 164.4 59.345 166.737 55.8593C166.901 57.305 166.589 58.0794 166.296 58.5677C164.695 61.2557 158.614 62.4951 149.41 64.3709L147.905 64.6775C142.655 65.7513 140.312 66.7786 139.262 68.4669C138.294 70.0202 138.707 71.6534 139.142 73.3839C139.788 75.9397 140.59 79.1203 138.209 84.3395C136.609 87.8456 133.794 88.886 130.173 88.886" fill="#A4E3AD"/>
<path d="M18.5685 105.105C19.9211 105.105 20.9259 105.523 21.5585 106.355C22.7851 107.962 22.0628 110.208 21.2265 112.808C20.4617 115.185 19.5946 117.88 20.5349 119.322C21.1037 120.193 22.4304 120.733 24.4801 120.927C30.1162 121.459 33.6868 117.538 36.8365 114.078C39.2364 111.441 41.4963 108.935 44.4091 109.009C46.2425 109.045 48.0003 110.094 49.7825 112.215C53.3578 116.468 58.034 118.7 62.9486 118.492C67.5084 118.3 71.6927 115.975 74.4293 112.11C79.9535 104.309 85.2172 106.486 92.5042 109.497C94.6985 110.403 97.1836 111.43 100.034 112.357C104.869 113.927 109.179 113.147 112.17 110.159C115.59 106.742 116.573 100.924 114.737 94.974C114.2 93.2393 113.654 90.7398 115.092 89.067C116.795 87.0848 120.044 87.6109 123.807 88.2211C130.471 89.2999 135.764 89.7008 138.209 84.3391C140.592 79.1204 139.788 75.9385 139.144 73.383C138.707 71.6542 138.295 70.0198 139.262 68.4664C140.313 66.7789 142.656 65.7517 147.907 64.6773L149.411 64.3707C158.615 62.4946 164.696 61.2566 166.298 58.5684C166.698 57.8978 167.137 56.6923 166.335 53.9599C165.071 49.6579 163.2 47.0434 160.443 45.7332C156.228 43.7303 149.514 44.6794 140.491 48.554C135.838 50.551 131.141 54.3386 125.704 58.7261C117.214 65.5704 106.65 74.0919 90.8008 80.3142C72.2695 87.5903 50.5229 90.2048 24.3251 88.3095C22.9205 88.4083 6.30859 89.773 4.36995 98.8397C3.84562 101.294 4.01304 103.039 4.86812 104.027C6.55986 105.986 11.2973 105.624 15.477 105.304C16.3733 105.235 17.2994 105.164 18.1861 105.115C18.3168 105.108 18.4441 105.105 18.5685 105.105M25.5147 124.193C25.0812 124.193 24.6374 124.173 24.1826 124.13C21.0785 123.835 19.0139 122.841 17.8713 121.089C16.09 118.357 17.2561 114.73 18.194 111.815C18.5622 110.67 19.1083 108.972 19.0218 108.36C18.9179 108.335 18.7141 108.306 18.3584 108.327C17.5062 108.373 16.6376 108.439 15.7178 108.51C10.5511 108.905 5.2072 109.314 2.46535 106.141C0.891498 104.321 0.495148 101.709 1.2538 98.1618C3.77929 86.3494 23.4107 85.1379 24.2447 85.0922C24.3116 85.0893 24.3793 85.0893 24.4462 85.0952C82.6489 89.3308 106.382 70.1892 123.712 56.2133C129.333 51.6799 134.187 47.7641 139.243 45.5946C149.278 41.2867 156.658 40.3804 161.801 42.8239C165.439 44.5541 167.851 47.8009 169.391 53.0461C170.262 56.0114 170.143 58.3591 169.03 60.2264C166.703 64.1276 160.433 65.4053 150.043 67.5232L148.541 67.8297C144.649 68.6256 142.437 69.4155 141.962 70.1775C141.733 70.5444 141.917 71.3329 142.234 72.5901C142.921 75.3136 143.959 79.4299 141.106 85.6847C137.452 93.6888 128.937 92.3094 123.302 91.3956C121.207 91.0581 118.041 90.5423 117.501 91.1731C117.482 91.1937 117.068 91.7125 117.78 94.0175C120.006 101.226 118.747 108.114 114.412 112.445C110.592 116.264 104.994 117.346 99.055 115.417C96.0894 114.454 93.543 113.401 91.2961 112.473C84.0704 109.486 81.0799 108.25 77.0236 113.978C73.7117 118.657 68.6296 121.472 63.0816 121.705C57.1598 121.952 51.5756 119.321 47.351 114.294C46.2102 112.938 45.1991 112.241 44.3454 112.224C44.3351 112.224 44.3242 112.224 44.3131 112.224C42.852 112.224 41.0706 114.182 39.1845 116.253C36.1047 119.637 31.9582 124.193 25.5147 124.193" fill="#6D184E"/>
<path d="M94.1137 94.0745C119.89 83.2074 140.44 66.567 150.918 46.0009C139.274 20.6055 113.987 2.87948 84.5403 2.40044C43.6307 1.73631 9.59597 34.8897 8.8826 76.1587C8.75988 83.2697 9.62141 90.1551 11.3309 96.6952C34.5175 108.536 64.3184 106.634 94.1137 94.0745Z" fill="#F9A332"/>
<path d="M94.6791 3.25977H94.6776H94.6791ZM94.6022 3.2489C94.6007 3.2489 94.6007 3.24736 94.5991 3.24736C94.6007 3.24736 94.6007 3.2489 94.6022 3.2489ZM94.5622 3.24271C94.5607 3.24271 94.5622 3.2427 94.5607 3.24115L94.5622 3.24271ZM94.5253 3.2365C94.5238 3.2365 94.5223 3.2365 94.5192 3.23495C94.5223 3.2365 94.5238 3.2365 94.5253 3.2365ZM94.4838 3.23028H94.4823H94.4838ZM94.3669 3.21323C94.3654 3.21168 94.3654 3.21168 94.3639 3.21168C94.3654 3.21168 94.3654 3.21168 94.3669 3.21323ZM94.1747 3.18375C94.1732 3.18375 94.1716 3.18375 94.1701 3.18375C94.1716 3.18375 94.1732 3.18375 94.1747 3.18375ZM94.1409 3.17909C94.1363 3.17909 94.1332 3.17755 94.1301 3.17755C94.1332 3.17755 94.1363 3.17909 94.1409 3.17909ZM94.1025 3.1729C94.0978 3.1729 94.0932 3.17134 94.0901 3.17134C94.0948 3.17289 94.0963 3.1729 94.1025 3.1729ZM94.0671 3.16823C94.0594 3.16668 94.0548 3.16669 94.0471 3.16514C94.0532 3.16669 94.0609 3.16668 94.0671 3.16823ZM94.0286 3.16204C94.0209 3.16204 94.0148 3.16048 94.0071 3.15893C94.0148 3.16048 94.0194 3.16048 94.0286 3.16204ZM93.9871 3.15582C93.9794 3.15582 93.9748 3.15428 93.9671 3.15428C93.9733 3.15428 93.9794 3.15582 93.9871 3.15582ZM93.9456 3.15117C93.9379 3.14962 93.9348 3.14962 93.9271 3.14807C93.9333 3.14807 93.9379 3.14962 93.9456 3.15117ZM93.9072 3.14496C93.8995 3.14341 93.8918 3.14342 93.8841 3.14187C93.8918 3.14342 93.8979 3.14341 93.9072 3.14496ZM93.8656 3.13877C93.8595 3.13877 93.8518 3.13721 93.8441 3.13566C93.8533 3.13721 93.8579 3.13877 93.8656 3.13877ZM93.8257 3.13256C93.8195 3.13256 93.8118 3.13101 93.8057 3.13101C93.8118 3.13101 93.8195 3.13256 93.8257 3.13256ZM93.7841 3.1279C93.7764 3.12635 93.7718 3.12635 93.7657 3.1248C93.7718 3.12635 93.778 3.12635 93.7841 3.1279ZM93.7441 3.12169C93.7365 3.12014 93.7272 3.12015 93.7195 3.1186C93.7288 3.12015 93.7349 3.12014 93.7441 3.12169ZM93.7042 3.11704C93.6934 3.11394 93.6842 3.11395 93.6719 3.11085C93.6842 3.11395 93.6934 3.11394 93.7042 3.11704ZM93.6642 3.11085C93.6504 3.10929 93.6396 3.10774 93.6257 3.10463C93.6381 3.10619 93.6519 3.10929 93.6642 3.11085ZM93.6165 3.10463C93.6042 3.10153 93.595 3.10153 93.5827 3.09842C93.5934 3.09997 93.6057 3.10308 93.6165 3.10463ZM93.5719 3.09842C93.5627 3.09687 93.5535 3.09532 93.5412 3.09377C93.5535 3.09532 93.5612 3.09687 93.5719 3.09842ZM93.5289 3.09223C93.5212 3.09068 93.5104 3.08913 93.5012 3.08758C93.5119 3.08913 93.5196 3.09068 93.5289 3.09223ZM93.4858 3.08602C93.4766 3.08446 93.4704 3.08291 93.4612 3.08291C93.4689 3.08291 93.4781 3.08446 93.4858 3.08602ZM93.4458 3.07982C93.4366 3.07827 93.4289 3.07827 93.4197 3.07671C93.4289 3.07827 93.4366 3.07827 93.4458 3.07982ZM93.4058 3.07515C93.3966 3.0736 93.3858 3.07205 93.3782 3.0705C93.3858 3.07205 93.3981 3.0736 93.4058 3.07515ZM93.3674 3.06896C93.3566 3.06741 93.3474 3.0674 93.3366 3.06585C93.3474 3.0674 93.3566 3.06741 93.3674 3.06896ZM93.3243 3.06431C93.3151 3.06276 93.3059 3.06119 93.2951 3.05964C93.3059 3.06119 93.3151 3.06276 93.3243 3.06431ZM93.2844 3.0581C93.2736 3.05654 93.2644 3.055 93.2551 3.05344C93.2644 3.055 93.2736 3.05654 93.2844 3.0581ZM93.2428 3.05188C93.2321 3.05188 93.2213 3.05034 93.2121 3.04879C93.2213 3.05034 93.2336 3.05188 93.2428 3.05188ZM93.2029 3.04723C93.1921 3.04568 93.1829 3.04413 93.169 3.04258C93.1813 3.04413 93.1921 3.04568 93.2029 3.04723ZM93.1613 3.04104C93.1475 3.03949 93.1367 3.03792 93.1229 3.03637C93.1352 3.03792 93.149 3.03949 93.1613 3.04104ZM93.1229 3.03637C93.1091 3.03482 93.0952 3.03327 93.0814 3.03172C93.0952 3.03327 93.1075 3.03482 93.1229 3.03637ZM93.0814 3.03172C92.9968 3.01931 92.9153 3.00846 92.8307 2.99915C92.9138 3.00846 92.9968 3.01931 93.0814 3.03172ZM92.8276 2.99759C92.8138 2.99604 92.803 2.99449 92.7892 2.99294C92.8 2.99449 92.8153 2.99604 92.8276 2.99759ZM92.7861 2.99294C92.7723 2.99139 92.76 2.98984 92.7461 2.98829C92.76 2.98984 92.7738 2.99139 92.7861 2.99294ZM92.7461 2.98674C92.7169 2.98364 92.6908 2.98053 92.6631 2.97742C92.6908 2.98053 92.7169 2.98364 92.7461 2.98674ZM92.66 2.97742C92.6477 2.97432 92.6354 2.97278 92.62 2.97123C92.6354 2.97278 92.6462 2.97432 92.66 2.97742ZM92.62 2.97123C92.6062 2.96968 92.5939 2.96811 92.5801 2.96656C92.5924 2.96811 92.6077 2.96968 92.62 2.97123ZM92.5785 2.96656C90.3011 2.68112 87.9945 2.49962 85.6601 2.42671C87.9945 2.49962 90.3026 2.68112 92.5785 2.96656ZM85.6584 2.42671C85.6443 2.42671 85.6309 2.42671 85.6168 2.42671C85.6302 2.42671 85.6451 2.42671 85.6584 2.42671ZM85.6152 2.42671C85.6011 2.42516 85.5885 2.42516 85.5743 2.42516C85.5877 2.42516 85.6019 2.42516 85.6152 2.42671ZM85.5728 2.42516C85.5586 2.42361 85.5468 2.4236 85.5327 2.4236C85.5443 2.4236 85.5609 2.42361 85.5728 2.42516ZM85.5279 2.4236C85.5168 2.4236 85.5019 2.42206 85.491 2.42206C85.5027 2.42206 85.516 2.4236 85.5279 2.4236ZM85.4847 2.42206C85.4736 2.42206 85.4587 2.42206 85.4484 2.42051C85.4595 2.42206 85.4728 2.42206 85.4847 2.42206ZM85.4421 2.42051C85.4279 2.42051 85.4178 2.42051 85.4035 2.42051C85.417 2.42051 85.4287 2.42051 85.4421 2.42051ZM85.4004 2.42051C85.3878 2.41896 85.3737 2.41895 85.361 2.41895C85.3729 2.41895 85.3886 2.41896 85.4004 2.42051ZM85.3572 2.41895C85.2714 2.41585 85.1871 2.41431 85.1015 2.41276C85.1871 2.41431 85.2714 2.41585 85.3572 2.41895ZM85.0959 2.4112C85.0833 2.4112 85.0699 2.4112 85.0573 2.4112C85.0715 2.4112 85.0826 2.4112 85.0959 2.4112ZM85.055 2.4112C85.0401 2.4112 85.0306 2.40965 85.0164 2.40965C85.0298 2.40965 85.0416 2.4112 85.055 2.4112ZM85.0078 2.40965C84.9968 2.40965 84.9849 2.40965 84.974 2.40965C84.9858 2.40965 84.996 2.40965 85.0078 2.40965ZM84.9645 2.40965C84.9535 2.4081 84.9432 2.40809 84.9323 2.40809C84.9425 2.40809 84.9543 2.4081 84.9645 2.40965ZM84.9212 2.40809C84.9109 2.40809 84.9008 2.40809 84.8906 2.40809C84.9 2.40809 84.9109 2.40809 84.9212 2.40809ZM84.878 2.40654C84.8685 2.40654 84.8591 2.40654 84.8505 2.40654C84.8607 2.40654 84.8677 2.40654 84.878 2.40654ZM84.8339 2.40654C84.8253 2.40654 84.8165 2.40655 84.8079 2.405C84.8165 2.40655 84.8261 2.40654 84.8339 2.40654ZM84.7922 2.405C84.7836 2.405 84.7741 2.405 84.7655 2.405C84.7733 2.405 84.7836 2.405 84.7922 2.405ZM84.7506 2.405C84.7418 2.405 84.7324 2.40344 84.723 2.40344C84.7332 2.40344 84.7402 2.405 84.7506 2.405ZM84.708 2.40344C84.6986 2.40344 84.6915 2.40344 84.6829 2.40344C84.6915 2.40344 84.6994 2.40344 84.708 2.40344ZM84.6655 2.40344C84.6569 2.40344 84.6483 2.40345 84.6395 2.40189C84.6474 2.40345 84.6569 2.40344 84.6655 2.40344ZM84.6238 2.40189C84.6128 2.40189 84.6019 2.40189 84.5915 2.40189C84.6034 2.40189 84.612 2.40189 84.6238 2.40189ZM84.5822 2.40189C84.5679 2.40189 84.5546 2.40188 84.5396 2.40033C84.553 2.40188 84.5688 2.40189 84.5822 2.40189ZM84.5396 2.40033C84.5027 2.40033 84.4641 2.40034 84.4272 2.39879C84.4648 2.40034 84.5019 2.40033 84.5396 2.40033ZM82.7598 2.39258C82.8574 2.39258 82.9549 2.39103 83.0526 2.39103C83.0635 2.39103 83.0745 2.39103 83.0855 2.39103C82.9761 2.39258 82.8691 2.39258 82.7598 2.39258Z" fill="#FFF6AF"/>
<path d="M16.3574 44.7522C28.3756 19.9236 53.5772 2.73208 82.4802 2.40011C82.5731 2.397 82.6651 2.39545 82.7587 2.39389C82.8682 2.39389 82.9752 2.39235 83.0846 2.39235C83.0924 2.39235 83.0995 2.39235 83.1073 2.39235C83.1868 2.39235 83.2663 2.39235 83.3466 2.39235C83.7054 2.39235 84.0657 2.39545 84.4261 2.40011C84.463 2.40011 84.5016 2.40165 84.5387 2.40165C84.5536 2.40165 84.5669 2.40166 84.5811 2.40321C84.5842 2.40321 84.5866 2.40321 84.5905 2.40321C84.6008 2.40321 84.6118 2.40321 84.6228 2.40321C84.6275 2.40321 84.6331 2.40321 84.6385 2.40321C84.6472 2.40321 84.6558 2.40321 84.6645 2.40476C84.6692 2.40476 84.6763 2.40476 84.6818 2.40476C84.6904 2.40476 84.6975 2.40476 84.707 2.40476C84.7117 2.40476 84.7172 2.40476 84.722 2.40476C84.7313 2.40476 84.7409 2.40477 84.7495 2.40632C84.755 2.40632 84.7589 2.40632 84.7644 2.40632C84.773 2.40632 84.7825 2.40632 84.7912 2.40632C84.7967 2.40632 84.8022 2.40632 84.8068 2.40632C84.8156 2.40632 84.8242 2.40631 84.8328 2.40786C84.8384 2.40786 84.8447 2.40786 84.8494 2.40786C84.858 2.40786 84.8676 2.40786 84.877 2.40786C84.88 2.40786 84.8856 2.40786 84.8896 2.40786C84.8997 2.40786 84.91 2.40941 84.9202 2.40941C84.9257 2.40941 84.9265 2.40941 84.9312 2.40941C84.9423 2.40941 84.9525 2.40941 84.9635 2.40941C84.9666 2.40941 84.9697 2.40941 84.9729 2.40941C84.984 2.41096 84.9957 2.41097 85.0068 2.41097C85.0083 2.41097 85.0138 2.41097 85.0154 2.41097C85.0295 2.41097 85.039 2.41096 85.054 2.41251H85.0564C85.0689 2.41251 85.0823 2.41251 85.0949 2.41251C85.0964 2.41251 85.0981 2.41251 85.1004 2.41251C85.1862 2.41562 85.2703 2.41717 85.3561 2.42027C85.3577 2.42027 85.3584 2.42027 85.3601 2.42027C85.3726 2.42027 85.3869 2.42027 85.3993 2.42027C85.401 2.42027 85.401 2.42027 85.4026 2.42027C85.4167 2.42182 85.4269 2.42183 85.4412 2.42183C85.4427 2.42183 85.445 2.42183 85.4475 2.42183C85.4576 2.42183 85.4725 2.42338 85.4836 2.42338C85.4851 2.42338 85.4884 2.42338 85.4899 2.42338C85.5008 2.42338 85.5159 2.42337 85.5268 2.42492C85.53 2.42492 85.5285 2.42492 85.5316 2.42492C85.5457 2.42492 85.5576 2.42493 85.5717 2.42648C85.5733 2.42648 85.571 2.42493 85.5733 2.42648C85.5874 2.42648 85.6 2.42648 85.6142 2.42648H85.6157C85.63 2.42803 85.6434 2.42803 85.6575 2.42803C85.6591 2.42803 85.6568 2.42803 85.6591 2.42803C87.9932 2.50094 90.2999 2.68244 92.5773 2.96788H92.5788C92.5927 2.96943 92.6049 2.97099 92.6188 2.97254C92.6342 2.97409 92.6465 2.97564 92.6603 2.97719L92.6634 2.97874C92.6895 2.98184 92.7157 2.98495 92.7449 2.98806C92.7587 2.99116 92.771 2.99115 92.7849 2.99425C92.7864 2.99425 92.7864 2.99425 92.7879 2.99425C92.8018 2.9958 92.8125 2.99735 92.8264 2.9989C92.8279 2.9989 92.8279 2.9989 92.8295 2.9989C92.914 3.00976 92.9971 3.02063 93.0801 3.03149C93.094 3.03459 93.1078 3.03613 93.1216 3.03768C93.1355 3.03924 93.1462 3.0408 93.1601 3.04235C93.1616 3.04235 93.1678 3.0439 93.1693 3.0439C93.1816 3.04545 93.1908 3.047 93.2031 3.04855C93.2062 3.04855 93.2062 3.04856 93.2108 3.05011C93.22 3.05011 93.2308 3.05165 93.2416 3.0532C93.2462 3.05475 93.2493 3.05476 93.2539 3.05476C93.2631 3.05631 93.2723 3.05786 93.2831 3.05941C93.2862 3.05941 93.2908 3.06095 93.2939 3.06095C93.3062 3.06251 93.3138 3.06406 93.3231 3.06406C93.3262 3.06561 93.3323 3.06562 93.3354 3.06562C93.3461 3.06717 93.3554 3.06872 93.3661 3.07027C93.3692 3.07027 93.3738 3.07182 93.3769 3.07182C93.3846 3.07337 93.3953 3.07492 93.4046 3.07647C93.4092 3.07647 93.4138 3.07648 93.4184 3.07803C93.4276 3.07958 93.4353 3.07958 93.4446 3.08113C93.4507 3.08268 93.4538 3.08268 93.4599 3.08268C93.4692 3.08423 93.4753 3.08578 93.4845 3.08733C93.4892 3.08733 93.4953 3.08889 93.5015 3.08889C93.5092 3.09044 93.5199 3.09198 93.5276 3.09198C93.5307 3.09353 93.5384 3.09353 93.5414 3.09509C93.5522 3.09664 93.5614 3.09664 93.5722 3.09819C93.5753 3.09974 93.5783 3.09974 93.5814 3.09974C93.5937 3.10129 93.6045 3.10285 93.6152 3.1044C93.6183 3.1044 93.6229 3.10595 93.6245 3.10595C93.6383 3.1075 93.6491 3.10906 93.6629 3.11216C93.666 3.11216 93.6675 3.11216 93.6706 3.11216C93.6829 3.11371 93.6921 3.11526 93.7044 3.11681C93.7075 3.11836 93.7137 3.11836 93.7183 3.11992C93.726 3.11992 93.7352 3.12146 93.7444 3.12301C93.7506 3.12456 93.7583 3.12456 93.7644 3.12611C93.7721 3.12611 93.7767 3.12767 93.7829 3.12767C93.789 3.12922 93.7982 3.13076 93.8044 3.13076C93.8121 3.13231 93.8182 3.13387 93.8244 3.13387C93.8305 3.13542 93.8367 3.13542 93.8444 3.13697C93.8505 3.13853 93.8582 3.13853 93.8644 3.14008C93.8705 3.14163 93.8782 3.14163 93.8828 3.14319C93.8905 3.14319 93.8982 3.14472 93.9059 3.14628C93.912 3.14628 93.9197 3.14783 93.9259 3.14938C93.9336 3.14938 93.9366 3.15094 93.9443 3.15094C93.9505 3.15249 93.9597 3.15403 93.9659 3.15403C93.9735 3.15558 93.9782 3.15714 93.9859 3.15714C93.992 3.15869 93.9997 3.16024 94.0074 3.16024C94.0135 3.1618 94.0197 3.1618 94.0274 3.16335C94.0335 3.1649 94.0397 3.1649 94.0458 3.16646C94.0535 3.16801 94.0581 3.16799 94.0658 3.16955C94.072 3.16955 94.0827 3.1711 94.0889 3.17265C94.0919 3.17265 94.0966 3.17421 94.1012 3.17421C94.1104 3.17576 94.1196 3.17731 94.1289 3.17886C94.1319 3.17886 94.135 3.17886 94.1396 3.18041C94.1489 3.18196 94.1596 3.18351 94.1688 3.18506C94.1704 3.18506 94.1719 3.18506 94.1734 3.18506C94.235 3.19437 94.3011 3.20369 94.3626 3.21299C94.3641 3.21299 94.3641 3.21299 94.3657 3.21299C94.3918 3.21765 94.418 3.22075 94.4441 3.2254C94.4564 3.22695 94.4687 3.2285 94.481 3.2316H94.4841C94.4948 3.23315 94.5071 3.23471 94.5194 3.23626C94.521 3.23626 94.5225 3.23781 94.5241 3.23781C94.5364 3.23936 94.5456 3.24091 94.5594 3.24246C94.561 3.24246 94.5594 3.24246 94.561 3.24246C94.5748 3.24556 94.584 3.24712 94.5979 3.24867C94.5994 3.24867 94.5994 3.24867 94.601 3.24867C94.6133 3.25177 94.6271 3.25332 94.6379 3.25487C94.6517 3.25642 94.664 3.25953 94.6763 3.26108H94.6778C117.97 6.8601 137.704 21.3508 148.621 41.4154C135.948 23.5599 116.229 11.1448 93.5676 8.29195C93.0878 11.0548 88.5637 13.222 83.0515 13.222C77.6364 13.222 73.1759 11.1308 72.5652 8.43778C59.2015 10.3195 46.8443 15.5676 36.3936 23.3086C36.4123 23.2729 36.4313 23.2387 36.4494 23.2031V23.2046C36.3401 23.3054 36.2313 23.4078 36.1228 23.5102C28.3433 29.323 21.6301 36.5256 16.3574 44.7522" fill="#FCD199"/>
<path d="M94.1113 94.0752C94.1348 94.0649 94.1584 94.0556 94.1819 94.0453C94.1584 94.0556 94.1338 94.0649 94.1113 94.0752ZM94.2013 94.037C94.2187 94.0298 94.234 94.0236 94.2514 94.0164C94.233 94.0236 94.2197 94.0298 94.2013 94.037ZM94.2739 94.0061C94.2902 93.9989 94.3097 93.9917 94.325 93.9844C94.3086 93.9917 94.2913 93.9989 94.2739 94.0061ZM94.3434 93.9772C94.3669 93.9669 94.3873 93.9576 94.4109 93.9483C94.3894 93.9576 94.3659 93.9679 94.3434 93.9772ZM94.4139 93.9473C94.4385 93.937 94.462 93.9267 94.4875 93.9164C94.463 93.9267 94.4385 93.937 94.4139 93.9473ZM94.4916 93.9143C94.5131 93.905 94.5366 93.8957 94.5581 93.8854C94.5356 93.8957 94.5141 93.905 94.4916 93.9143ZM94.5714 93.8803C94.5928 93.872 94.6112 93.8638 94.6327 93.8545C94.6123 93.8627 94.5918 93.872 94.5714 93.8803ZM94.6429 93.8493C94.6664 93.8401 94.6889 93.8308 94.7124 93.8205C94.69 93.8308 94.6664 93.8401 94.6429 93.8493ZM94.7145 93.8194C94.7656 93.7978 94.8126 93.7771 94.8627 93.7555C94.8137 93.7771 94.7646 93.7978 94.7145 93.8194ZM94.8689 93.7534C94.8913 93.7441 94.9138 93.7338 94.9363 93.7245C94.9128 93.7338 94.8924 93.7441 94.8689 93.7534ZM94.9435 93.7215C95.0427 93.6792 95.1408 93.6369 95.24 93.5946C95.1408 93.6369 95.0427 93.6792 94.9435 93.7215ZM95.242 93.5925C95.4669 93.4956 95.6888 93.3997 95.9137 93.3027C95.6898 93.3997 95.4659 93.4966 95.242 93.5925ZM95.9167 93.3007C96.0159 93.2574 96.113 93.2151 96.2122 93.1718C96.114 93.214 96.0149 93.2584 95.9167 93.3007ZM96.2152 93.1697C96.3134 93.1274 96.4115 93.0841 96.5097 93.0408C96.4115 93.0841 96.3134 93.1274 96.2152 93.1697ZM96.5158 93.0377C96.6119 92.9954 96.7111 92.9511 96.8082 92.9088C96.71 92.9521 96.6139 92.9944 96.5158 93.0377ZM96.8153 92.9057C96.8358 92.8964 96.8593 92.8861 96.8808 92.8758C96.8603 92.8861 96.8358 92.8964 96.8153 92.9057ZM96.8869 92.8737C96.9585 92.8417 97.0331 92.8087 97.1047 92.7768C97.0331 92.8087 96.9595 92.8417 96.8869 92.8737ZM97.1139 92.7726C97.1363 92.7623 97.1537 92.7551 97.1752 92.7448C97.1558 92.7541 97.1343 92.7634 97.1139 92.7726ZM97.1875 92.7396C97.211 92.7293 97.2324 92.72 97.256 92.7097C97.2324 92.72 97.212 92.7293 97.1875 92.7396ZM97.256 92.7087C97.304 92.687 97.3531 92.6654 97.4011 92.6448C97.3531 92.6654 97.304 92.687 97.256 92.7087ZM97.4134 92.6386C97.4328 92.6303 97.4533 92.621 97.4717 92.6128C97.4533 92.621 97.4328 92.6303 97.4134 92.6386ZM97.485 92.6066C97.5054 92.5973 97.5238 92.5891 97.5442 92.5798C97.5258 92.5891 97.5044 92.5973 97.485 92.6066ZM97.5575 92.5736C97.6046 92.553 97.6495 92.5323 97.6955 92.5117C97.6495 92.5323 97.6046 92.553 97.5575 92.5736ZM97.717 92.5024C97.7334 92.4942 97.7487 92.487 97.7661 92.4797C97.7497 92.487 97.7324 92.4952 97.717 92.5024ZM97.7876 92.4705C97.8029 92.4632 97.8192 92.456 97.8346 92.4488C97.8182 92.456 97.8039 92.4622 97.7876 92.4705ZM97.8571 92.4385C97.8755 92.4302 97.8939 92.422 97.9123 92.4137C97.8949 92.421 97.8745 92.4313 97.8571 92.4385ZM97.9256 92.4076C97.947 92.3972 97.9726 92.3859 97.9941 92.3766C97.9716 92.3869 97.9481 92.3972 97.9256 92.4076ZM98.0114 92.3694C98.0288 92.3611 98.0442 92.3539 98.0615 92.3467C98.0452 92.3539 98.0278 92.3622 98.0114 92.3694ZM98.0871 92.3343C98.1004 92.3281 98.1137 92.322 98.128 92.3158C98.1137 92.322 98.1004 92.3281 98.0871 92.3343ZM98.1587 92.3024C98.1709 92.2972 98.1822 92.291 98.1955 92.2859C98.1822 92.291 98.1709 92.2962 98.1587 92.3024ZM98.2261 92.2714C98.2363 92.2663 98.2486 92.2611 98.2599 92.2559C98.2476 92.2611 98.2374 92.2663 98.2261 92.2714ZM98.3253 92.226C98.3355 92.2209 98.3447 92.2178 98.3539 92.2126C98.3457 92.2168 98.3345 92.2219 98.3253 92.226ZM98.3928 92.1951C98.4009 92.192 98.4112 92.1869 98.4183 92.1827C98.4101 92.1869 98.4009 92.191 98.3928 92.1951ZM98.4592 92.1642C98.4674 92.1611 98.4756 92.1569 98.4827 92.1539C98.4756 92.1569 98.4674 92.1611 98.4592 92.1642ZM98.5267 92.1332C98.5287 92.1332 98.5308 92.1322 98.5318 92.1312C98.5308 92.1322 98.5287 92.1332 98.5267 92.1332ZM98.7025 92.0528C98.7046 92.0518 98.7066 92.0517 98.7097 92.0497C98.7076 92.0507 98.7046 92.0518 98.7025 92.0528ZM98.7659 92.0239L98.768 92.0229L98.7659 92.0239Z" fill="#5B6D54"/>
<path d="M46.3876 104.608C40.6847 104.608 35.1312 104.089 29.7877 103.026C27.1509 102.369 24.5678 101.577 22.0499 100.637C17.4083 98.9036 14.0839 94.7499 13.3293 89.815C12.6904 85.6343 12.3929 81.3411 12.4686 76.964C12.8328 55.8838 21.8956 36.9282 36.1234 23.5094C36.2138 23.4411 36.3035 23.3742 36.3941 23.3073C31.0011 33.4547 27.8489 44.988 27.6373 57.2385C27.6334 57.469 27.6301 57.6996 27.6286 57.9301C27.5208 70.7825 36.5781 81.8249 49.0967 84.2212C54.2663 85.2102 59.6271 85.6926 65.1294 85.6926C80.3247 85.6926 96.5983 82.0113 112.868 75.1539C124.415 70.2859 134.908 64.2553 143.921 57.2371C133.336 71.4954 117.606 83.3504 98.7692 92.0221L98.7664 92.0235C98.7481 92.032 98.7297 92.0406 98.71 92.0491C98.7071 92.0505 98.7057 92.0519 98.7029 92.0519C98.6451 92.079 98.5901 92.1046 98.5322 92.1302C98.5308 92.1316 98.5294 92.1331 98.528 92.1331C98.5125 92.1402 98.4984 92.1459 98.4843 92.153C98.4758 92.1558 98.4674 92.1601 98.4603 92.1629C98.4462 92.17 98.4335 92.1757 98.4194 92.1829C98.4123 92.1857 98.4011 92.1914 98.3926 92.1942C98.3785 92.1999 98.3686 92.2056 98.3545 92.2113C98.3446 92.217 98.3362 92.2199 98.3263 92.2255C98.3037 92.2341 98.2826 92.2455 98.26 92.2554C98.2487 92.2597 98.2374 92.2654 98.2261 92.2711C98.2163 92.2754 98.205 92.2796 98.1951 92.2853C98.1824 92.291 98.1711 92.2953 98.1599 92.301C98.15 92.3052 98.1387 92.3095 98.1288 92.3152C98.1147 92.3209 98.1006 92.328 98.0879 92.3337C98.0794 92.338 98.071 92.3408 98.0625 92.3465C98.0442 92.3536 98.0287 92.3607 98.0117 92.3678C98.0047 92.3707 98.0005 92.3735 97.9948 92.3764C97.9737 92.3849 97.9483 92.3963 97.9271 92.4077C97.9215 92.4091 97.9186 92.4105 97.913 92.412C97.8947 92.4219 97.8763 92.429 97.858 92.4376C97.8509 92.4404 97.8425 92.4447 97.8354 92.449C97.8199 92.4561 97.8044 92.4632 97.7875 92.4703C97.7804 92.4731 97.7734 92.476 97.7663 92.4788C97.7494 92.486 97.7339 92.4931 97.7169 92.5016C97.7113 92.5044 97.7028 92.5073 97.6958 92.5116C97.6492 92.5315 97.6041 92.5528 97.5589 92.5727C97.5533 92.5756 97.5491 92.577 97.5448 92.5799C97.5251 92.5884 97.5068 92.5969 97.4856 92.6055C97.4814 92.6083 97.4771 92.6097 97.4729 92.6112C97.4532 92.6197 97.4334 92.6297 97.4151 92.6382C97.4094 92.6396 97.4066 92.6411 97.4024 92.6439C97.3544 92.6652 97.3051 92.6866 97.2571 92.7079H97.2557C97.2331 92.7193 97.2119 92.7279 97.188 92.7392C97.1851 92.7407 97.1795 92.7421 97.1753 92.7449C97.1541 92.7535 97.1372 92.762 97.1146 92.772C97.1104 92.7734 97.109 92.7748 97.1047 92.7762C97.0342 92.8076 96.9595 92.8417 96.8875 92.873C96.8847 92.8744 96.8847 92.8744 96.8819 92.8759C96.8593 92.8844 96.8367 92.8958 96.8156 92.9043C96.8128 92.9057 96.8113 92.9071 96.8085 92.9071C96.7112 92.9513 96.6125 92.994 96.5165 93.0366C96.5151 93.0381 96.5109 93.0395 96.5109 93.0409C96.4122 93.0836 96.3148 93.1263 96.2161 93.169C96.2147 93.1704 96.2147 93.1704 96.2133 93.1704C96.1131 93.2145 96.0172 93.2558 95.9171 93.2999C95.9156 93.3013 95.9142 93.3013 95.9142 93.3013C95.69 93.3995 95.4671 93.4949 95.2428 93.5916L95.24 93.593C95.1413 93.6357 95.0425 93.6784 94.9438 93.7211C94.941 93.7211 94.9395 93.7225 94.9367 93.724C94.9142 93.7339 94.8916 93.7424 94.869 93.7524C94.8676 93.7538 94.8648 93.7553 94.8634 93.7553C94.8126 93.7766 94.766 93.7965 94.7153 93.8179C94.7153 93.8193 94.7153 93.8193 94.7124 93.8193C94.6899 93.8293 94.6673 93.8392 94.6433 93.8492C94.6405 93.8506 94.6377 93.852 94.6334 93.8534C94.6123 93.8634 94.5939 93.8705 94.5714 93.8791C94.5671 93.8805 94.5629 93.8833 94.5587 93.8847C94.5375 93.8947 94.5136 93.9047 94.4924 93.9132C94.491 93.9132 94.4896 93.9146 94.4882 93.9146C94.4628 93.926 94.4388 93.936 94.4148 93.9459C94.412 93.9474 94.412 93.9474 94.412 93.9474C94.388 93.9573 94.3683 93.9659 94.3443 93.9758C94.3372 93.9787 94.3316 93.9815 94.3259 93.9829C94.3104 93.9901 94.2907 93.9986 94.2752 94.0057C94.2681 94.0085 94.2597 94.0114 94.2526 94.0157C94.2343 94.0228 94.2187 94.0285 94.2018 94.037C94.1948 94.0384 94.1877 94.0427 94.1821 94.0441C94.1581 94.0555 94.1355 94.064 94.1115 94.074C77.845 100.931 61.5801 104.608 46.3876 104.608Z" fill="#BF6700"/>
<path d="M36.123 23.5088C36.2316 23.4063 36.3402 23.3052 36.4496 23.2041V23.2027C36.4314 23.2383 36.4126 23.2725 36.3937 23.3081C36.3033 23.375 36.2135 23.4419 36.123 23.5088Z" fill="#D19982"/>
<path d="M46.7931 31.1011C46.022 33.5469 44.69 35.3369 43.8417 35.0653C42.9936 34.7923 42.9306 32.5562 43.7016 30.1089C44.4719 27.6631 45.8048 25.8731 46.6531 26.1447C47.4478 26.4008 47.5627 28.3851 46.9151 30.6916L46.7931 31.1011" fill="#FCE69F"/>
<path d="M59.381 32.6768C58.9459 35.2072 57.8663 37.1622 56.989 37.0086C56.1125 36.855 55.7489 34.6472 56.184 32.1182C56.6199 29.5879 57.6995 27.6328 58.576 27.7864C59.3983 27.9303 59.7782 29.8811 59.447 32.2551L59.381 32.6768Z" fill="#FCE69F"/>
<path d="M75.6312 32.1686C75.9855 34.7114 75.5523 36.9065 74.6705 37.0307C73.7888 37.1564 72.7728 35.1666 72.4185 32.6238C72.0641 30.0824 72.4988 27.8873 73.3791 27.763C74.2055 27.6457 75.1605 29.3842 75.5661 31.7469L75.6312 32.1686Z" fill="#FCE69F"/>
<path d="M89.2207 26.9115C90.5674 29.0896 91.0525 31.2734 90.2981 31.7485C89.5436 32.2237 87.8132 30.8209 86.4679 28.6429C85.1197 26.4648 84.6346 24.281 85.389 23.8058C86.097 23.3605 87.6694 24.5598 88.9894 26.553L89.2207 26.9115" fill="#FCE69F"/>
<path d="M99.6431 18.1928C101.449 20.0038 102.415 22.0179 101.787 22.6549C101.158 23.2904 99.159 22.3239 97.3551 20.5129C95.5511 18.7019 94.5828 16.6878 95.2113 16.0508C95.8005 15.455 97.6015 16.2597 99.3398 17.8957L99.6431 18.1928Z" fill="#FCE69F"/>
<path d="M48.4691 72.6177C47.622 72.6177 46.9375 71.926 46.9375 71.0726C46.9375 70.218 47.622 69.5264 48.4691 69.5264C49.3151 69.5264 50.0007 70.218 50.0007 71.0726C50.0007 71.926 49.3151 72.6177 48.4691 72.6177Z" fill="#BF6700"/>
<path d="M73.1805 57.9346C72.3346 57.9346 71.6484 57.2423 71.6484 56.3891C71.6484 55.5345 72.3346 54.8423 73.1805 54.8423C74.0263 54.8423 74.7125 55.5345 74.7125 56.3891C74.7125 57.2423 74.0263 57.9346 73.1805 57.9346Z" fill="#BF6700"/>
<path d="M78.2433 74.0195C77.3958 74.0195 76.7109 73.3275 76.7109 72.4748C76.7109 71.621 77.3958 70.929 78.2433 70.929C79.0885 70.929 79.7745 71.621 79.7745 72.4748C79.7745 73.3275 79.0885 74.0195 78.2433 74.0195Z" fill="#E99335"/>
<path d="M93.0275 55.1001C92.1808 55.1001 91.4961 54.4081 91.4961 53.5539C91.4961 52.701 92.1808 52.009 93.0275 52.009C93.8742 52.009 94.5602 52.701 94.5602 53.5539C94.5602 54.4081 93.8742 55.1001 93.0275 55.1001Z" fill="#E99335"/>
<path d="M108.845 67.7493C107.999 67.7493 107.312 67.057 107.312 66.2046C107.312 65.3499 107.999 64.6588 108.845 64.6588C109.692 64.6588 110.378 65.3499 110.378 66.2046C110.378 67.057 109.692 67.7493 108.845 67.7493Z" fill="#BF6700"/>
<path d="M110.893 44.3628C110.047 44.3628 109.361 43.671 109.361 42.8176C109.361 41.963 110.047 41.2712 110.893 41.2712C111.74 41.2712 112.425 41.963 112.425 42.8176C112.425 43.671 111.74 44.3628 110.893 44.3628Z" fill="#BF6700"/>
<path d="M121.907 31.1179C121.062 31.1179 120.375 30.4265 120.375 29.5733C120.375 28.7202 121.062 28.0273 121.907 28.0273C122.753 28.0273 123.44 28.7202 123.44 29.5733C123.44 30.4265 122.753 31.1179 121.907 31.1179Z" fill="#BF6700"/>
<path d="M48.7762 56.5659C47.9303 56.5659 47.2441 55.8739 47.2441 55.0198C47.2441 54.1668 47.9303 53.4748 48.7762 53.4748C49.6227 53.4748 50.3089 54.1668 50.3089 55.0198C50.3089 55.8739 49.6227 56.5659 48.7762 56.5659Z" fill="#E99335"/>
<path d="M136.934 45.6753C136.088 45.6753 135.402 44.9838 135.402 44.1305C135.402 43.2772 136.088 42.5844 136.934 42.5844C137.781 42.5844 138.466 43.2772 138.466 44.1305C138.466 44.9838 137.781 45.6753 136.934 45.6753Z" fill="#BF6700"/>
<path d="M126.999 62.5544C126.154 62.5544 125.467 61.8616 125.467 61.0083C125.467 60.155 126.154 59.4634 126.999 59.4634C127.845 59.4634 128.531 60.155 128.531 61.0083C128.531 61.8616 127.845 62.5544 126.999 62.5544Z" fill="#E99335"/>
<path d="M83.3252 3.99953C43.7339 3.99953 11.1687 36.1357 10.4764 76.1878C10.4031 80.4365 10.6919 84.7041 11.3356 88.8715C11.9996 93.1734 14.9047 96.7813 18.9184 98.2882C39.7515 106.106 66.2375 104.082 93.4981 92.5904C116.645 82.8329 134.618 68.8736 145.471 52.2193C147.951 48.4177 148.057 43.4608 145.744 39.5934C132.669 17.7212 109.779 4.41848 84.515 4.00892C84.1184 4.00267 83.7204 3.99953 83.3252 3.99953V3.99953ZM46.3517 106.223C36.1007 106.223 26.5295 104.576 17.8065 101.302C12.7133 99.3907 9.02663 94.8164 8.18523 89.3655C7.51397 85.0183 7.21243 80.5647 7.28898 76.1315C7.64134 55.7459 15.8953 36.6624 30.5305 22.3983C45.1619 8.13887 64.3522 0.454219 84.5661 0.793431C97.6664 1.00603 110.534 4.64201 121.78 11.3075C132.7 17.7806 141.931 26.9879 148.474 37.9318C151.417 42.8543 151.284 49.1555 148.136 53.9858C136.932 71.1778 118.463 85.5529 94.7269 95.5573C80.9766 101.355 67.4595 104.828 54.5504 105.882C51.7729 106.109 49.0387 106.223 46.3517 106.223" fill="#6D184E"/>
<path d="M129.084 153.639C128.167 158.636 123.406 161.935 118.451 161.009C113.499 160.082 110.227 155.28 111.147 150.282C111.686 147.346 112.853 148.013 114.756 148.679C116.092 149.148 117.789 149.615 119.886 148.838C125.875 146.62 130.003 148.642 129.084 153.639" fill="#FCAF15"/>
<path d="M118.435 161.006H118.434H118.435ZM124.537 154.651C124.76 154.091 124.931 153.5 125.045 152.883C125.47 150.577 124.808 148.914 123.394 147.999C123.707 147.969 124.009 147.955 124.301 147.955C127.727 147.955 129.731 149.985 129.093 153.583C129.297 152.434 129.223 151.45 128.927 150.633C127.889 152.243 126.33 153.724 124.537 154.651M129.087 153.621C129.087 153.619 129.088 153.617 129.088 153.614C129.088 153.617 129.087 153.618 129.087 153.621ZM129.091 153.603C129.091 153.597 129.092 153.591 129.093 153.585C129.092 153.591 129.091 153.597 129.091 153.603Z" fill="#FED78A"/>
<path d="M118.451 161.009C118.446 161.008 118.442 161.007 118.436 161.006C118.44 161.007 118.446 161.008 118.451 161.009ZM128.502 155.586C128.762 154.973 128.959 154.322 129.084 153.639C129.086 153.634 129.087 153.627 129.088 153.621C129.087 153.627 129.086 153.633 129.084 153.639C128.959 154.322 128.762 154.973 128.502 155.586" fill="#D18126"/>
<path d="M111.148 150.282C111.148 150.279 111.148 150.276 111.15 150.273C111.148 150.276 111.148 150.279 111.148 150.282Z" fill="#6D184E"/>
<path d="M118.436 161.006C113.491 160.072 110.229 155.274 111.147 150.282C111.147 150.28 111.148 150.277 111.148 150.273C111.43 148.754 111.879 148.206 112.514 148.121C113.431 151.378 115.936 154.865 119.46 155.525C119.881 155.604 120.3 155.641 120.72 155.641C122.04 155.641 123.342 155.269 124.538 154.651C123.204 157.991 120.031 160.238 116.477 160.392C117.093 160.663 117.746 160.875 118.436 161.006M129.089 153.614C129.09 153.611 129.091 153.607 129.091 153.603C129.091 153.607 129.09 153.611 129.089 153.614ZM129.095 153.585C129.095 153.585 129.095 153.584 129.095 153.583C129.095 153.584 129.095 153.585 129.095 153.585Z" fill="#D18126"/>
<path d="M120.184 161.165C123.807 161.141 127.085 158.932 128.502 155.586C127.085 158.933 123.807 161.142 120.184 161.165" fill="#D3B392"/>
<path d="M120.126 161.165C119.574 161.165 119.013 161.114 118.452 161.009C118.446 161.008 118.441 161.007 118.436 161.006H118.435C117.747 160.875 117.093 160.663 116.477 160.392C120.032 160.238 123.203 157.991 124.539 154.651C126.331 153.724 127.89 152.243 128.928 150.633C129.223 151.45 129.298 152.434 129.095 153.583C129.095 153.584 129.095 153.585 129.095 153.585C129.093 153.591 129.093 153.597 129.092 153.603C129.09 153.607 129.09 153.611 129.089 153.614C129.089 153.617 129.088 153.619 129.088 153.621C129.087 153.627 129.086 153.633 129.084 153.639C128.96 154.322 128.761 154.973 128.503 155.586C127.085 158.932 123.807 161.141 120.184 161.165C120.163 161.165 120.145 161.165 120.126 161.165" fill="#D29D78"/>
<path d="M112.926 149.754C112.868 149.906 112.79 150.162 112.714 150.576C112.348 152.571 112.773 154.589 113.911 156.262C115.05 157.933 116.766 159.057 118.743 159.428C120.721 159.797 122.721 159.369 124.379 158.22C126.037 157.072 127.15 155.34 127.518 153.346C127.697 152.368 127.723 151.043 126.826 150.278C125.666 149.291 123.218 149.318 120.436 150.348C117.579 151.407 115.315 150.59 113.816 150.05C113.532 149.947 113.172 149.817 112.926 149.754V149.754ZM120.139 162.775C119.483 162.775 118.821 162.714 118.16 162.59C115.348 162.063 112.905 160.463 111.284 158.083C109.662 155.703 109.057 152.829 109.579 149.989C109.783 148.883 110.164 147.528 111.318 146.858C112.513 146.163 113.775 146.62 114.89 147.022C116.205 147.495 117.565 147.986 119.337 147.33C123.309 145.858 126.787 146.037 128.882 147.821C130.496 149.195 131.124 151.366 130.652 153.933C130.13 156.772 128.543 159.236 126.185 160.871C124.378 162.123 122.284 162.775 120.139 162.775" fill="#6D184E"/>
<path d="M140.947 90.2565C141.591 90.555 142.344 90.4786 142.954 90.1177C145.476 88.6229 153.532 83.6829 154.889 80.7695C156.401 77.5202 136.394 88.1468 140.947 90.2565Z" fill="#E5525F"/>
</svg>
