<svg width="56" height="56" viewBox="0 0 56 56" fill="none" xmlns="http://www.w3.org/2000/svg">
<path d="M1.33543 0.275102C1.01747 0.459404 0.597765 0.854336 0.381552 1.15712L0 1.72319V8.7793V15.8486L0.330678 16.7306C1.52621 19.9032 4.09532 22.0095 7.18589 22.3386L8.01259 22.4308L8.07618 38.3597L8.13977 54.2886L8.41958 54.7625C8.58492 55.0258 8.95375 55.4076 9.24627 55.6182C9.71686 55.9605 9.88219 56 10.747 56C11.5992 56 11.7772 55.9605 12.2224 55.6446C12.4895 55.4471 12.8583 55.0653 13.0364 54.7889L13.3543 54.3018L13.4179 38.3729L13.4815 22.4308L14.3082 22.3386C17.4751 22.0095 20.2477 19.6531 21.2143 16.5068C21.4941 15.5985 21.4941 15.4537 21.4941 8.66082V1.73635L21.1507 1.22294C20.5911 0.406746 20.006 0.0644718 19.0267 0.0118142C17.9838 -0.0408434 17.2334 0.314595 16.6611 1.15712L16.2795 1.72319L16.216 5.02745L16.1524 8.34488H14.8169H13.4815L13.4179 5.04061C13.3543 1.78901 13.3543 1.73635 13.0364 1.26243C12.5022 0.433075 11.8535 0.0644718 10.8869 0.0118142C9.84404 -0.0408434 9.09365 0.314595 8.52133 1.15712L8.13977 1.72319L8.07618 5.02745L8.01259 8.34488H6.67716H5.34173L5.27813 5.04061L5.21454 1.73635L4.87115 1.22294C4.31154 0.406746 3.72649 0.0644718 2.74717 0.0118142C2.04766 -0.027679 1.80601 0.0249786 1.33543 0.275102ZM16.0888 14.3347C16.0888 15.1377 15.4656 16.0197 14.5626 16.52C14.1556 16.7438 13.7995 16.7701 10.747 16.7701C7.54201 16.7701 7.35123 16.7569 6.86793 16.4805C6.00308 16.0066 5.40532 15.1245 5.40532 14.3347V13.9397H10.747H16.0888V14.3347Z" fill="#FF7020"/>
<path d="M27.7008 0.275107C27.3828 0.459408 26.9631 0.854338 26.7469 1.15712L26.3653 1.72319L26.3017 16.4015L26.2382 31.0798L25.1698 31.4089C22.4989 32.1988 20.5022 33.8575 19.3829 36.1876C18.4036 38.2544 18.2383 39.1101 18.2383 42.1116C18.2383 44.31 18.2764 44.8366 18.5054 45.7976C19.7518 50.8922 22.5117 54.3676 26.3653 55.6972C27.1157 55.9473 27.5227 56 28.9726 56C30.4225 56 30.8295 55.9473 31.5799 55.6972C35.4336 54.3676 38.1935 50.8922 39.4399 45.7976C39.6688 44.8366 39.7069 44.31 39.7069 42.1116C39.7069 39.8999 39.6688 39.3997 39.4271 38.4914C38.4733 34.8448 36.1967 32.4226 32.7754 31.4089L31.7071 31.0798L31.6435 16.4147L31.5799 1.73635L31.2365 1.22294C30.6769 0.406748 30.0918 0.0644762 29.1125 0.0118186C28.413 -0.0276746 28.1714 0.024983 27.7008 0.275107ZM31.4781 36.8458C32.9026 37.346 33.831 38.4914 34.1872 40.1501C34.4288 41.2954 34.2889 44.1652 33.9328 45.3368C33.2714 47.4958 32.0123 49.3125 30.6514 50.0234C29.7993 50.471 28.1586 50.4841 27.3192 50.0365C25.8693 49.2598 24.6992 47.5748 23.987 45.271C23.7326 44.4022 23.6945 44.0204 23.6945 42.1116C23.6945 39.9921 23.7072 39.9263 24.0633 39.1101C24.6992 37.6883 25.9965 36.7668 27.7008 36.5299C27.7008 36.5299 30.6896 36.5825 31.4781 36.8458Z" fill="#FF7020"/>
<path d="M52.2224 0.222445C50.5945 1.10446 48.0762 3.50038 46.5246 5.61985C42.6582 10.9514 40.407 18.4815 39.8856 27.894C39.6948 31.3431 39.7838 31.8565 40.6614 32.7648C41.5135 33.6469 41.7425 33.6863 46.5755 33.6863H50.7217V43.8624V54.0517L51.0142 54.6046C51.1668 54.9205 51.5484 55.3549 51.8536 55.5919C52.3496 55.9605 52.4768 56 53.3798 56C54.2447 56 54.4227 55.9605 54.8679 55.6446C55.1349 55.4471 55.5038 55.0653 55.6818 54.7889L55.9998 54.3018V28.0257V1.73635L55.6564 1.22294C55.0968 0.393582 54.5117 0.0644718 53.5324 0.0118142C52.8965 -0.0145146 52.5785 0.0249786 52.2224 0.222445ZM50.7217 18.6789V28.0257H48.0254H45.3418L45.4308 26.6697C45.6597 23.0495 46.5119 18.6789 47.6184 15.4537C48.356 13.321 50.3401 9.33221 50.6581 9.33221C50.6962 9.33221 50.7217 13.5317 50.7217 18.6789Z" fill="#FF7020"/>
</svg>
