<svg width="300" height="58" viewBox="0 0 300 58" fill="none" xmlns="http://www.w3.org/2000/svg">
<path d="M82.7394 47.1585C81.4306 47.1585 80.4319 46.8059 79.743 46.1007C79.0542 45.3955 78.7098 44.3881 78.7098 43.0785V28.4711L80.363 32.9541L68.1709 16.08C67.6888 15.3748 67.4821 14.6192 67.551 13.8133C67.6199 12.9738 67.9643 12.2518 68.5842 11.6474C69.2042 11.0429 70.0824 10.7407 71.2189 10.7407C72.0455 10.7407 72.786 10.9422 73.4404 11.3452C74.1292 11.7481 74.7836 12.3862 75.4035 13.2592L83.6693 24.8948H82.0161L90.2819 13.2592C90.9363 12.3526 91.5734 11.7146 92.1934 11.3452C92.8477 10.9422 93.6054 10.7407 94.4665 10.7407C95.5686 10.7407 96.4296 11.0262 97.0495 11.597C97.6695 12.1343 97.9966 12.8227 98.0311 13.6622C98.0655 14.4681 97.7728 15.3076 97.1528 16.1807L85.1158 32.9541L86.7173 28.4711V43.0785C86.7173 45.7985 85.3913 47.1585 82.7394 47.1585Z" fill="#FF7020"/>
<path d="M109.805 47.2592C107.084 47.2592 104.707 46.7388 102.675 45.6978C100.678 44.6568 99.1279 43.1625 98.0258 41.2148C96.9237 39.2671 96.3727 36.9669 96.3727 34.3141C96.3727 32.3328 96.6826 30.5531 97.3026 28.9748C97.9225 27.3965 98.818 26.0533 99.989 24.9452C101.194 23.8034 102.624 22.9471 104.277 22.3763C105.93 21.7718 107.773 21.4696 109.805 21.4696C112.525 21.4696 114.885 21.9901 116.882 23.0311C118.914 24.0721 120.481 25.5496 121.583 27.4637C122.72 29.3778 123.288 31.6612 123.288 34.3141C123.288 36.3289 122.961 38.1254 122.307 39.7037C121.687 41.282 120.791 42.642 119.62 43.7837C118.449 44.9254 117.02 45.7985 115.332 46.403C113.679 46.9738 111.837 47.2592 109.805 47.2592ZM109.805 41.5674C110.941 41.5674 111.923 41.2987 112.749 40.7615C113.576 40.2242 114.23 39.435 114.712 38.3941C115.195 37.3195 115.436 35.9595 115.436 34.3141C115.436 31.8627 114.919 30.0662 113.886 28.9244C112.853 27.7491 111.492 27.1615 109.805 27.1615C108.702 27.1615 107.721 27.4133 106.86 27.917C106.033 28.4207 105.379 29.2099 104.897 30.2844C104.449 31.3254 104.225 32.6686 104.225 34.3141C104.225 36.7654 104.742 38.5955 105.775 39.8044C106.808 40.9797 108.151 41.5674 109.805 41.5674Z" fill="#FF7020"/>
<path d="M137.385 47.2592C135.249 47.2592 133.476 46.8731 132.064 46.1007C130.652 45.3284 129.601 44.1699 128.912 42.6252C128.258 41.0469 127.931 39.0992 127.931 36.7822V25.3985C127.931 24.1225 128.258 23.1654 128.912 22.5274C129.601 21.8894 130.566 21.5704 131.805 21.5704C133.045 21.5704 134.01 21.8894 134.698 22.5274C135.387 23.1654 135.732 24.1225 135.732 25.3985V36.9837C135.732 38.4612 136.042 39.5694 136.662 40.3081C137.281 41.0133 138.263 41.3659 139.606 41.3659C141.087 41.3659 142.293 40.8622 143.222 39.8548C144.187 38.8138 144.669 37.4538 144.669 35.7748V25.3985C144.669 24.1225 144.996 23.1654 145.651 22.5274C146.339 21.8894 147.304 21.5704 148.544 21.5704C149.818 21.5704 150.782 21.8894 151.437 22.5274C152.125 23.1654 152.47 24.1225 152.47 25.3985V43.28C152.47 45.8657 151.213 47.1585 148.699 47.1585C147.459 47.1585 146.512 46.8227 145.857 46.1511C145.203 45.4795 144.876 44.5225 144.876 43.28V39.9052L145.651 41.8696C144.893 43.5822 143.808 44.9086 142.396 45.8489C140.984 46.7891 139.313 47.2592 137.385 47.2592Z" fill="#FF7020"/>
<path d="M162.536 47.1585C161.227 47.1585 160.228 46.8227 159.539 46.1511C158.851 45.4795 158.506 44.5225 158.506 43.28V25.3985C158.506 24.156 158.833 23.2158 159.488 22.5778C160.176 21.9062 161.124 21.5704 162.329 21.5704C163.569 21.5704 164.516 21.9062 165.17 22.5778C165.825 23.2158 166.152 24.156 166.152 25.3985V28.0178H165.635C166.049 26.0029 166.961 24.4415 168.373 23.3333C169.785 22.2252 171.611 21.6039 173.849 21.4696C174.71 21.4025 175.365 21.6207 175.813 22.1244C176.295 22.5946 176.553 23.3837 176.588 24.4918C176.656 25.5328 176.433 26.3555 175.916 26.96C175.434 27.5644 174.607 27.9338 173.436 28.0681L172.248 28.1689C170.285 28.3368 168.821 28.8908 167.857 29.8311C166.927 30.7713 166.462 32.1313 166.462 33.9111V43.28C166.462 44.5225 166.118 45.4795 165.429 46.1511C164.774 46.8227 163.81 47.1585 162.536 47.1585Z" fill="#FF7020"/>
<path d="M184.187 47.1585C183.016 47.1585 182.121 46.8395 181.501 46.2015C180.881 45.5634 180.571 44.6736 180.571 43.5318V14.3674C180.571 13.2257 180.898 12.3358 181.553 11.6978C182.241 11.0597 183.171 10.7407 184.342 10.7407C185.376 10.7407 186.185 10.9422 186.77 11.3452C187.39 11.7146 187.959 12.3694 188.475 13.3096L200.409 34.5659H198.652L210.586 13.3096C211.103 12.3694 211.654 11.7146 212.239 11.3452C212.859 10.9422 213.669 10.7407 214.667 10.7407C215.838 10.7407 216.734 11.0597 217.354 11.6978C218.008 12.3358 218.335 13.2257 218.335 14.3674V43.5318C218.335 44.6736 218.025 45.5634 217.405 46.2015C216.786 46.8395 215.89 47.1585 214.719 47.1585C213.548 47.1585 212.635 46.8395 211.981 46.2015C211.361 45.5634 211.051 44.6736 211.051 43.5318V23.1318H212.188L202.579 39.9052C202.165 40.5432 201.718 41.0301 201.236 41.3659C200.788 41.6681 200.185 41.8192 199.427 41.8192C198.67 41.8192 198.05 41.6513 197.568 41.3155C197.085 40.9797 196.655 40.5096 196.276 39.9052L186.564 23.0815H187.804V43.5318C187.804 44.6736 187.494 45.5634 186.874 46.2015C186.288 46.8395 185.393 47.1585 184.187 47.1585Z" fill="#FF7020"/>
<path d="M238.224 47.2592C235.227 47.2592 232.644 46.7388 230.475 45.6978C228.339 44.6232 226.686 43.1289 225.515 41.2148C224.379 39.2671 223.81 36.9837 223.81 34.3644C223.81 31.8123 224.361 29.5792 225.463 27.6652C226.566 25.7175 228.098 24.2064 230.061 23.1318C232.059 22.0237 234.315 21.4696 236.829 21.4696C238.654 21.4696 240.307 21.7718 241.788 22.3763C243.269 22.9471 244.544 23.7867 245.611 24.8948C246.679 25.9694 247.488 27.2958 248.039 28.8741C248.59 30.4187 248.866 32.1481 248.866 34.0622C248.866 34.7002 248.659 35.1871 248.246 35.5229C247.833 35.8252 247.23 35.9763 246.438 35.9763H230.216V32.0474H243.235L242.408 32.7526C242.408 31.3758 242.202 30.2341 241.788 29.3274C241.375 28.3871 240.772 27.682 239.98 27.2118C239.222 26.7417 238.275 26.5066 237.139 26.5066C235.865 26.5066 234.78 26.7921 233.884 27.3629C232.989 27.9338 232.3 28.7565 231.818 29.8311C231.336 30.9057 231.094 32.1985 231.094 33.7096V34.1126C231.094 36.6647 231.697 38.5452 232.903 39.7541C234.142 40.9629 235.968 41.5674 238.379 41.5674C239.205 41.5674 240.152 41.4666 241.22 41.2652C242.288 41.0637 243.286 40.7447 244.216 40.3081C245.009 39.9387 245.715 39.8212 246.335 39.9555C246.954 40.0563 247.437 40.3249 247.781 40.7615C248.125 41.198 248.315 41.7017 248.349 42.2726C248.418 42.8434 248.298 43.4143 247.988 43.9852C247.678 44.5225 247.161 44.9758 246.438 45.3452C245.267 45.9832 243.941 46.4533 242.46 46.7555C241.013 47.0913 239.601 47.2592 238.224 47.2592Z" fill="#FF7020"/>
<path d="M261.979 47.2592C260.119 47.2592 258.449 46.9067 256.968 46.2015C255.487 45.4963 254.333 44.5392 253.507 43.3304C252.68 42.1215 252.267 40.7615 252.267 39.2504C252.267 37.437 252.749 36.0099 253.713 34.9689C254.678 33.8943 256.245 33.1387 258.414 32.7022C260.584 32.2321 263.46 31.997 267.042 31.997H269.78V35.9259H267.093C265.337 35.9259 263.908 36.0266 262.806 36.2281C261.738 36.396 260.963 36.6983 260.481 37.1348C260.033 37.5713 259.809 38.1758 259.809 38.9481C259.809 39.8884 260.136 40.6607 260.791 41.2652C261.48 41.8696 262.461 42.1718 263.735 42.1718C264.734 42.1718 265.612 41.9536 266.37 41.517C267.162 41.0469 267.782 40.4257 268.23 39.6533C268.678 38.8474 268.902 37.9407 268.902 36.9333V31.1407C268.902 29.6632 268.557 28.6222 267.868 28.0178C267.18 27.3797 266.009 27.0607 264.355 27.0607C263.425 27.0607 262.409 27.1783 261.307 27.4133C260.24 27.6148 259.051 27.9674 257.743 28.4711C256.985 28.8069 256.313 28.8908 255.728 28.7229C255.142 28.5215 254.695 28.1857 254.385 27.7155C254.075 27.2118 253.92 26.6746 253.92 26.1037C253.92 25.4992 254.092 24.9284 254.436 24.3911C254.781 23.8202 255.349 23.4005 256.141 23.1318C257.76 22.4938 259.275 22.0573 260.687 21.8222C262.134 21.5871 263.46 21.4696 264.665 21.4696C267.317 21.4696 269.487 21.8558 271.175 22.6281C272.897 23.3669 274.188 24.5254 275.049 26.1037C275.91 27.6484 276.341 29.6464 276.341 32.0978V43.28C276.341 44.5225 276.031 45.4795 275.411 46.1511C274.791 46.8227 273.895 47.1585 272.724 47.1585C271.553 47.1585 270.641 46.8227 269.986 46.1511C269.367 45.4795 269.057 44.5225 269.057 43.28V41.4163L269.418 41.7185C269.212 42.8602 268.764 43.8508 268.075 44.6904C267.421 45.4963 266.577 46.1343 265.544 46.6044C264.51 47.041 263.322 47.2592 261.979 47.2592Z" fill="#FF7020"/>
<path d="M291.304 47.2592C288.239 47.2592 285.948 46.4365 284.433 44.7911C282.918 43.1121 282.16 40.6271 282.16 37.3363V14.6192C282.16 13.3432 282.487 12.3862 283.141 11.7481C283.83 11.0765 284.812 10.7407 286.086 10.7407C287.326 10.7407 288.273 11.0765 288.928 11.7481C289.616 12.3862 289.961 13.3432 289.961 14.6192V37.0341C289.961 38.4108 290.253 39.435 290.839 40.1066C291.459 40.7447 292.268 41.0637 293.267 41.0637C293.543 41.0637 293.801 41.0469 294.042 41.0133C294.283 40.9797 294.541 40.9629 294.817 40.9629C295.368 40.8958 295.747 41.0637 295.953 41.4667C296.195 41.836 296.315 42.5916 296.315 43.7333C296.315 44.7407 296.108 45.5131 295.695 46.0504C295.282 46.5541 294.645 46.8899 293.784 47.0578C293.439 47.0913 293.043 47.1249 292.595 47.1585C292.148 47.2257 291.717 47.2592 291.304 47.2592Z" fill="#FF7020"/>
<path d="M1.37211 1.58261C1.04541 1.7647 0.614181 2.15489 0.39203 2.45403L0 3.01331V9.98472V16.9691L0.339759 17.8406C1.56812 20.9751 4.20779 23.0561 7.38323 23.3813L8.23263 23.4723L8.29797 39.21L8.36331 54.9477L8.6508 55.416C8.82068 55.6761 9.19964 56.0533 9.5002 56.2614C9.9837 56.5995 10.1536 56.6385 11.0422 56.6385C11.9177 56.6385 12.1007 56.5995 12.558 56.2874C12.8325 56.0923 13.2114 55.7151 13.3944 55.442L13.7211 54.9607L13.7864 39.223L13.8517 23.4723L14.7011 23.3813C17.955 23.0561 20.8037 20.728 21.7969 17.6195C22.0844 16.722 22.0844 16.5789 22.0844 9.86766V3.02631L21.7315 2.51907C21.1566 1.71267 20.5554 1.3745 19.5492 1.32248C18.4777 1.27045 17.7067 1.62163 17.1186 2.45403L16.7266 3.01331L16.6613 6.2779L16.5959 9.55551H15.2238H13.8517L13.7864 6.29091C13.7211 3.07834 13.7211 3.02631 13.3944 2.55808C12.8455 1.73868 12.1791 1.3745 11.1859 1.32248C10.1144 1.27045 9.34338 1.62163 8.75534 2.45403L8.36331 3.01331L8.29797 6.2779L8.23263 9.55551H6.86053H5.48842L5.42308 6.29091L5.35774 3.02631L5.00492 2.51907C4.42994 1.71267 3.82883 1.3745 2.82262 1.32248C2.10389 1.28346 1.85561 1.33549 1.37211 1.58261ZM16.5306 15.4734C16.5306 16.2668 15.8903 17.1382 14.9625 17.6325C14.5443 17.8536 14.1784 17.8796 11.0422 17.8796C7.74913 17.8796 7.55311 17.8666 7.05654 17.5934C6.16794 17.1252 5.55376 16.2538 5.55376 15.4734V15.0832H11.0422H16.5306V15.4734Z" fill="#FF7020"/>
<path d="M28.4616 1.58261C28.1349 1.7647 27.7037 2.15489 27.4815 2.45403L27.0895 3.01331L27.0242 17.5154L26.9588 32.0175L25.8611 32.3427C23.1169 33.123 21.0653 34.7618 19.9153 37.064C18.9091 39.106 18.7393 39.9514 18.7393 42.9168C18.7393 45.0889 18.7785 45.6092 19.0137 46.5586C20.2943 51.5921 23.13 55.0258 27.0895 56.3394C27.8605 56.5865 28.2787 56.6385 29.7684 56.6385C31.2581 56.6385 31.6763 56.5865 32.4472 56.3394C36.4068 55.0258 39.2424 51.5921 40.5231 46.5586C40.7583 45.6092 40.7975 45.0889 40.7975 42.9168C40.7975 40.7318 40.7583 40.2375 40.51 39.3401C39.5299 35.7373 37.1908 33.3442 33.6756 32.3427L32.5779 32.0175L32.5126 17.5284L32.4472 3.02631L32.0944 2.51907C31.5194 1.71267 30.9183 1.37451 29.9121 1.32248C29.1934 1.28346 28.9451 1.33549 28.4616 1.58261ZM32.3427 37.7143C33.8063 38.2085 34.7602 39.3401 35.1261 40.9789C35.3744 42.1104 35.2307 44.9458 34.8648 46.1034C34.1852 48.2364 32.8915 50.0313 31.4933 50.7337C30.6178 51.1759 28.932 51.1889 28.0696 50.7467C26.5799 49.9793 25.3776 48.3145 24.6458 46.0384C24.3845 45.1799 24.3453 44.8028 24.3453 42.9168C24.3453 40.8228 24.3584 40.7578 24.7243 39.9514C25.3776 38.5467 26.7105 37.6363 28.4616 37.4021C28.4616 37.4021 31.5325 37.4542 32.3427 37.7143Z" fill="#FF7020"/>
<path d="M53.6568 1.53058C51.9841 2.40201 49.3967 4.76917 47.8025 6.86319C43.8299 12.1308 41.5169 19.5704 40.9811 28.87C40.7851 32.2776 40.8766 32.7849 41.7783 33.6823C42.6538 34.5537 42.889 34.5928 47.8547 34.5928H52.1148V44.6467V54.7136L52.4153 55.2599C52.5722 55.572 52.9642 56.0012 53.2778 56.2354C53.7874 56.5995 53.9181 56.6385 54.8459 56.6385C55.7345 56.6385 55.9175 56.5995 56.3748 56.2874C56.6493 56.0923 57.0282 55.7151 57.2112 55.442L57.5379 54.9607V29V3.02631L57.185 2.51907C56.6101 1.69967 56.009 1.3745 55.0027 1.32248C54.3494 1.29647 54.0227 1.33549 53.6568 1.53058ZM52.1148 19.7655V29H49.3444H46.5872L46.6786 27.6604C46.9139 24.0836 47.7894 19.7655 48.9263 16.5789C49.6842 14.4719 51.7228 10.531 52.0494 10.531C52.0887 10.531 52.1148 14.68 52.1148 19.7655Z" fill="#FF7020"/>
</svg>
