<svg width="153" height="34" viewBox="0 0 153 34" fill="none" xmlns="http://www.w3.org/2000/svg">
<path d="M7.60065 25.7274C6.94627 25.7274 6.44688 25.5511 6.10247 25.1985C5.75807 24.8459 5.58586 24.3422 5.58586 23.6874V16.3837L6.41244 18.6252L0.316425 10.1882C0.0753392 9.83556 -0.0279831 9.45778 0.00645765 9.05482C0.0408984 8.63507 0.213102 8.27408 0.523069 7.97186C0.833036 7.66964 1.27216 7.51852 1.84043 7.51852C2.25372 7.51852 2.62396 7.61927 2.95114 7.82075C3.29555 8.02223 3.62274 8.34124 3.93271 8.77778L8.0656 14.5956H7.23902L11.3719 8.77778C11.6991 8.32445 12.0177 8.00544 12.3276 7.82075C12.6548 7.61927 13.0337 7.51852 13.4642 7.51852C14.0152 7.51852 14.4458 7.66124 14.7557 7.94667C15.0657 8.21531 15.2293 8.55951 15.2465 8.97927C15.2637 9.38223 15.1173 9.80198 14.8074 10.2385L8.78885 18.6252L9.5896 16.3837V23.6874C9.5896 25.0474 8.92662 25.7274 7.60065 25.7274Z" fill="white"/>
<path d="M21.1332 25.7778C19.7728 25.7778 18.5846 25.5175 17.5686 24.997C16.5698 24.4766 15.7949 23.7294 15.2439 22.7556C14.6928 21.7817 14.4173 20.6316 14.4173 19.3052C14.4173 18.3146 14.5723 17.4247 14.8822 16.6356C15.1922 15.8464 15.6399 15.1748 16.2254 14.6207C16.8281 14.0499 17.5428 13.6217 18.3694 13.3363C19.196 13.0341 20.1172 12.883 21.1332 12.883C22.4937 12.883 23.6733 13.1432 24.672 13.6637C25.688 14.1842 26.4716 14.923 27.0226 15.88C27.5909 16.837 27.875 17.9788 27.875 19.3052C27.875 20.3126 27.7114 21.2109 27.3842 22C27.0743 22.7891 26.6266 23.4691 26.0411 24.04C25.4556 24.6109 24.7409 25.0474 23.8971 25.3496C23.0705 25.6351 22.1493 25.7778 21.1332 25.7778ZM21.1332 22.9319C21.7015 22.9319 22.1923 22.7975 22.6056 22.5289C23.0189 22.2603 23.3461 21.8657 23.5872 21.3452C23.8282 20.8079 23.9488 20.1279 23.9488 19.3052C23.9488 18.0795 23.6905 17.1812 23.1739 16.6104C22.6573 16.0227 21.977 15.7289 21.1332 15.7289C20.5822 15.7289 20.0914 15.8548 19.6609 16.1067C19.2476 16.3585 18.9204 16.7531 18.6793 17.2904C18.4555 17.8109 18.3435 18.4825 18.3435 19.3052C18.3435 20.5309 18.6019 21.4459 19.1185 22.0504C19.6351 22.638 20.3067 22.9319 21.1332 22.9319Z" fill="white"/>
<path d="M34.9233 25.7778C33.8557 25.7778 32.9688 25.5847 32.2628 25.1985C31.5568 24.8124 31.0315 24.2331 30.6871 23.4607C30.3599 22.6716 30.1963 21.6978 30.1963 20.5393V14.8474C30.1963 14.2094 30.3599 13.7309 30.6871 13.4119C31.0315 13.0928 31.5137 12.9333 32.1336 12.9333C32.7536 12.9333 33.2357 13.0928 33.5802 13.4119C33.9246 13.7309 34.0968 14.2094 34.0968 14.8474V20.64C34.0968 21.3788 34.2518 21.9328 34.5617 22.3022C34.8717 22.6548 35.3625 22.8311 36.0341 22.8311C36.7745 22.8311 37.3773 22.5793 37.8422 22.0756C38.3244 21.5551 38.5655 20.8751 38.5655 20.0356V14.8474C38.5655 14.2094 38.729 13.7309 39.0562 13.4119C39.4006 13.0928 39.8828 12.9333 40.5028 12.9333C41.1399 12.9333 41.6221 13.0928 41.9493 13.4119C42.2937 13.7309 42.4659 14.2094 42.4659 14.8474V23.7882C42.4659 25.081 41.8373 25.7274 40.5802 25.7274C39.9603 25.7274 39.4867 25.5595 39.1596 25.2237C38.8324 24.8879 38.6688 24.4094 38.6688 23.7882V22.1007L39.0562 23.083C38.6774 23.9393 38.1349 24.6025 37.4289 25.0726C36.7229 25.5427 35.8877 25.7778 34.9233 25.7778Z" fill="white"/>
<path d="M47.4988 25.7274C46.8444 25.7274 46.345 25.5595 46.0006 25.2237C45.6562 24.8879 45.484 24.4094 45.484 23.7882V14.8474C45.484 14.2262 45.6476 13.7561 45.9748 13.437C46.3192 13.1012 46.7928 12.9333 47.3955 12.9333C48.0154 12.9333 48.489 13.1012 48.8162 13.437C49.1433 13.7561 49.3069 14.2262 49.3069 14.8474V16.157H49.0486C49.2553 15.1496 49.7116 14.3689 50.4177 13.8148C51.1237 13.2607 52.0364 12.9501 53.1557 12.883C53.5862 12.8494 53.9134 12.9585 54.1373 13.2104C54.3783 13.4454 54.5075 13.84 54.5247 14.3941C54.5592 14.9146 54.4472 15.3259 54.1889 15.6282C53.9478 15.9304 53.5345 16.1151 52.9491 16.1822L52.3549 16.2326C51.3734 16.3166 50.6415 16.5936 50.1593 17.0637C49.6944 17.5338 49.4619 18.2138 49.4619 19.1037V23.7882C49.4619 24.4094 49.2897 24.8879 48.9453 25.2237C48.6181 25.5595 48.136 25.7274 47.4988 25.7274Z" fill="white"/>
<path d="M58.3246 25.7274C57.7391 25.7274 57.2914 25.5679 56.9814 25.2489C56.6715 24.9299 56.5165 24.4849 56.5165 23.9141V9.33186C56.5165 8.76099 56.6801 8.31605 57.0073 7.99704C57.3517 7.67803 57.8166 7.51852 58.4021 7.51852C58.9187 7.51852 59.3234 7.61927 59.6162 7.82075C59.9261 8.00544 60.2103 8.33285 60.4686 8.80297L66.4354 19.4311H65.5572L71.5241 8.80297C71.7824 8.33285 72.0579 8.00544 72.3506 7.82075C72.6606 7.61927 73.0653 7.51852 73.5647 7.51852C74.1502 7.51852 74.5979 7.67803 74.9079 7.99704C75.2351 8.31605 75.3986 8.76099 75.3986 9.33186V23.9141C75.3986 24.4849 75.2437 24.9299 74.9337 25.2489C74.6237 25.5679 74.176 25.7274 73.5905 25.7274C73.005 25.7274 72.5487 25.5679 72.2215 25.2489C71.9115 24.9299 71.7565 24.4849 71.7565 23.9141V13.7141H72.3248L67.5203 22.1007C67.3137 22.4198 67.0898 22.6632 66.8487 22.8311C66.6249 22.9822 66.3235 23.0578 65.9447 23.0578C65.5658 23.0578 65.2558 22.9738 65.0148 22.8059C64.7737 22.638 64.5584 22.403 64.369 22.1007L59.5128 13.6889H60.1328V23.9141C60.1328 24.4849 59.9778 24.9299 59.6678 25.2489C59.3751 25.5679 58.9273 25.7274 58.3246 25.7274Z" fill="white"/>
<path d="M85.3428 25.7778C83.8446 25.7778 82.5531 25.5175 81.4682 24.997C80.4006 24.4598 79.574 23.7126 78.9885 22.7556C78.4202 21.7817 78.1361 20.64 78.1361 19.3304C78.1361 18.0543 78.4116 16.9378 78.9627 15.9807C79.5137 15.0069 80.28 14.2514 81.2616 13.7141C82.2604 13.16 83.3883 12.883 84.6454 12.883C85.5581 12.883 86.3846 13.0341 87.1251 13.3363C87.8656 13.6217 88.5028 14.0415 89.0366 14.5956C89.5704 15.1328 89.9751 15.7961 90.2506 16.5852C90.5261 17.3575 90.6639 18.2222 90.6639 19.1793C90.6639 19.4983 90.5606 19.7417 90.3539 19.9096C90.1473 20.0607 89.8459 20.1363 89.4499 20.1363H81.3391V18.1719H87.8484L87.4351 18.5245C87.4351 17.8361 87.3318 17.2652 87.1251 16.8119C86.9185 16.3417 86.6171 15.9891 86.2211 15.7541C85.8422 15.519 85.3686 15.4015 84.8004 15.4015C84.1632 15.4015 83.6208 15.5442 83.173 15.8296C82.7253 16.1151 82.3809 16.5264 82.1398 17.0637C81.8987 17.601 81.7782 18.2474 81.7782 19.003V19.2045C81.7782 20.4805 82.0796 21.4207 82.6823 22.0252C83.3022 22.6296 84.2149 22.9319 85.4203 22.9319C85.8336 22.9319 86.3072 22.8815 86.841 22.7807C87.3748 22.68 87.8742 22.5205 88.3392 22.3022C88.7352 22.1175 89.0882 22.0588 89.3982 22.1259C89.7082 22.1763 89.9493 22.3106 90.1215 22.5289C90.2937 22.7472 90.3884 22.999 90.4056 23.2845C90.44 23.5699 90.3798 23.8553 90.2248 24.1407C90.0698 24.4094 89.8115 24.6361 89.4499 24.8207C88.8644 25.1398 88.2014 25.3748 87.4609 25.5259C86.7377 25.6938 86.0316 25.7778 85.3428 25.7778Z" fill="white"/>
<path d="M97.2204 25.7778C96.2905 25.7778 95.4553 25.6015 94.7149 25.2489C93.9744 24.8963 93.3975 24.4178 92.9842 23.8133C92.5709 23.2089 92.3643 22.5289 92.3643 21.7733C92.3643 20.8667 92.6054 20.1531 93.0875 19.6326C93.5697 19.0953 94.3532 18.7175 95.4381 18.4993C96.523 18.2642 97.9609 18.1467 99.7518 18.1467H101.121V20.1111H99.7777C98.8994 20.1111 98.1848 20.1615 97.6337 20.2622C97.0999 20.3462 96.7124 20.4973 96.4714 20.7156C96.2475 20.9338 96.1356 21.2361 96.1356 21.6222C96.1356 22.0924 96.2991 22.4785 96.6263 22.7807C96.9707 23.083 97.4615 23.2341 98.0987 23.2341C98.5981 23.2341 99.0372 23.1249 99.416 22.9067C99.8121 22.6716 100.122 22.361 100.346 21.9748C100.57 21.5719 100.682 21.1185 100.682 20.6148V17.7185C100.682 16.9798 100.51 16.4593 100.165 16.157C99.8207 15.838 99.2352 15.6785 98.4086 15.6785C97.9437 15.6785 97.4357 15.7373 96.8846 15.8548C96.3508 15.9556 95.7567 16.1319 95.1023 16.3837C94.7235 16.5516 94.3877 16.5936 94.0949 16.5096C93.8022 16.4089 93.5783 16.241 93.4233 16.0059C93.2684 15.7541 93.1909 15.4854 93.1909 15.2C93.1909 14.8978 93.277 14.6124 93.4492 14.3437C93.6214 14.0583 93.9055 13.8484 94.3016 13.7141C95.1109 13.3951 95.8686 13.1768 96.5747 13.0593C97.2979 12.9417 97.9609 12.883 98.5636 12.883C99.8896 12.883 100.974 13.0761 101.818 13.4622C102.679 13.8316 103.325 14.4109 103.756 15.2C104.186 15.9724 104.401 16.9714 104.401 18.197V23.7882C104.401 24.4094 104.246 24.8879 103.936 25.2237C103.626 25.5595 103.179 25.7274 102.593 25.7274C102.008 25.7274 101.551 25.5595 101.224 25.2237C100.914 24.8879 100.759 24.4094 100.759 23.7882V22.8563L100.94 23.0074C100.837 23.5783 100.613 24.0736 100.268 24.4933C99.9413 24.8963 99.5194 25.2153 99.0027 25.4504C98.4861 25.6686 97.892 25.7778 97.2204 25.7778Z" fill="white"/>
<path d="M111.883 25.7778C110.35 25.7778 109.205 25.3664 108.447 24.5437C107.69 23.7042 107.311 22.4617 107.311 20.8163V9.45778C107.311 8.81976 107.475 8.34124 107.802 8.02223C108.146 7.68643 108.637 7.51852 109.274 7.51852C109.894 7.51852 110.368 7.68643 110.695 8.02223C111.039 8.34124 111.211 8.81976 111.211 9.45778V20.6652C111.211 21.3536 111.358 21.8657 111.65 22.2015C111.96 22.5205 112.365 22.68 112.864 22.68C113.002 22.68 113.131 22.6716 113.252 22.6548C113.372 22.638 113.502 22.6296 113.639 22.6296C113.915 22.5961 114.104 22.68 114.208 22.8815C114.328 23.0662 114.388 23.444 114.388 24.0148C114.388 24.5185 114.285 24.9047 114.079 25.1733C113.872 25.4252 113.553 25.5931 113.123 25.677C112.951 25.6938 112.753 25.7106 112.529 25.7274C112.305 25.761 112.09 25.7778 111.883 25.7778Z" fill="white"/>
<path d="M122.233 2.93944C122.07 3.03048 121.854 3.22558 121.743 3.37515L121.547 3.65479V7.14049V10.6327L121.717 11.0684C122.331 12.6357 123.651 13.6762 125.238 13.8388L125.663 13.8843L125.696 21.7531L125.729 29.622L125.872 29.8561C125.957 29.9862 126.147 30.1748 126.297 30.2788C126.539 30.4479 126.624 30.4674 127.068 30.4674C127.506 30.4674 127.597 30.4479 127.826 30.2918C127.963 30.1943 128.153 30.0057 128.244 29.8691L128.407 29.6285L128.44 21.7596L128.473 13.8843L128.897 13.8388C130.524 13.6762 131.949 12.5121 132.445 10.9579C132.589 10.5091 132.589 10.4376 132.589 7.08196V3.66129L132.413 3.40767C132.125 3.00447 131.825 2.83538 131.321 2.80937C130.786 2.78336 130.4 2.95895 130.106 3.37515L129.91 3.65479L129.878 5.28708L129.845 6.92589H129.159H128.473L128.44 5.29359C128.407 3.6873 128.407 3.66129 128.244 3.42717C127.97 3.01747 127.636 2.83538 127.14 2.80937C126.604 2.78336 126.219 2.95895 125.925 3.37515L125.729 3.65479L125.696 5.28708L125.663 6.92589H124.977H124.291L124.258 5.29359L124.226 3.66129L124.049 3.40767C123.762 3.00447 123.461 2.83538 122.958 2.80937C122.599 2.78986 122.475 2.81588 122.233 2.93944ZM129.812 9.88483C129.812 10.2815 129.492 10.7172 129.028 10.9644C128.819 11.0749 128.636 11.0879 127.068 11.0879C125.421 11.0879 125.323 11.0814 125.075 10.9449C124.631 10.7107 124.324 10.275 124.324 9.88483V9.68974H127.068H129.812V9.88483Z" fill="white"/>
<path d="M135.777 2.93944C135.614 3.03048 135.398 3.22558 135.287 3.37515L135.091 3.65479L135.058 10.9058L135.026 18.1569L134.477 18.3195C133.105 18.7097 132.079 19.5291 131.504 20.6801C131.001 21.7011 130.916 22.1238 130.916 23.6065C130.916 24.6926 130.936 24.9527 131.053 25.4274C131.694 27.9442 133.111 29.661 135.091 30.3178C135.477 30.4414 135.686 30.4674 136.431 30.4674C137.175 30.4674 137.385 30.4414 137.77 30.3178C139.75 29.661 141.168 27.9442 141.808 25.4274C141.926 24.9527 141.945 24.6926 141.945 23.6065C141.945 22.514 141.926 22.2669 141.801 21.8182C141.311 20.0168 140.142 18.8202 138.384 18.3195L137.835 18.1569L137.803 10.9123L137.77 3.66129L137.594 3.40767C137.306 3.00447 137.006 2.83539 136.502 2.80937C136.143 2.78986 136.019 2.81588 135.777 2.93944ZM137.718 21.0053C138.45 21.2524 138.926 21.8182 139.109 22.6376C139.234 23.2034 139.162 24.621 138.979 25.1998C138.639 26.2664 137.992 27.1638 137.293 27.515C136.855 27.7361 136.012 27.7426 135.581 27.5215C134.836 27.1378 134.235 26.3054 133.869 25.1673C133.739 24.7381 133.719 24.5495 133.719 23.6065C133.719 22.5595 133.726 22.527 133.909 22.1238C134.235 21.4215 134.902 20.9663 135.777 20.8492C135.777 20.8492 137.313 20.8752 137.718 21.0053Z" fill="white"/>
<path d="M148.375 2.91342C147.538 3.34914 146.245 4.53271 145.448 5.57973C143.461 8.21352 142.305 11.9333 142.037 16.5831C141.939 18.2869 141.985 18.5406 142.436 18.9893C142.873 19.425 142.991 19.4445 145.474 19.4445H147.604V24.4715V29.5049L147.754 29.7781C147.832 29.9341 148.028 30.1488 148.185 30.2658C148.44 30.4479 148.505 30.4674 148.969 30.4674C149.414 30.4674 149.505 30.4479 149.734 30.2918C149.871 30.1943 150.061 30.0057 150.152 29.8691L150.315 29.6285V16.6481V3.66129L150.139 3.40767C149.851 2.99796 149.551 2.83538 149.048 2.80937C148.721 2.79637 148.558 2.81588 148.375 2.91342ZM147.604 12.0309V16.6481H146.219H144.84L144.886 15.9783C145.003 14.1899 145.441 12.0309 146.01 10.4376C146.388 9.38409 147.408 7.41363 147.571 7.41363C147.591 7.41363 147.604 9.48814 147.604 12.0309Z" fill="white"/>
</svg>
