<svg>
  <symbol id="logo" width="199" height="44" viewBox="0 0 199 44" fill="none" xmlns="http://www.w3.org/2000/svg">
    <path d="M9.93151 33.8969C9.07646 33.8969 8.42393 33.6659 7.9739 33.2039C7.52387 32.7419 7.29886 32.0818 7.29886 31.2238V21.6534L8.37892 24.5906L0.413461 13.5351C0.0984432 13.0731 -0.0365646 12.5781 0.00843799 12.0501C0.0534406 11.5 0.278454 11.027 0.683477 10.631C1.0885 10.235 1.66228 10.037 2.40483 10.037C2.94486 10.037 3.42864 10.169 3.85616 10.433C4.30619 10.697 4.73371 11.115 5.13874 11.6871L10.539 19.3103H9.45899L14.8593 11.6871C15.2868 11.093 15.7031 10.675 16.1081 10.433C16.5356 10.169 17.0307 10.037 17.5932 10.037C18.3132 10.037 18.8758 10.224 19.2808 10.598C19.6858 10.95 19.8996 11.401 19.9221 11.9511C19.9446 12.4791 19.7533 13.0291 19.3483 13.6011L11.4841 24.5906L12.5304 21.6534V31.2238C12.5304 33.0059 11.6641 33.8969 9.93151 33.8969Z" fill="currentColor"/>
    <path d="M27.6141 33.9629C25.8365 33.9629 24.2839 33.6219 22.9563 32.9399C21.6513 32.2578 20.6387 31.2788 19.9187 30.0028C19.1986 28.7267 18.8386 27.2197 18.8386 25.4816C18.8386 24.1835 19.0411 23.0175 19.4461 21.9834C19.8512 20.9494 20.4362 20.0694 21.2012 19.3433C21.9888 18.5953 22.9226 18.0343 24.0027 17.6603C25.0827 17.2643 26.2865 17.0663 27.6141 17.0663C29.3917 17.0663 30.9331 17.4073 32.2381 18.0893C33.5657 18.7713 34.5895 19.7394 35.3096 20.9934C36.0521 22.2475 36.4234 23.7435 36.4234 25.4816C36.4234 26.8016 36.2096 27.9787 35.7821 29.0127C35.3771 30.0468 34.792 30.9378 34.027 31.6858C33.2619 32.4339 32.3281 33.0059 31.2256 33.4019C30.1455 33.7759 28.9417 33.9629 27.6141 33.9629ZM27.6141 30.2338C28.3567 30.2338 28.9979 30.0578 29.538 29.7057C30.078 29.3537 30.5055 28.8367 30.8205 28.1547C31.1356 27.4507 31.2931 26.5596 31.2931 25.4816C31.2931 23.8755 30.9556 22.6985 30.2805 21.9504C29.6055 21.1804 28.7167 20.7954 27.6141 20.7954C26.8941 20.7954 26.2528 20.9604 25.6902 21.2904C25.1502 21.6204 24.7227 22.1375 24.4077 22.8415C24.1152 23.5235 23.9689 24.4035 23.9689 25.4816C23.9689 27.0877 24.3064 28.2867 24.9815 29.0787C25.6565 29.8488 26.534 30.2338 27.6141 30.2338Z" fill="currentColor"/>
    <path d="M45.6332 33.9629C44.2381 33.9629 43.0793 33.7099 42.1567 33.2039C41.2342 32.6979 40.5479 31.9388 40.0978 30.9268C39.6703 29.8928 39.4566 28.6167 39.4566 27.0986V19.6404C39.4566 18.8043 39.6703 18.1773 40.0978 17.7593C40.5479 17.3413 41.1779 17.1323 41.988 17.1323C42.798 17.1323 43.428 17.3413 43.8781 17.7593C44.3281 18.1773 44.5531 18.8043 44.5531 19.6404V27.2307C44.5531 28.1987 44.7556 28.9247 45.1606 29.4087C45.5657 29.8708 46.207 30.1018 47.0845 30.1018C48.0521 30.1018 48.8396 29.7718 49.4471 29.1117C50.0772 28.4297 50.3922 27.5387 50.3922 26.4386V19.6404C50.3922 18.8043 50.606 18.1773 51.0335 17.7593C51.4835 17.3413 52.1135 17.1323 52.9236 17.1323C53.7561 17.1323 54.3862 17.3413 54.8137 17.7593C55.2637 18.1773 55.4887 18.8043 55.4887 19.6404V31.3558C55.4887 33.0499 54.6674 33.8969 53.0248 33.8969C52.2148 33.8969 51.596 33.6769 51.1685 33.2369C50.741 32.7969 50.5272 32.1698 50.5272 31.3558V29.1447L51.0335 30.4318C50.5385 31.5538 49.8297 32.4229 48.9071 33.0389C47.9846 33.6549 46.8932 33.9629 45.6332 33.9629Z" fill="currentColor"/>
    <path d="M62.0651 33.8969C61.21 33.8969 60.5575 33.6769 60.1075 33.2369C59.6575 32.7969 59.4324 32.1698 59.4324 31.3558V19.6404C59.4324 18.8263 59.6462 18.2103 60.0737 17.7923C60.5238 17.3523 61.1425 17.1323 61.9301 17.1323C62.7401 17.1323 63.3589 17.3523 63.7864 17.7923C64.214 18.2103 64.4277 18.8263 64.4277 19.6404V21.3564H64.0902C64.3602 20.0364 64.9565 19.0133 65.8791 18.2873C66.8016 17.5613 67.9942 17.1543 69.4568 17.0663C70.0193 17.0223 70.4468 17.1653 70.7393 17.4953C71.0544 17.8033 71.2231 18.3203 71.2456 19.0463C71.2906 19.7284 71.1444 20.2674 70.8069 20.6634C70.4918 21.0594 69.9518 21.3014 69.1868 21.3894L68.4105 21.4554C67.1279 21.5654 66.1716 21.9284 65.5415 22.5445C64.934 23.1605 64.6302 24.0515 64.6302 25.2176V31.3558C64.6302 32.1698 64.4052 32.7969 63.9552 33.2369C63.5277 33.6769 62.8976 33.8969 62.0651 33.8969Z" fill="currentColor"/>
    <path d="M76.2109 33.8969C75.4458 33.8969 74.8608 33.6879 74.4558 33.2699C74.0507 32.8519 73.8482 32.2689 73.8482 31.5208V12.4131C73.8482 11.665 74.062 11.082 74.4895 10.664C74.9395 10.246 75.5471 10.037 76.3121 10.037C76.9872 10.037 77.5159 10.169 77.8985 10.433C78.3035 10.675 78.6748 11.104 79.0123 11.7201L86.809 25.6466H85.6614L93.4581 11.7201C93.7956 11.104 94.1556 10.675 94.5382 10.433C94.9432 10.169 95.472 10.037 96.1245 10.037C96.8896 10.037 97.4746 10.246 97.8796 10.664C98.3071 11.082 98.5209 11.665 98.5209 12.4131V31.5208C98.5209 32.2689 98.3184 32.8519 97.9134 33.2699C97.5083 33.6879 96.9233 33.8969 96.1583 33.8969C95.3932 33.8969 94.7969 33.6879 94.3694 33.2699C93.9644 32.8519 93.7619 32.2689 93.7619 31.5208V18.1553H94.5044L88.2266 29.1447C87.9565 29.5627 87.664 29.8818 87.349 30.1018C87.0565 30.2998 86.6627 30.3988 86.1677 30.3988C85.6727 30.3988 85.2676 30.2888 84.9526 30.0688C84.6376 29.8488 84.3563 29.5407 84.1088 29.1447L77.7635 18.1223H78.5735V31.5208C78.5735 32.2689 78.371 32.8519 77.966 33.2699C77.5834 33.6879 76.9984 33.8969 76.2109 33.8969Z" fill="currentColor"/>
    <path d="M111.515 33.9629C109.557 33.9629 107.869 33.6219 106.452 32.9399C105.057 32.2358 103.977 31.2568 103.212 30.0028C102.469 28.7267 102.098 27.2307 102.098 25.5146C102.098 23.8425 102.458 22.3795 103.178 21.1254C103.898 19.8494 104.899 18.8593 106.182 18.1553C107.487 17.4293 108.961 17.0663 110.603 17.0663C111.796 17.0663 112.876 17.2643 113.843 17.6603C114.811 18.0343 115.644 18.5843 116.341 19.3103C117.039 20.0144 117.567 20.8834 117.927 21.9174C118.287 22.9295 118.468 24.0625 118.468 25.3166C118.468 25.7346 118.332 26.0536 118.062 26.2736C117.792 26.4716 117.399 26.5706 116.881 26.5706H106.283V23.9965H114.789L114.249 24.4585C114.249 23.5565 114.114 22.8085 113.843 22.2145C113.573 21.5984 113.18 21.1364 112.662 20.8284C112.167 20.5204 111.548 20.3664 110.806 20.3664C109.973 20.3664 109.264 20.5534 108.679 20.9274C108.094 21.3014 107.644 21.8404 107.329 22.5445C107.014 23.2485 106.857 24.0955 106.857 25.0856V25.3496C106.857 27.0216 107.251 28.2537 108.038 29.0457C108.848 29.8378 110.041 30.2338 111.616 30.2338C112.156 30.2338 112.775 30.1678 113.472 30.0358C114.17 29.9038 114.822 29.6947 115.43 29.4087C115.947 29.1667 116.409 29.0897 116.814 29.1777C117.219 29.2437 117.534 29.4197 117.759 29.7057C117.984 29.9918 118.107 30.3218 118.13 30.6958C118.175 31.0698 118.096 31.4438 117.894 31.8178C117.691 32.1698 117.354 32.4669 116.881 32.7089C116.116 33.1269 115.25 33.4349 114.282 33.6329C113.337 33.8529 112.415 33.9629 111.515 33.9629Z" fill="currentColor"/>
    <path d="M127.035 33.9629C125.82 33.9629 124.728 33.7319 123.761 33.2699C122.793 32.8079 122.039 32.1808 121.499 31.3888C120.959 30.5968 120.689 29.7057 120.689 28.7157C120.689 27.5277 121.004 26.5926 121.634 25.9106C122.264 25.2066 123.288 24.7116 124.706 24.4255C126.123 24.1175 128.002 23.9635 130.342 23.9635H132.131V26.5376H130.376C129.229 26.5376 128.295 26.6036 127.575 26.7356C126.877 26.8456 126.371 27.0436 126.056 27.3297C125.763 27.6157 125.617 28.0117 125.617 28.5177C125.617 29.1337 125.831 29.6397 126.258 30.0358C126.708 30.4318 127.35 30.6298 128.182 30.6298C128.835 30.6298 129.409 30.4868 129.904 30.2008C130.421 29.8928 130.826 29.4857 131.119 28.9797C131.411 28.4517 131.557 27.8577 131.557 27.1977V23.4025C131.557 22.4345 131.332 21.7524 130.882 21.3564C130.432 20.9384 129.667 20.7294 128.587 20.7294C127.98 20.7294 127.316 20.8064 126.596 20.9604C125.898 21.0924 125.122 21.3234 124.267 21.6534C123.772 21.8734 123.333 21.9284 122.951 21.8184C122.568 21.6864 122.276 21.4664 122.073 21.1584C121.871 20.8284 121.769 20.4764 121.769 20.1024C121.769 19.7064 121.882 19.3323 122.107 18.9803C122.332 18.6063 122.703 18.3313 123.221 18.1553C124.278 17.7373 125.268 17.4513 126.191 17.2973C127.136 17.1433 128.002 17.0663 128.79 17.0663C130.522 17.0663 131.94 17.3193 133.043 17.8253C134.168 18.3093 135.011 19.0683 135.574 20.1024C136.136 21.1144 136.418 22.4235 136.418 24.0295V31.3558C136.418 32.1698 136.215 32.7969 135.81 33.2369C135.405 33.6769 134.82 33.8969 134.055 33.8969C133.29 33.8969 132.694 33.6769 132.266 33.2369C131.861 32.7969 131.659 32.1698 131.659 31.3558V30.1348L131.895 30.3328C131.76 31.0808 131.467 31.7298 131.017 32.2798C130.59 32.8079 130.039 33.2259 129.364 33.5339C128.689 33.8199 127.912 33.9629 127.035 33.9629Z" fill="currentColor"/>
    <path d="M146.194 33.9629C144.191 33.9629 142.695 33.4239 141.705 32.3459C140.715 31.2458 140.22 29.6177 140.22 27.4617V12.5781C140.22 11.7421 140.433 11.115 140.861 10.697C141.311 10.257 141.952 10.037 142.785 10.037C143.595 10.037 144.214 10.257 144.641 10.697C145.091 11.115 145.316 11.7421 145.316 12.5781V27.2637C145.316 28.1657 145.507 28.8367 145.89 29.2767C146.295 29.6947 146.824 29.9038 147.476 29.9038C147.656 29.9038 147.825 29.8928 147.983 29.8708C148.14 29.8488 148.309 29.8378 148.489 29.8378C148.849 29.7938 149.096 29.9038 149.231 30.1678C149.389 30.4098 149.468 30.9048 149.468 31.6528C149.468 32.3129 149.333 32.8189 149.063 33.1709C148.793 33.5009 148.376 33.7209 147.814 33.8309C147.589 33.8529 147.33 33.8749 147.037 33.8969C146.745 33.9409 146.464 33.9629 146.194 33.9629Z" fill="currentColor"/>
    <path d="M159.717 4.0369C159.503 4.1562 159.222 4.41184 159.076 4.60783L158.82 4.97425V9.54173V14.1177L159.042 14.6887C159.845 16.7423 161.569 18.1057 163.644 18.3188L164.199 18.3784L164.242 28.6893L164.284 39.0002L164.472 39.307C164.583 39.4774 164.831 39.7246 165.027 39.8609C165.343 40.0825 165.454 40.108 166.035 40.108C166.607 40.108 166.726 40.0825 167.025 39.878C167.204 39.7501 167.452 39.503 167.571 39.3241L167.785 39.0088L167.827 28.6979L167.87 18.3784L168.425 18.3188C170.551 18.1057 172.412 16.5804 173.061 14.5438C173.249 13.9558 173.249 13.8621 173.249 9.46504V4.98277L173.018 4.65044C172.643 4.12211 172.25 3.90055 171.592 3.86647C170.892 3.83238 170.389 4.06246 170.004 4.60783L169.748 4.97425L169.706 7.11312L169.663 9.26052H168.767H167.87L167.827 7.12165C167.785 5.01686 167.785 4.98277 167.571 4.676C167.213 4.13915 166.777 3.90055 166.128 3.86647C165.428 3.83238 164.925 4.06246 164.54 4.60783L164.284 4.97425L164.242 7.11312L164.199 9.26052H163.303H162.406L162.363 7.12165L162.321 4.98277L162.09 4.65044C161.715 4.12211 161.322 3.90055 160.664 3.86647C160.195 3.8409 160.033 3.87499 159.717 4.0369ZM169.62 13.1378C169.62 13.6576 169.202 14.2285 168.596 14.5523C168.323 14.6972 168.084 14.7142 166.035 14.7142C163.883 14.7142 163.755 14.7057 163.431 14.5268C162.85 14.22 162.449 13.649 162.449 13.1378V12.8821H166.035H169.62V13.1378Z" fill="currentColor"/>
    <path d="M177.414 4.0369C177.201 4.1562 176.919 4.41184 176.774 4.60783L176.518 4.97426L176.475 14.4756L176.433 23.977L175.715 24.19C173.923 24.7013 172.582 25.775 171.831 27.2833C171.173 28.6212 171.062 29.1751 171.062 31.1179C171.062 32.541 171.088 32.8819 171.242 33.5039C172.078 36.8017 173.931 39.0514 176.518 39.912C177.022 40.0739 177.295 40.108 178.268 40.108C179.241 40.108 179.515 40.0739 180.018 39.912C182.605 39.0514 184.458 36.8017 185.295 33.5039C185.448 32.8819 185.474 32.541 185.474 31.1179C185.474 29.6863 185.448 29.3625 185.286 28.7746C184.646 26.4141 183.118 24.8462 180.821 24.19L180.104 23.977L180.061 14.4841L180.018 4.98278L179.788 4.65044C179.412 4.12212 179.019 3.90056 178.362 3.86647C177.893 3.84091 177.73 3.875 177.414 4.0369ZM179.95 27.7094C180.906 28.0332 181.53 28.7746 181.769 29.8483C181.931 30.5896 181.837 32.4473 181.598 33.2057C181.154 34.6032 180.309 35.7792 179.395 36.2393C178.823 36.529 177.722 36.5376 177.158 36.2478C176.185 35.7451 175.4 34.6543 174.921 33.1631C174.751 32.6007 174.725 32.3535 174.725 31.1179C174.725 29.746 174.734 29.7034 174.973 29.1751C175.4 28.2548 176.27 27.6583 177.414 27.5049C177.414 27.5049 179.421 27.539 179.95 27.7094Z" fill="currentColor"/>
    <path d="M193.876 4.00281C192.784 4.57375 191.093 6.12464 190.052 7.49659C187.456 10.9478 185.945 15.822 185.595 21.9148C185.467 24.1474 185.527 24.4798 186.116 25.0677C186.688 25.6387 186.841 25.6642 190.086 25.6642H192.869V32.2513V38.8469L193.065 39.2048C193.168 39.4093 193.424 39.6905 193.629 39.8439C193.962 40.0825 194.047 40.108 194.653 40.108C195.234 40.108 195.353 40.0825 195.652 39.878C195.832 39.7501 196.079 39.503 196.199 39.3241L196.412 39.0088V22V4.98277L196.182 4.65044C195.806 4.11359 195.413 3.90055 194.756 3.86647C194.329 3.84943 194.115 3.87499 193.876 4.00281ZM192.869 15.9498V22H191.059H189.258L189.317 21.1223C189.471 18.7789 190.043 15.9498 190.786 13.8621C191.281 12.4816 192.613 9.89963 192.826 9.89963C192.852 9.89963 192.869 12.618 192.869 15.9498Z" fill="currentColor"/>
  </symbol>
  <symbol id="orangeLogo" width="199" height="44" viewBox="0 0 199 44" fill="none" xmlns="http://www.w3.org/2000/svg">
    <path d="M9.93151 33.8969C9.07646 33.8969 8.42393 33.6659 7.9739 33.2039C7.52387 32.7419 7.29886 32.0818 7.29886 31.2238V21.6534L8.37892 24.5906L0.413461 13.5351C0.0984432 13.0731 -0.0365646 12.5781 0.00843799 12.0501C0.0534406 11.5 0.278454 11.027 0.683477 10.631C1.0885 10.235 1.66228 10.037 2.40483 10.037C2.94486 10.037 3.42864 10.169 3.85616 10.433C4.30619 10.697 4.73371 11.115 5.13874 11.6871L10.539 19.3103H9.45899L14.8593 11.6871C15.2868 11.093 15.7031 10.675 16.1081 10.433C16.5356 10.169 17.0307 10.037 17.5932 10.037C18.3132 10.037 18.8758 10.224 19.2808 10.598C19.6858 10.95 19.8996 11.401 19.9221 11.9511C19.9446 12.4791 19.7533 13.0291 19.3483 13.6011L11.4841 24.5906L12.5304 21.6534V31.2238C12.5304 33.0059 11.6641 33.8969 9.93151 33.8969Z" fill="#FF7020"/>
    <path d="M27.6141 33.9629C25.8365 33.9629 24.2839 33.6219 22.9563 32.9399C21.6513 32.2578 20.6387 31.2788 19.9187 30.0028C19.1986 28.7267 18.8386 27.2197 18.8386 25.4816C18.8386 24.1835 19.0411 23.0175 19.4461 21.9834C19.8512 20.9494 20.4362 20.0694 21.2012 19.3433C21.9888 18.5953 22.9226 18.0343 24.0027 17.6603C25.0827 17.2643 26.2865 17.0663 27.6141 17.0663C29.3917 17.0663 30.9331 17.4073 32.2381 18.0893C33.5657 18.7713 34.5895 19.7394 35.3096 20.9934C36.0521 22.2475 36.4234 23.7435 36.4234 25.4816C36.4234 26.8016 36.2096 27.9787 35.7821 29.0127C35.3771 30.0468 34.792 30.9378 34.027 31.6858C33.2619 32.4339 32.3281 33.0059 31.2256 33.4019C30.1455 33.7759 28.9417 33.9629 27.6141 33.9629ZM27.6141 30.2338C28.3567 30.2338 28.9979 30.0578 29.538 29.7057C30.078 29.3537 30.5055 28.8367 30.8205 28.1547C31.1356 27.4507 31.2931 26.5596 31.2931 25.4816C31.2931 23.8755 30.9556 22.6985 30.2805 21.9504C29.6055 21.1804 28.7167 20.7954 27.6141 20.7954C26.8941 20.7954 26.2528 20.9604 25.6902 21.2904C25.1502 21.6204 24.7227 22.1375 24.4077 22.8415C24.1152 23.5235 23.9689 24.4035 23.9689 25.4816C23.9689 27.0877 24.3064 28.2867 24.9815 29.0787C25.6565 29.8488 26.534 30.2338 27.6141 30.2338Z" fill="#FF7020"/>
    <path d="M45.6332 33.9629C44.2381 33.9629 43.0793 33.7099 42.1567 33.2039C41.2342 32.6979 40.5479 31.9388 40.0978 30.9268C39.6703 29.8928 39.4566 28.6167 39.4566 27.0986V19.6404C39.4566 18.8043 39.6703 18.1773 40.0978 17.7593C40.5479 17.3413 41.1779 17.1323 41.988 17.1323C42.798 17.1323 43.428 17.3413 43.8781 17.7593C44.3281 18.1773 44.5531 18.8043 44.5531 19.6404V27.2307C44.5531 28.1987 44.7556 28.9247 45.1606 29.4087C45.5657 29.8708 46.207 30.1018 47.0845 30.1018C48.0521 30.1018 48.8396 29.7718 49.4471 29.1117C50.0772 28.4297 50.3922 27.5387 50.3922 26.4386V19.6404C50.3922 18.8043 50.606 18.1773 51.0335 17.7593C51.4835 17.3413 52.1135 17.1323 52.9236 17.1323C53.7561 17.1323 54.3862 17.3413 54.8137 17.7593C55.2637 18.1773 55.4887 18.8043 55.4887 19.6404V31.3558C55.4887 33.0499 54.6674 33.8969 53.0248 33.8969C52.2148 33.8969 51.596 33.6769 51.1685 33.2369C50.741 32.7969 50.5272 32.1698 50.5272 31.3558V29.1447L51.0335 30.4318C50.5385 31.5538 49.8297 32.4229 48.9071 33.0389C47.9846 33.6549 46.8932 33.9629 45.6332 33.9629Z" fill="#FF7020"/>
    <path d="M62.0651 33.8969C61.21 33.8969 60.5575 33.6769 60.1075 33.2369C59.6575 32.7969 59.4324 32.1698 59.4324 31.3558V19.6404C59.4324 18.8263 59.6462 18.2103 60.0737 17.7923C60.5238 17.3523 61.1425 17.1323 61.9301 17.1323C62.7401 17.1323 63.3589 17.3523 63.7864 17.7923C64.214 18.2103 64.4277 18.8263 64.4277 19.6404V21.3564H64.0902C64.3602 20.0364 64.9565 19.0133 65.8791 18.2873C66.8016 17.5613 67.9942 17.1543 69.4568 17.0663C70.0193 17.0223 70.4468 17.1653 70.7393 17.4953C71.0544 17.8033 71.2231 18.3203 71.2456 19.0463C71.2906 19.7284 71.1444 20.2674 70.8069 20.6634C70.4918 21.0594 69.9518 21.3014 69.1868 21.3894L68.4105 21.4554C67.1279 21.5654 66.1716 21.9284 65.5415 22.5445C64.934 23.1605 64.6302 24.0515 64.6302 25.2176V31.3558C64.6302 32.1698 64.4052 32.7969 63.9552 33.2369C63.5277 33.6769 62.8976 33.8969 62.0651 33.8969Z" fill="#FF7020"/>
    <path d="M76.2109 33.8969C75.4458 33.8969 74.8608 33.6879 74.4558 33.2699C74.0507 32.8519 73.8482 32.2689 73.8482 31.5208V12.4131C73.8482 11.665 74.062 11.082 74.4895 10.664C74.9395 10.246 75.5471 10.037 76.3121 10.037C76.9872 10.037 77.5159 10.169 77.8985 10.433C78.3035 10.675 78.6748 11.104 79.0123 11.7201L86.809 25.6466H85.6614L93.4581 11.7201C93.7956 11.104 94.1556 10.675 94.5382 10.433C94.9432 10.169 95.472 10.037 96.1245 10.037C96.8896 10.037 97.4746 10.246 97.8796 10.664C98.3071 11.082 98.5209 11.665 98.5209 12.4131V31.5208C98.5209 32.2689 98.3184 32.8519 97.9134 33.2699C97.5083 33.6879 96.9233 33.8969 96.1583 33.8969C95.3932 33.8969 94.7969 33.6879 94.3694 33.2699C93.9644 32.8519 93.7619 32.2689 93.7619 31.5208V18.1553H94.5044L88.2266 29.1447C87.9565 29.5627 87.664 29.8818 87.349 30.1018C87.0565 30.2998 86.6627 30.3988 86.1677 30.3988C85.6727 30.3988 85.2676 30.2888 84.9526 30.0688C84.6376 29.8488 84.3563 29.5407 84.1088 29.1447L77.7635 18.1223H78.5735V31.5208C78.5735 32.2689 78.371 32.8519 77.966 33.2699C77.5834 33.6879 76.9984 33.8969 76.2109 33.8969Z" fill="#FF7020"/>
    <path d="M111.515 33.9629C109.557 33.9629 107.869 33.6219 106.452 32.9399C105.057 32.2358 103.977 31.2568 103.212 30.0028C102.469 28.7267 102.098 27.2307 102.098 25.5146C102.098 23.8425 102.458 22.3795 103.178 21.1254C103.898 19.8494 104.899 18.8593 106.182 18.1553C107.487 17.4293 108.961 17.0663 110.603 17.0663C111.796 17.0663 112.876 17.2643 113.843 17.6603C114.811 18.0343 115.644 18.5843 116.341 19.3103C117.039 20.0144 117.567 20.8834 117.927 21.9174C118.287 22.9295 118.468 24.0625 118.468 25.3166C118.468 25.7346 118.332 26.0536 118.062 26.2736C117.792 26.4716 117.399 26.5706 116.881 26.5706H106.283V23.9965H114.789L114.249 24.4585C114.249 23.5565 114.114 22.8085 113.843 22.2145C113.573 21.5984 113.18 21.1364 112.662 20.8284C112.167 20.5204 111.548 20.3664 110.806 20.3664C109.973 20.3664 109.264 20.5534 108.679 20.9274C108.094 21.3014 107.644 21.8404 107.329 22.5445C107.014 23.2485 106.857 24.0955 106.857 25.0856V25.3496C106.857 27.0216 107.251 28.2537 108.038 29.0457C108.848 29.8378 110.041 30.2338 111.616 30.2338C112.156 30.2338 112.775 30.1678 113.472 30.0358C114.17 29.9038 114.822 29.6947 115.43 29.4087C115.947 29.1667 116.409 29.0897 116.814 29.1777C117.219 29.2437 117.534 29.4197 117.759 29.7057C117.984 29.9918 118.107 30.3218 118.13 30.6958C118.175 31.0698 118.096 31.4438 117.894 31.8178C117.691 32.1698 117.354 32.4669 116.881 32.7089C116.116 33.1269 115.25 33.4349 114.282 33.6329C113.337 33.8529 112.415 33.9629 111.515 33.9629Z" fill="#FF7020"/>
    <path d="M127.035 33.9629C125.82 33.9629 124.728 33.7319 123.761 33.2699C122.793 32.8079 122.039 32.1808 121.499 31.3888C120.959 30.5968 120.689 29.7057 120.689 28.7157C120.689 27.5277 121.004 26.5926 121.634 25.9106C122.264 25.2066 123.288 24.7116 124.706 24.4255C126.123 24.1175 128.002 23.9635 130.342 23.9635H132.131V26.5376H130.376C129.229 26.5376 128.295 26.6036 127.575 26.7356C126.877 26.8456 126.371 27.0436 126.056 27.3297C125.763 27.6157 125.617 28.0117 125.617 28.5177C125.617 29.1337 125.831 29.6397 126.258 30.0358C126.708 30.4318 127.35 30.6298 128.182 30.6298C128.835 30.6298 129.409 30.4868 129.904 30.2008C130.421 29.8928 130.826 29.4857 131.119 28.9797C131.411 28.4517 131.557 27.8577 131.557 27.1977V23.4025C131.557 22.4345 131.332 21.7524 130.882 21.3564C130.432 20.9384 129.667 20.7294 128.587 20.7294C127.98 20.7294 127.316 20.8064 126.596 20.9604C125.898 21.0924 125.122 21.3234 124.267 21.6534C123.772 21.8734 123.333 21.9284 122.951 21.8184C122.568 21.6864 122.276 21.4664 122.073 21.1584C121.871 20.8284 121.769 20.4764 121.769 20.1024C121.769 19.7064 121.882 19.3323 122.107 18.9803C122.332 18.6063 122.703 18.3313 123.221 18.1553C124.278 17.7373 125.268 17.4513 126.191 17.2973C127.136 17.1433 128.002 17.0663 128.79 17.0663C130.522 17.0663 131.94 17.3193 133.043 17.8253C134.168 18.3093 135.011 19.0683 135.574 20.1024C136.136 21.1144 136.418 22.4235 136.418 24.0295V31.3558C136.418 32.1698 136.215 32.7969 135.81 33.2369C135.405 33.6769 134.82 33.8969 134.055 33.8969C133.29 33.8969 132.694 33.6769 132.266 33.2369C131.861 32.7969 131.659 32.1698 131.659 31.3558V30.1348L131.895 30.3328C131.76 31.0808 131.467 31.7298 131.017 32.2798C130.59 32.8079 130.039 33.2259 129.364 33.5339C128.689 33.8199 127.912 33.9629 127.035 33.9629Z" fill="#FF7020"/>
    <path d="M146.194 33.9629C144.191 33.9629 142.695 33.4239 141.705 32.3459C140.715 31.2458 140.22 29.6177 140.22 27.4617V12.5781C140.22 11.7421 140.433 11.115 140.861 10.697C141.311 10.257 141.952 10.037 142.785 10.037C143.595 10.037 144.214 10.257 144.641 10.697C145.091 11.115 145.316 11.7421 145.316 12.5781V27.2637C145.316 28.1657 145.507 28.8367 145.89 29.2767C146.295 29.6947 146.824 29.9038 147.476 29.9038C147.656 29.9038 147.825 29.8928 147.983 29.8708C148.14 29.8488 148.309 29.8378 148.489 29.8378C148.849 29.7938 149.096 29.9038 149.231 30.1678C149.389 30.4098 149.468 30.9048 149.468 31.6528C149.468 32.3129 149.333 32.8189 149.063 33.1709C148.793 33.5009 148.376 33.7209 147.814 33.8309C147.589 33.8529 147.33 33.8749 147.037 33.8969C146.745 33.9409 146.464 33.9629 146.194 33.9629Z" fill="#FF7020"/>
    <path d="M159.717 4.0369C159.503 4.1562 159.222 4.41184 159.076 4.60783L158.82 4.97425V9.54173V14.1177L159.042 14.6887C159.845 16.7423 161.569 18.1057 163.644 18.3188L164.199 18.3784L164.242 28.6893L164.284 39.0002L164.472 39.307C164.583 39.4774 164.831 39.7246 165.027 39.8609C165.343 40.0825 165.454 40.108 166.035 40.108C166.607 40.108 166.726 40.0825 167.025 39.878C167.204 39.7501 167.452 39.503 167.571 39.3241L167.785 39.0088L167.827 28.6979L167.87 18.3784L168.425 18.3188C170.551 18.1057 172.412 16.5804 173.061 14.5438C173.249 13.9558 173.249 13.8621 173.249 9.46504V4.98277L173.018 4.65044C172.643 4.12211 172.25 3.90055 171.592 3.86647C170.892 3.83238 170.389 4.06246 170.004 4.60783L169.748 4.97425L169.706 7.11312L169.663 9.26052H168.767H167.87L167.827 7.12165C167.785 5.01686 167.785 4.98277 167.571 4.676C167.213 4.13915 166.777 3.90055 166.128 3.86647C165.428 3.83238 164.925 4.06246 164.54 4.60783L164.284 4.97425L164.242 7.11312L164.199 9.26052H163.303H162.406L162.363 7.12165L162.321 4.98277L162.09 4.65044C161.715 4.12211 161.322 3.90055 160.664 3.86647C160.195 3.8409 160.033 3.87499 159.717 4.0369ZM169.62 13.1378C169.62 13.6576 169.202 14.2285 168.596 14.5523C168.323 14.6972 168.084 14.7142 166.035 14.7142C163.883 14.7142 163.755 14.7057 163.431 14.5268C162.85 14.22 162.449 13.649 162.449 13.1378V12.8821H166.035H169.62V13.1378Z" fill="#FF7020"/>
    <path d="M177.414 4.0369C177.201 4.1562 176.919 4.41184 176.774 4.60783L176.518 4.97426L176.475 14.4756L176.433 23.977L175.715 24.19C173.923 24.7013 172.582 25.775 171.831 27.2833C171.173 28.6212 171.062 29.1751 171.062 31.1179C171.062 32.541 171.088 32.8819 171.242 33.5039C172.078 36.8017 173.931 39.0514 176.518 39.912C177.022 40.0739 177.295 40.108 178.268 40.108C179.241 40.108 179.515 40.0739 180.018 39.912C182.605 39.0514 184.458 36.8017 185.295 33.5039C185.448 32.8819 185.474 32.541 185.474 31.1179C185.474 29.6863 185.448 29.3625 185.286 28.7746C184.646 26.4141 183.118 24.8462 180.821 24.19L180.104 23.977L180.061 14.4841L180.018 4.98278L179.788 4.65044C179.412 4.12212 179.019 3.90056 178.362 3.86647C177.893 3.84091 177.73 3.875 177.414 4.0369ZM179.95 27.7094C180.906 28.0332 181.53 28.7746 181.769 29.8483C181.931 30.5896 181.837 32.4473 181.598 33.2057C181.154 34.6032 180.309 35.7792 179.395 36.2393C178.823 36.529 177.722 36.5376 177.158 36.2478C176.185 35.7451 175.4 34.6543 174.921 33.1631C174.751 32.6007 174.725 32.3535 174.725 31.1179C174.725 29.746 174.734 29.7034 174.973 29.1751C175.4 28.2548 176.27 27.6583 177.414 27.5049C177.414 27.5049 179.421 27.539 179.95 27.7094Z" fill="#FF7020"/>
    <path d="M193.876 4.00281C192.784 4.57375 191.093 6.12464 190.052 7.49659C187.456 10.9478 185.945 15.822 185.595 21.9148C185.467 24.1474 185.527 24.4798 186.116 25.0677C186.688 25.6387 186.841 25.6642 190.086 25.6642H192.869V32.2513V38.8469L193.065 39.2048C193.168 39.4093 193.424 39.6905 193.629 39.8439C193.962 40.0825 194.047 40.108 194.653 40.108C195.234 40.108 195.353 40.0825 195.652 39.878C195.832 39.7501 196.079 39.503 196.199 39.3241L196.412 39.0088V22V4.98277L196.182 4.65044C195.806 4.11359 195.413 3.90055 194.756 3.86647C194.329 3.84943 194.115 3.87499 193.876 4.00281ZM192.869 15.9498V22H191.059H189.258L189.317 21.1223C189.471 18.7789 190.043 15.9498 190.786 13.8621C191.281 12.4816 192.613 9.89963 192.826 9.89963C192.852 9.89963 192.869 12.618 192.869 15.9498Z" fill="#FF7020"/>
  </symbol>
  <symbol id="circle" width="200" height="200" viewBox="0 0 200 200" fill="orange" xmlns="http://www.w3.org/2000/svg">
    <circle cx="100" cy="100" r="100" fill="#FFABO8" />
  </symbol>

  <svg width="200" height="200" viewBox="0 0 200 200" fill="none" xmlns="http://www.w3.org/2000/svg">
    <circle cx="100" cy="100" r="100" fill="#FFAB08"/>
  </svg>

</svg>
